SplineFontDB: 3.0
FontName: RibengUni
FullName: RibengUni
FamilyName: RibengUni
Weight: Book
Copyright: Copyright (c) 2016 by www.ribeng.net/  Mr. Bivuti Chakma (Suz Moriz) \nAdmin of www.hilledu.com \nE-mail: bsereye@hotmail.com\nCell: +8801786529401
UComments: "First Chakma Unicode compatible font for Desktop, Web & Mobile writing system.+AAoA-Enjoy your own language in Anywhere & Anytime."
Version: 1.16, Date: 22 Octoberr 2016 | Designer : Bivuti Chakma (Suz Moriz)
ItalicAngle: 0
UnderlinePosition: -4700
UnderlineWidth: 50
Ascent: 800
Descent: 200
InvalidEm: 0
sfntRevision: 0x00030000
LayerCount: 2
Layer: 0 1 "Back" 1
Layer: 1 1 "Fore" 0
XUID: [1021 590 225147361 6318]
StyleMap: 0x0040
FSType: 8
OS2Version: 6
OS2_WeightWidthSlopeOnly: 0
OS2_UseTypoMetrics: 0
CreationTime: 1346218679
ModificationTime: 1477076144
PfmFamily: 81
TTFWeight: 400
TTFWidth: 5
LineGap: 50
VLineGap: 0
Panose: 0 0 0 0 0 0 0 0 0 0
OS2TypoAscent: 1000
OS2TypoAOffset: 0
OS2TypoDescent: -462
OS2TypoDOffset: 0
OS2TypoLinegap: 0
OS2WinAscent: 1000
OS2WinAOffset: 0
OS2WinDescent: 462
OS2WinDOffset: 0
HheadAscent: 1000
HheadAOffset: 0
HheadDescent: -462
HheadDOffset: 0
OS2SubXSize: 700
OS2SubYSize: 650
OS2SubXOff: 0
OS2SubYOff: 140
OS2SupXSize: 700
OS2SupYSize: 650
OS2SupXOff: 0
OS2SupYOff: 477
OS2StrikeYSize: 50
OS2StrikeYPos: 250
OS2CapHeight: 656
OS2XHeight: 486
OS2Vendor: 'Bivu'
OS2CodePages: 00020003.00000000
OS2UnicodeRanges: 8000002f.0000000a.00000000.00000000
Lookup: 1 0 0 "'ornm' Ornaments in Latin lookup 0" { "'ornm' Ornaments in Latin lookup 0 subtable"  } ['ornm' ('DFLT' <'dflt' > 'latn' <'dflt' > ) ]
Lookup: 4 0 0 "'ccmp' Glyph Composition/Decomposition in Latin lookup 12" { "'ccmp' Glyph Composition/Decomposition in Latin lookup 12 subtable"  } ['ccmp' ('DFLT' <'dflt' > 'latn' <'dflt' > ) ]
Lookup: 4 0 0 "'ccmp' Glyph Composition/Decomposition in Latin lookup 1" { "'ccmp' Glyph Composition/Decomposition in Latin lookup 1 subtable"  } ['ccmp' ('DFLT' <'dflt' > 'latn' <'dflt' > ) ]

StartChar: .notdef
Encoding: 1114112 -1 0
Width: 653
GlyphClass: 2
Flags: W
LayerCount: 2
Fore
SplineSet
89 0 m 1,0,-1
 89 660 l 1,1,-1
 565 660 l 1,2,-1
 565 0 l 1,3,-1
 89 0 l 1,0,-1
154 110 m 1,4,-1
 281 340 l 1,5,-1
 154 572 l 1,6,-1
 154 110 l 1,4,-1
197 58 m 1,7,-1
 454 58 l 1,8,-1
 381 190 l 1,9,-1
 329 293 l 1,10,-1
 325 293 l 1,11,-1
 271 190 l 1,12,-1
 197 58 l 1,7,-1
209 600 m 1,13,-1
 275 481 l 1,14,-1
 325 387 l 1,15,-1
 329 387 l 1,16,-1
 378 481 l 1,17,-1
 444 600 l 1,18,-1
 209 600 l 1,13,-1
372 340 m 1,19,-1
 498 110 l 1,20,-1
 498 572 l 1,21,-1
 372 340 l 1,19,-1
EndSplineSet
EndChar

StartChar: exclam
Encoding: 33 33 6
Width: 289
GlyphClass: 2
Flags: W
LayerCount: 2
Fore
SplineSet
85 50 m 0,0,1
 85 78 85 78 102.5 96 c 128,-1,2
 120 114 120 114 145 114 c 128,-1,3
 170 114 170 114 187 96 c 128,-1,4
 204 78 204 78 204 50 c 0,5,6
 204 23 204 23 186.5 5.5 c 128,-1,7
 169 -12 169 -12 145 -12 c 0,8,9
 120 -12 120 -12 102.5 5.5 c 128,-1,10
 85 23 85 23 85 50 c 0,0,1
103 670 m 1,11,-1
 186 670 l 1,12,-1
 184 576 l 1,13,-1
 173 198 l 1,14,-1
 116 198 l 1,15,-1
 105 576 l 1,16,-1
 103 670 l 1,11,-1
EndSplineSet
EndChar

StartChar: quotedbl
Encoding: 34 34 7
Width: 426
GlyphClass: 2
Flags: W
LayerCount: 2
Fore
SplineSet
80 690 m 1,0,-1
 168 690 l 1,1,-1
 165 598 l 1,2,-1
 149 431 l 1,3,-1
 99 431 l 1,4,-1
 83 598 l 1,5,-1
 80 690 l 1,0,-1
257 690 m 1,6,-1
 344 690 l 1,7,-1
 342 598 l 1,8,-1
 326 431 l 1,9,-1
 275 431 l 1,10,-1
 259 598 l 1,11,-1
 257 690 l 1,6,-1
EndSplineSet
EndChar

StartChar: numbersign
Encoding: 35 35 8
Width: 497
GlyphClass: 2
Flags: W
LayerCount: 2
Fore
SplineSet
35 204 m 1,0,-1
 35 261 l 1,1,-1
 122 261 l 1,2,-1
 140 409 l 1,3,-1
 55 409 l 1,4,-1
 55 467 l 1,5,-1
 147 467 l 1,6,-1
 170 650 l 1,7,-1
 223 650 l 1,8,-1
 200 467 l 1,9,-1
 333 467 l 1,10,-1
 357 650 l 1,11,-1
 410 650 l 1,12,-1
 386 467 l 1,13,-1
 467 467 l 1,14,-1
 467 409 l 1,15,-1
 380 409 l 1,16,-1
 362 261 l 1,17,-1
 447 261 l 1,18,-1
 447 204 l 1,19,-1
 355 204 l 1,20,-1
 330 0 l 1,21,-1
 277 0 l 1,22,-1
 301 204 l 1,23,-1
 169 204 l 1,24,-1
 144 0 l 1,25,-1
 90 0 l 1,26,-1
 115 204 l 1,27,-1
 35 204 l 1,0,-1
176 261 m 1,28,-1
 308 261 l 1,29,-1
 326 409 l 1,30,-1
 194 409 l 1,31,-1
 176 261 l 1,28,-1
EndSplineSet
EndChar

StartChar: dollar
Encoding: 36 36 9
Width: 497
GlyphClass: 2
Flags: W
LayerCount: 2
Fore
SplineSet
52 66 m 1,0,-1
 90 123 l 1,1,2
 168 56 168 56 245 56 c 0,3,4
 299 56 299 56 327.5 83.5 c 128,-1,5
 356 111 356 111 356 159 c 0,6,7
 356 197 356 197 335.5 225.5 c 128,-1,8
 315 254 315 254 284 271 c 128,-1,9
 253 288 253 288 216.5 308 c 128,-1,10
 180 328 180 328 149 347 c 128,-1,11
 118 366 118 366 97.5 400.5 c 128,-1,12
 77 435 77 435 77 481 c 0,13,14
 77 547 77 547 116.5 592 c 128,-1,15
 156 637 156 637 222 648 c 1,16,-1
 222 748 l 1,17,-1
 282 748 l 1,18,-1
 282 649 l 1,19,20
 360 640 360 640 424 573 c 1,21,-1
 380 524 l 1,22,23
 349 554 349 554 322.5 567.5 c 128,-1,24
 296 581 296 581 258 581 c 0,25,26
 212 581 212 581 185 555 c 128,-1,27
 158 529 158 529 158 485 c 0,28,29
 158 456 158 456 173.5 433.5 c 128,-1,30
 189 411 189 411 213.5 395.5 c 128,-1,31
 238 380 238 380 268 366 c 128,-1,32
 298 352 298 352 327.5 335 c 128,-1,33
 357 318 357 318 381.5 297 c 128,-1,34
 406 276 406 276 421.5 242.5 c 128,-1,35
 437 209 437 209 437 165 c 0,36,37
 437 94 437 94 395 47.5 c 128,-1,38
 353 1 353 1 282 -9 c 1,39,-1
 282 -110 l 1,40,-1
 222 -110 l 1,41,-1
 222 -11 l 1,42,43
 125 -2 125 -2 52 66 c 1,0,-1
EndSplineSet
EndChar

StartChar: percent
Encoding: 37 37 10
Width: 824
GlyphClass: 2
Flags: W
LayerCount: 2
Fore
SplineSet
35 462 m 128,-1,1
 35 560 35 560 75 614 c 128,-1,2
 115 668 115 668 184 668 c 0,3,4
 252 668 252 668 292.5 613.5 c 128,-1,5
 333 559 333 559 333 462 c 0,6,7
 333 364 333 364 292.5 309 c 128,-1,8
 252 254 252 254 184 254 c 128,-1,9
 116 254 116 254 75.5 309 c 128,-1,0
 35 364 35 364 35 462 c 128,-1,1
97 462 m 0,10,11
 97 386 97 386 120.5 345.5 c 128,-1,12
 144 305 144 305 184 305 c 0,13,14
 223 305 223 305 246.5 345.5 c 128,-1,15
 270 386 270 386 270 462 c 128,-1,16
 270 538 270 538 247 577.5 c 128,-1,17
 224 617 224 617 184 617 c 128,-1,18
 144 617 144 617 120.5 578 c 128,-1,19
 97 539 97 539 97 462 c 0,10,11
203 -12 m 1,20,-1
 565 668 l 1,21,-1
 620 668 l 1,22,-1
 258 -12 l 1,23,-1
 203 -12 l 1,20,-1
492 196 m 0,24,25
 492 293 492 293 532.5 347.5 c 128,-1,26
 573 402 573 402 641 402 c 128,-1,27
 709 402 709 402 749.5 347.5 c 128,-1,28
 790 293 790 293 790 196 c 0,29,30
 790 98 790 98 749.5 43 c 128,-1,31
 709 -12 709 -12 641 -12 c 128,-1,32
 573 -12 573 -12 532.5 43 c 128,-1,33
 492 98 492 98 492 196 c 0,24,25
554 196 m 128,-1,35
 554 120 554 120 578 79.5 c 128,-1,36
 602 39 602 39 641 39 c 128,-1,37
 680 39 680 39 703.5 79.5 c 128,-1,38
 727 120 727 120 727 196 c 128,-1,39
 727 272 727 272 704 311.5 c 128,-1,40
 681 351 681 351 641 351 c 128,-1,41
 601 351 601 351 577.5 311.5 c 128,-1,34
 554 272 554 272 554 196 c 128,-1,35
EndSplineSet
EndChar

StartChar: ampersand
Encoding: 38 38 11
Width: 609
GlyphClass: 2
Flags: W
LayerCount: 2
Fore
SplineSet
32 170 m 0,0,1
 32 230 32 230 66.5 273.5 c 128,-1,2
 101 317 101 317 161 359 c 1,3,4
 118 445 118 445 118 513 c 0,5,6
 118 579 118 579 160.5 623.5 c 128,-1,7
 203 668 203 668 270 668 c 0,8,9
 330 668 330 668 364.5 632.5 c 128,-1,10
 399 597 399 597 399 538 c 0,11,12
 399 507 399 507 387.5 480 c 128,-1,13
 376 453 376 453 351 427.5 c 128,-1,14
 326 402 326 402 306.5 386 c 128,-1,15
 287 370 287 370 251 344 c 1,16,17
 313 247 313 247 417 160 c 1,18,19
 480 245 480 245 509 354 c 1,20,-1
 586 354 l 1,21,22
 544 216 544 216 471 119 c 1,23,24
 541 71 541 71 594 56 c 1,25,-1
 572 -12 l 1,26,27
 499 9 499 9 421 63 c 1,28,29
 338 -12 338 -12 232 -12 c 0,30,31
 143 -12 143 -12 87.5 39 c 128,-1,32
 32 90 32 90 32 170 c 0,0,1
112 175 m 0,33,34
 112 121 112 121 149 87.5 c 128,-1,35
 186 54 186 54 241 54 c 0,36,37
 305 54 305 54 366 107 c 1,38,39
 263 197 263 197 194 302 c 1,40,41
 112 236 112 236 112 175 c 0,33,34
189 514 m 0,42,43
 189 464 189 464 220 399 c 1,44,45
 275 436 275 436 303.5 467 c 128,-1,46
 332 498 332 498 332 537 c 0,47,48
 332 568 332 568 316.5 588.5 c 128,-1,49
 301 609 301 609 270 609 c 0,50,51
 234 609 234 609 211.5 582 c 128,-1,52
 189 555 189 555 189 514 c 0,42,43
EndSplineSet
EndChar

StartChar: quotesingle
Encoding: 39 39 12
Width: 249
GlyphClass: 2
Flags: W
LayerCount: 2
Fore
SplineSet
80 690 m 1,0,-1
 168 690 l 1,1,-1
 165 598 l 1,2,-1
 149 431 l 1,3,-1
 99 431 l 1,4,-1
 83 598 l 1,5,-1
 80 690 l 1,0,-1
EndSplineSet
EndChar

StartChar: parenleft
Encoding: 40 40 13
Width: 303
GlyphClass: 2
Flags: W
LayerCount: 2
Fore
SplineSet
82 278 m 128,-1,1
 82 519 82 519 214 732 c 1,2,-1
 265 708 l 1,3,4
 150 518 150 518 150 278 c 128,-1,5
 150 38 150 38 265 -152 c 1,6,-1
 214 -176 l 1,7,0
 82 37 82 37 82 278 c 128,-1,1
EndSplineSet
Substitution2: "'dnom' Denominators in Latin lookup 5 subtable" parenleft.dnom
Substitution2: "'numr' Numerators in Latin lookup 4 subtable" parenleft.numr
EndChar

StartChar: parenright
Encoding: 41 41 14
Width: 303
GlyphClass: 2
Flags: W
LayerCount: 2
Fore
SplineSet
38 -152 m 1,0,1
 153 38 153 38 153 278 c 128,-1,2
 153 518 153 518 38 708 c 1,3,-1
 89 732 l 1,4,5
 221 519 221 519 221 278 c 128,-1,6
 221 37 221 37 89 -176 c 1,7,-1
 38 -152 l 1,0,1
EndSplineSet
Substitution2: "'dnom' Denominators in Latin lookup 5 subtable" parenright.dnom
Substitution2: "'numr' Numerators in Latin lookup 4 subtable" parenright.numr
EndChar

StartChar: asterisk
Encoding: 42 42 15
Width: 504
GlyphClass: 2
Flags: W
LayerCount: 2
Fore
SplineSet
84 287 m 1,0,-1
 84 335 l 1,1,-1
 196 335 l 1,2,-1
 117 415 l 1,3,-1
 150 448 l 1,4,-1
 229 369 l 1,5,-1
 229 480 l 1,6,-1
 276 480 l 1,7,-1
 276 370 l 1,8,-1
 354 447 l 1,9,-1
 389 414 l 1,10,-1
 309 335 l 1,11,-1
 420 335 l 1,12,-1
 420 287 l 1,13,-1
 311 287 l 1,14,-1
 387 211 l 1,15,-1
 354 178 l 1,16,-1
 276 255 l 1,17,-1
 276 145 l 1,18,-1
 229 145 l 1,19,-1
 229 255 l 1,20,-1
 150 176 l 1,21,-1
 117 210 l 1,22,-1
 194 287 l 1,23,-1
 84 287 l 1,0,-1
EndSplineSet
EndChar

StartChar: plus
Encoding: 43 43 16
Width: 497
GlyphClass: 2
Flags: W
LayerCount: 2
Fore
SplineSet
34 299 m 1,0,-1
 34 361 l 1,1,-1
 216 361 l 1,2,-1
 216 556 l 1,3,-1
 281 556 l 1,4,-1
 281 361 l 1,5,-1
 463 361 l 1,6,-1
 463 299 l 1,7,-1
 281 299 l 1,8,-1
 281 104 l 1,9,-1
 216 104 l 1,10,-1
 216 299 l 1,11,-1
 34 299 l 1,0,-1
EndSplineSet
EndChar

StartChar: comma
Encoding: 44 44 17
Width: 249
GlyphClass: 2
Flags: W
LayerCount: 2
Fore
SplineSet
47 -122 m 1,0,1
 137 -82 137 -82 137 0 c 1,2,3
 134 -1 134 -1 127 -1 c 0,4,5
 102 -1 102 -1 85 14 c 128,-1,6
 68 29 68 29 68 56 c 0,7,8
 68 82 68 82 85.5 98 c 128,-1,9
 103 114 103 114 129 114 c 0,10,11
 161 114 161 114 179.5 88 c 128,-1,12
 198 62 198 62 198 17 c 0,13,14
 198 -47 198 -47 163.5 -95.5 c 128,-1,15
 129 -144 129 -144 67 -170 c 1,16,-1
 47 -122 l 1,0,1
EndSplineSet
Substitution2: "'dnom' Denominators in Latin lookup 5 subtable" comma.dnom
Substitution2: "'numr' Numerators in Latin lookup 4 subtable" comma.numr
EndChar

StartChar: hyphen
Encoding: 45 45 18
Width: 311
GlyphClass: 2
Flags: W
LayerCount: 2
Fore
SplineSet
41 219 m 1,0,-1
 41 282 l 1,1,-1
 271 282 l 1,2,-1
 271 219 l 1,3,-1
 41 219 l 1,0,-1
EndSplineSet
EndChar

StartChar: period
Encoding: 46 46 19
Width: 249
GlyphClass: 2
Flags: W
LayerCount: 2
Fore
SplineSet
65 50 m 0,0,1
 65 78 65 78 82.5 96 c 128,-1,2
 100 114 100 114 125 114 c 128,-1,3
 150 114 150 114 167 96 c 128,-1,4
 184 78 184 78 184 50 c 0,5,6
 184 23 184 23 166.5 5.5 c 128,-1,7
 149 -12 149 -12 125 -12 c 0,8,9
 100 -12 100 -12 82.5 5.5 c 128,-1,10
 65 23 65 23 65 50 c 0,0,1
EndSplineSet
Substitution2: "'dnom' Denominators in Latin lookup 5 subtable" period.dnom
Substitution2: "'numr' Numerators in Latin lookup 4 subtable" period.numr
EndChar

StartChar: slash
Encoding: 47 47 20
Width: 350
GlyphClass: 2
Flags: W
LayerCount: 2
Fore
SplineSet
10 -160 m 1,0,-1
 277 710 l 1,1,-1
 337 710 l 1,2,-1
 71 -160 l 1,3,-1
 10 -160 l 1,0,-1
EndSplineSet
Substitution2: "'frac' Diagonal Fractions in Latin lookup 6 subtable" slash.frac
EndChar

StartChar: zero
Encoding: 48 48 21
Width: 497
GlyphClass: 2
Flags: W
LayerCount: 2
Fore
SplineSet
44 321 m 128,-1,1
 44 480 44 480 98 565 c 128,-1,2
 152 650 152 650 249 650 c 0,3,4
 345 650 345 650 399 565 c 128,-1,5
 453 480 453 480 453 321 c 128,-1,6
 453 162 453 162 399 75 c 128,-1,7
 345 -12 345 -12 249 -12 c 0,8,9
 152 -12 152 -12 98 75 c 128,-1,0
 44 162 44 162 44 321 c 128,-1,1
124 321 m 0,10,11
 124 186 124 186 157 120 c 128,-1,12
 190 54 190 54 249 54 c 0,13,14
 307 54 307 54 340 120 c 128,-1,15
 373 186 373 186 373 321 c 0,16,17
 373 584 373 584 249 584 c 0,18,19
 124 584 124 584 124 321 c 0,10,11
EndSplineSet
Substitution2: "'dnom' Denominators in Latin lookup 5 subtable" zero.dnom
Substitution2: "'numr' Numerators in Latin lookup 4 subtable" zero.numr
EndChar

StartChar: one
Encoding: 49 49 22
Width: 497
GlyphClass: 2
Flags: W
LayerCount: 2
Fore
SplineSet
79 0 m 1,0,-1
 79 68 l 1,1,-1
 225 68 l 1,2,-1
 225 538 l 1,3,-1
 109 538 l 1,4,-1
 109 591 l 1,5,6
 189 605 189 605 244 638 c 1,7,-1
 307 638 l 1,8,-1
 307 68 l 1,9,-1
 439 68 l 1,10,-1
 439 0 l 1,11,-1
 79 0 l 1,0,-1
EndSplineSet
Substitution2: "'dnom' Denominators in Latin lookup 5 subtable" one.dnom
Substitution2: "'numr' Numerators in Latin lookup 4 subtable" one.numr
EndChar

StartChar: two
Encoding: 50 50 23
Width: 497
GlyphClass: 2
Flags: W
LayerCount: 2
Fore
SplineSet
36 553 m 1,0,1
 125 650 125 650 229 650 c 0,2,3
 317 650 317 650 368.5 598.5 c 128,-1,4
 420 547 420 547 420 462 c 0,5,6
 420 380 420 380 358.5 294 c 128,-1,7
 297 208 297 208 160 65 c 1,8,9
 230 71 230 71 267 71 c 2,10,-1
 452 71 l 1,11,-1
 452 0 l 1,12,-1
 40 0 l 1,13,-1
 40 49 l 1,14,15
 123 132 123 132 169.5 181 c 128,-1,16
 216 230 216 230 260 284.5 c 128,-1,17
 304 339 304 339 322 379.5 c 128,-1,18
 340 420 340 420 340 458 c 0,19,20
 340 515 340 515 309 549 c 128,-1,21
 278 583 278 583 219 583 c 0,22,23
 149 583 149 583 83 506 c 1,24,-1
 36 553 l 1,0,1
EndSplineSet
Substitution2: "'dnom' Denominators in Latin lookup 5 subtable" two.dnom
Substitution2: "'numr' Numerators in Latin lookup 4 subtable" two.numr
EndChar

StartChar: three
Encoding: 51 51 24
Width: 497
GlyphClass: 2
Flags: W
LayerCount: 2
Fore
SplineSet
26 78 m 1,0,-1
 68 132 l 1,1,2
 140 56 140 56 231 56 c 0,3,4
 289 56 289 56 326 88 c 128,-1,5
 363 120 363 120 363 173 c 0,6,7
 363 300 363 300 159 300 c 1,8,-1
 159 363 l 1,9,10
 340 363 340 363 340 482 c 0,11,12
 340 529 340 529 310.5 556 c 128,-1,13
 281 583 281 583 230 583 c 0,14,15
 159 583 159 583 94 518 c 1,16,-1
 50 570 l 1,17,18
 135 650 135 650 233 650 c 0,19,20
 318 650 318 650 371 607 c 128,-1,21
 424 564 424 564 424 488 c 0,22,23
 424 380 424 380 308 336 c 1,24,-1
 308 332 l 1,25,26
 369 318 369 318 407.5 275.5 c 128,-1,27
 446 233 446 233 446 170 c 0,28,29
 446 87 446 87 386 37.5 c 128,-1,30
 326 -12 326 -12 236 -12 c 0,31,32
 108 -12 108 -12 26 78 c 1,0,-1
EndSplineSet
Substitution2: "'dnom' Denominators in Latin lookup 5 subtable" three.dnom
Substitution2: "'numr' Numerators in Latin lookup 4 subtable" three.numr
EndChar

StartChar: four
Encoding: 52 52 25
Width: 497
GlyphClass: 2
Flags: W
LayerCount: 2
Fore
SplineSet
17 176 m 1,0,-1
 17 230 l 1,1,-1
 290 638 l 1,2,-1
 382 638 l 1,3,-1
 382 242 l 1,4,-1
 469 242 l 1,5,-1
 469 176 l 1,6,-1
 382 176 l 1,7,-1
 382 0 l 1,8,-1
 304 0 l 1,9,-1
 304 176 l 1,10,-1
 17 176 l 1,0,-1
104 242 m 1,11,-1
 304 242 l 1,12,-1
 304 427 l 2,13,14
 304 465 304 465 309 550 c 1,15,-1
 305 550 l 1,16,17
 303 546 303 546 253 460 c 1,18,-1
 104 242 l 1,11,-1
EndSplineSet
Substitution2: "'dnom' Denominators in Latin lookup 5 subtable" four.dnom
Substitution2: "'numr' Numerators in Latin lookup 4 subtable" four.numr
EndChar

StartChar: five
Encoding: 53 53 26
Width: 497
GlyphClass: 2
Flags: W
LayerCount: 2
Fore
SplineSet
25 75 m 1,0,-1
 65 129 l 1,1,2
 138 56 138 56 226 56 c 0,3,4
 286 56 286 56 326 96.5 c 128,-1,5
 366 137 366 137 366 202 c 128,-1,6
 366 267 366 267 329 304.5 c 128,-1,7
 292 342 292 342 230 342 c 0,8,9
 180 342 180 342 121 303 c 1,10,-1
 77 331 l 1,11,-1
 98 638 l 1,12,-1
 417 638 l 1,13,-1
 417 567 l 1,14,-1
 170 567 l 1,15,-1
 153 378 l 1,16,17
 202 404 202 404 251 404 c 0,18,19
 338 404 338 404 393.5 353.5 c 128,-1,20
 449 303 449 303 449 204 c 128,-1,21
 449 105 449 105 385.5 46.5 c 128,-1,22
 322 -12 322 -12 234 -12 c 0,23,24
 112 -12 112 -12 25 75 c 1,0,-1
EndSplineSet
Substitution2: "'dnom' Denominators in Latin lookup 5 subtable" five.dnom
Substitution2: "'numr' Numerators in Latin lookup 4 subtable" five.numr
EndChar

StartChar: six
Encoding: 54 54 27
Width: 497
GlyphClass: 2
Flags: W
LayerCount: 2
Fore
SplineSet
48 295 m 0,0,1
 48 475 48 475 117 562.5 c 128,-1,2
 186 650 186 650 291 650 c 0,3,4
 382 650 382 650 445 582 c 1,5,-1
 399 531 l 1,6,7
 357 581 357 581 294 581 c 0,8,9
 221 581 221 581 175 516.5 c 128,-1,10
 129 452 129 452 126 310 c 1,11,12
 156 347 156 347 196 368.5 c 128,-1,13
 236 390 236 390 275 390 c 0,14,15
 360 390 360 390 408.5 339.5 c 128,-1,16
 457 289 457 289 457 193 c 0,17,18
 457 103 457 103 402 45.5 c 128,-1,19
 347 -12 347 -12 268 -12 c 0,20,21
 170 -12 170 -12 109 67.5 c 128,-1,22
 48 147 48 147 48 295 c 0,0,1
128 244 m 1,23,24
 136 151 136 151 171.5 102 c 128,-1,25
 207 53 207 53 268 53 c 0,26,27
 316 53 316 53 347.5 92 c 128,-1,28
 379 131 379 131 379 193 c 0,29,30
 379 257 379 257 349 292.5 c 128,-1,31
 319 328 319 328 261 328 c 0,32,33
 188 328 188 328 128 244 c 1,23,24
EndSplineSet
Substitution2: "'dnom' Denominators in Latin lookup 5 subtable" six.dnom
Substitution2: "'numr' Numerators in Latin lookup 4 subtable" six.numr
EndChar

StartChar: seven
Encoding: 55 55 28
Width: 497
GlyphClass: 2
Flags: W
LayerCount: 2
Fore
SplineSet
44 567 m 1,0,-1
 44 638 l 1,1,-1
 455 638 l 1,2,-1
 455 587 l 1,3,4
 347 449 347 449 309 324.5 c 128,-1,5
 271 200 271 200 262 0 c 1,6,-1
 177 0 l 1,7,8
 185 181 185 181 226.5 309 c 128,-1,9
 268 437 268 437 362 567 c 1,10,-1
 44 567 l 1,0,-1
EndSplineSet
Substitution2: "'dnom' Denominators in Latin lookup 5 subtable" seven.dnom
Substitution2: "'numr' Numerators in Latin lookup 4 subtable" seven.numr
EndChar

StartChar: eight
Encoding: 56 56 29
Width: 497
GlyphClass: 2
Flags: W
LayerCount: 2
Fore
SplineSet
41 163 m 0,0,1
 41 271 41 271 161 335 c 1,2,-1
 161 339 l 1,3,4
 72 401 72 401 72 486 c 0,5,6
 72 559 72 559 123.5 604.5 c 128,-1,7
 175 650 175 650 253 650 c 0,8,9
 335 650 335 650 384 602.5 c 128,-1,10
 433 555 433 555 433 480 c 0,11,12
 433 434 433 434 406.5 393.5 c 128,-1,13
 380 353 380 353 345 326 c 1,14,-1
 345 322 l 1,15,16
 396 292 396 292 426 254.5 c 128,-1,17
 456 217 456 217 456 158 c 0,18,19
 456 85 456 85 398.5 36.5 c 128,-1,20
 341 -12 341 -12 250 -12 c 0,21,22
 160 -12 160 -12 100.5 37.5 c 128,-1,23
 41 87 41 87 41 163 c 0,0,1
115 171 m 0,24,25
 115 118 115 118 154 83.5 c 128,-1,26
 193 49 193 49 252 49 c 0,27,28
 307 49 307 49 342 80 c 128,-1,29
 377 111 377 111 377 161 c 0,30,31
 377 185 377 185 366.5 205 c 128,-1,32
 356 225 356 225 344.5 237.5 c 128,-1,33
 333 250 333 250 303.5 265.5 c 128,-1,34
 274 281 274 281 259 287.5 c 128,-1,35
 244 294 244 294 204 310 c 1,36,37
 115 251 115 251 115 171 c 0,24,25
148 486 m 0,38,39
 148 435 148 435 185.5 405.5 c 128,-1,40
 223 376 223 376 295 348 c 1,41,42
 362 407 362 407 362 476 c 0,43,44
 362 525 362 525 332 557 c 128,-1,45
 302 589 302 589 251 589 c 0,46,47
 206 589 206 589 177 560.5 c 128,-1,48
 148 532 148 532 148 486 c 0,38,39
EndSplineSet
Substitution2: "'dnom' Denominators in Latin lookup 5 subtable" eight.dnom
Substitution2: "'numr' Numerators in Latin lookup 4 subtable" eight.numr
EndChar

StartChar: nine
Encoding: 57 57 30
Width: 497
GlyphClass: 2
Flags: W
LayerCount: 2
Fore
SplineSet
40 445 m 0,0,1
 40 535 40 535 95 592.5 c 128,-1,2
 150 650 150 650 228 650 c 0,3,4
 326 650 326 650 387 571 c 128,-1,5
 448 492 448 492 448 343 c 0,6,7
 448 163 448 163 379 75.5 c 128,-1,8
 310 -12 310 -12 205 -12 c 0,9,10
 113 -12 113 -12 51 55 c 1,11,-1
 97 107 l 1,12,13
 140 56 140 56 202 56 c 0,14,15
 276 56 276 56 322.5 121 c 128,-1,16
 369 186 369 186 371 330 c 1,17,18
 341 292 341 292 301 270 c 128,-1,19
 261 248 261 248 221 248 c 0,20,21
 137 248 137 248 88.5 298.5 c 128,-1,22
 40 349 40 349 40 445 c 0,0,1
117 445 m 0,23,24
 117 381 117 381 147 345.5 c 128,-1,25
 177 310 177 310 235 310 c 0,26,27
 309 310 309 310 369 395 c 1,28,29
 352 585 352 585 228 585 c 0,30,31
 181 585 181 585 149 546 c 128,-1,32
 117 507 117 507 117 445 c 0,23,24
EndSplineSet
Substitution2: "'dnom' Denominators in Latin lookup 5 subtable" nine.dnom
Substitution2: "'numr' Numerators in Latin lookup 4 subtable" nine.numr
EndChar

StartChar: colon
Encoding: 58 58 31
Width: 249
GlyphClass: 2
Flags: W
LayerCount: 2
Fore
SplineSet
65 50 m 0,0,1
 65 78 65 78 82.5 96 c 128,-1,2
 100 114 100 114 125 114 c 128,-1,3
 150 114 150 114 167 96 c 128,-1,4
 184 78 184 78 184 50 c 0,5,6
 184 23 184 23 166.5 5.5 c 128,-1,7
 149 -12 149 -12 125 -12 c 0,8,9
 100 -12 100 -12 82.5 5.5 c 128,-1,10
 65 23 65 23 65 50 c 0,0,1
65 411 m 0,11,12
 65 439 65 439 82.5 456.5 c 128,-1,13
 100 474 100 474 125 474 c 128,-1,14
 150 474 150 474 167 456.5 c 128,-1,15
 184 439 184 439 184 411 c 0,16,17
 184 384 184 384 167 366.5 c 128,-1,18
 150 349 150 349 125 349 c 128,-1,19
 100 349 100 349 82.5 366.5 c 128,-1,20
 65 384 65 384 65 411 c 0,11,12
EndSplineSet
EndChar

StartChar: semicolon
Encoding: 59 59 32
Width: 249
GlyphClass: 2
Flags: W
LayerCount: 2
Fore
SplineSet
47 -122 m 1,0,1
 137 -82 137 -82 137 0 c 1,2,3
 134 -1 134 -1 127 -1 c 0,4,5
 102 -1 102 -1 85 14 c 128,-1,6
 68 29 68 29 68 56 c 0,7,8
 68 82 68 82 85.5 98 c 128,-1,9
 103 114 103 114 129 114 c 0,10,11
 161 114 161 114 179.5 88 c 128,-1,12
 198 62 198 62 198 17 c 0,13,14
 198 -47 198 -47 163.5 -95.5 c 128,-1,15
 129 -144 129 -144 67 -170 c 1,16,-1
 47 -122 l 1,0,1
65 411 m 0,17,18
 65 439 65 439 82.5 456.5 c 128,-1,19
 100 474 100 474 125 474 c 128,-1,20
 150 474 150 474 167 456.5 c 128,-1,21
 184 439 184 439 184 411 c 0,22,23
 184 384 184 384 167 366.5 c 128,-1,24
 150 349 150 349 125 349 c 128,-1,25
 100 349 100 349 82.5 366.5 c 128,-1,26
 65 384 65 384 65 411 c 0,17,18
EndSplineSet
EndChar

StartChar: less
Encoding: 60 60 33
Width: 497
GlyphClass: 2
Flags: W
LayerCount: 2
Fore
SplineSet
34 299 m 1,0,-1
 34 365 l 1,1,-1
 463 533 l 1,2,-1
 463 462 l 1,3,-1
 252 384 l 1,4,-1
 118 334 l 1,5,-1
 118 330 l 1,6,-1
 252 280 l 1,7,-1
 463 202 l 1,8,-1
 463 131 l 1,9,-1
 34 299 l 1,0,-1
EndSplineSet
EndChar

StartChar: equal
Encoding: 61 61 34
Width: 497
GlyphClass: 2
Flags: W
LayerCount: 2
Fore
SplineSet
34 192 m 1,0,-1
 34 254 l 1,1,-1
 463 254 l 1,2,-1
 463 192 l 1,3,-1
 34 192 l 1,0,-1
34 406 m 1,4,-1
 34 468 l 1,5,-1
 463 468 l 1,6,-1
 463 406 l 1,7,-1
 34 406 l 1,4,-1
EndSplineSet
EndChar

StartChar: greater
Encoding: 62 62 35
Width: 497
GlyphClass: 2
Flags: W
LayerCount: 2
Fore
SplineSet
34 131 m 1,0,-1
 34 202 l 1,1,-1
 245 280 l 1,2,-1
 379 330 l 1,3,-1
 379 334 l 1,4,-1
 245 384 l 1,5,-1
 34 462 l 1,6,-1
 34 533 l 1,7,-1
 463 365 l 1,8,-1
 463 299 l 1,9,-1
 34 131 l 1,0,-1
EndSplineSet
EndChar

StartChar: question
Encoding: 63 63 36
Width: 425
GlyphClass: 2
Flags: W
LayerCount: 2
Fore
SplineSet
38 599 m 1,0,1
 111 682 111 682 206 682 c 0,2,3
 284 682 284 682 330.5 639 c 128,-1,4
 377 596 377 596 377 522 c 0,5,6
 377 480 377 480 354 439 c 128,-1,7
 331 398 331 398 304 369.5 c 128,-1,8
 277 341 277 341 254 300 c 128,-1,9
 231 259 231 259 231 217 c 0,10,11
 231 205 231 205 232 198 c 1,12,-1
 160 198 l 1,13,14
 158 218 158 218 158 227 c 0,15,16
 158 264 158 264 172.5 298.5 c 128,-1,17
 187 333 187 333 207.5 359.5 c 128,-1,18
 228 386 228 386 248 410.5 c 128,-1,19
 268 435 268 435 282.5 462.5 c 128,-1,20
 297 490 297 490 297 517 c 0,21,22
 297 559 297 559 271.5 586.5 c 128,-1,23
 246 614 246 614 200 614 c 0,24,25
 135 614 135 614 85 556 c 1,26,-1
 38 599 l 1,0,1
139 50 m 0,27,28
 139 78 139 78 156 96 c 128,-1,29
 173 114 173 114 198 114 c 128,-1,30
 223 114 223 114 240.5 96 c 128,-1,31
 258 78 258 78 258 50 c 0,32,33
 258 23 258 23 240.5 5.5 c 128,-1,34
 223 -12 223 -12 198 -12 c 128,-1,35
 173 -12 173 -12 156 5.5 c 128,-1,36
 139 23 139 23 139 50 c 0,27,28
EndSplineSet
EndChar

StartChar: at
Encoding: 64 64 37
Width: 847
GlyphClass: 2
Flags: W
LayerCount: 2
Fore
SplineSet
51 203 m 0,0,1
 51 399 51 399 173 522.5 c 128,-1,2
 295 646 295 646 468 646 c 0,3,4
 618 646 618 646 707 555 c 128,-1,5
 796 464 796 464 796 315 c 0,6,7
 796 192 796 192 734 120.5 c 128,-1,8
 672 49 672 49 596 49 c 0,9,10
 554 49 554 49 526 68.5 c 128,-1,11
 498 88 498 88 493 125 c 1,12,-1
 491 125 l 1,13,14
 433 57 433 57 369 57 c 0,15,16
 316 57 316 57 282.5 94.5 c 128,-1,17
 249 132 249 132 249 198 c 0,18,19
 249 284 249 284 303.5 357 c 128,-1,20
 358 430 358 430 441 430 c 0,21,22
 495 430 495 430 521 382 c 1,23,-1
 523 382 l 1,24,-1
 534 422 l 1,25,-1
 589 422 l 1,26,-1
 550 222 l 2,27,28
 542 190 542 190 542 169 c 0,29,30
 542 105 542 105 604 105 c 0,31,32
 655 105 655 105 696.5 162.5 c 128,-1,33
 738 220 738 220 738 312 c 0,34,35
 738 437 738 437 666 514 c 128,-1,36
 594 591 594 591 461 591 c 0,37,38
 321 591 321 591 216 483 c 128,-1,39
 111 375 111 375 111 206 c 0,40,41
 111 63 111 63 194.5 -18.5 c 128,-1,42
 278 -100 278 -100 409 -100 c 0,43,44
 493 -100 493 -100 571 -55 c 1,45,-1
 593 -104 l 1,46,47
 508 -155 508 -155 403 -155 c 0,48,49
 250 -155 250 -155 150.5 -60.5 c 128,-1,50
 51 34 51 34 51 203 c 0,0,1
315 203 m 0,51,52
 315 157 315 157 334 135 c 128,-1,53
 353 113 353 113 385 113 c 0,54,55
 428 113 428 113 477 172 c 1,56,-1
 506 331 l 1,57,58
 480 373 480 373 442 373 c 0,59,60
 386 373 386 373 350.5 319 c 128,-1,61
 315 265 315 265 315 203 c 0,51,52
EndSplineSet
EndChar

StartChar: A
Encoding: 65 65 38
Width: 538
GlyphClass: 2
Flags: W
LayerCount: 2
Fore
SplineSet
0 0 m 1,0,-1
 222 656 l 1,1,-1
 316 656 l 1,2,-1
 538 0 l 1,3,-1
 450 0 l 1,4,-1
 387 200 l 1,5,-1
 148 200 l 1,6,-1
 85 0 l 1,7,-1
 0 0 l 1,0,-1
169 267 m 1,8,-1
 366 267 l 1,9,-1
 335 367 l 2,10,11
 303 469 303 469 270 588 c 1,12,-1
 266 588 l 1,13,14
 233 469 233 469 201 367 c 2,15,-1
 169 267 l 1,8,-1
EndSplineSet
EndChar

StartChar: B
Encoding: 66 66 39
Width: 583
GlyphClass: 2
Flags: W
LayerCount: 2
Fore
SplineSet
87 0 m 1,0,-1
 87 656 l 1,1,-1
 282 656 l 2,2,3
 387 656 387 656 447.5 617.5 c 128,-1,4
 508 579 508 579 508 496 c 0,5,6
 508 445 508 445 478.5 406 c 128,-1,7
 449 367 449 367 393 353 c 1,8,-1
 393 349 l 1,9,10
 545 325 545 325 545 192 c 0,11,12
 545 98 545 98 477.5 49 c 128,-1,13
 410 0 410 0 297 0 c 2,14,-1
 87 0 l 1,0,-1
171 66 m 1,15,-1
 285 66 l 2,16,17
 463 66 463 66 463 196 c 0,18,19
 463 314 463 314 285 314 c 2,20,-1
 171 314 l 1,21,-1
 171 66 l 1,15,-1
171 376 m 1,22,-1
 268 376 l 2,23,24
 426 376 426 376 426 489 c 0,25,26
 426 590 426 590 272 590 c 2,27,-1
 171 590 l 1,28,-1
 171 376 l 1,22,-1
EndSplineSet
EndChar

StartChar: C
Encoding: 67 67 40
Width: 566
GlyphClass: 2
Flags: W
LayerCount: 2
Fore
SplineSet
49 328 m 0,0,1
 49 483 49 483 131 575.5 c 128,-1,2
 213 668 213 668 342 668 c 0,3,4
 448 668 448 668 521 587 c 1,5,-1
 474 534 l 1,6,7
 416 595 416 595 343 595 c 0,8,9
 249 595 249 595 192 523.5 c 128,-1,10
 135 452 135 452 135 330 c 0,11,12
 135 206 135 206 190 133.5 c 128,-1,13
 245 61 245 61 339 61 c 0,14,15
 424 61 424 61 489 134 c 1,16,-1
 536 83 l 1,17,18
 455 -12 455 -12 337 -12 c 0,19,20
 210 -12 210 -12 129.5 79.5 c 128,-1,21
 49 171 49 171 49 328 c 0,0,1
EndSplineSet
EndChar

StartChar: D
Encoding: 68 68 41
Width: 609
GlyphClass: 2
Flags: W
LayerCount: 2
Fore
SplineSet
85 0 m 1,0,-1
 85 656 l 1,1,-1
 249 656 l 2,2,3
 400 656 400 656 479.5 572 c 128,-1,4
 559 488 559 488 559 331 c 0,5,6
 559 173 559 173 480 86.5 c 128,-1,7
 401 0 401 0 253 0 c 2,8,-1
 85 0 l 1,0,-1
168 68 m 1,9,-1
 243 68 l 2,10,11
 356 68 356 68 414.5 136.5 c 128,-1,12
 473 205 473 205 473 331 c 0,13,14
 473 456 473 456 415 522 c 128,-1,15
 357 588 357 588 243 588 c 2,16,-1
 168 588 l 1,17,-1
 168 68 l 1,9,-1
EndSplineSet
EndChar

StartChar: E
Encoding: 69 69 42
Width: 522
GlyphClass: 2
Flags: W
LayerCount: 2
Fore
SplineSet
87 0 m 1,0,-1
 87 656 l 1,1,-1
 465 656 l 1,2,-1
 465 586 l 1,3,-1
 171 586 l 1,4,-1
 171 380 l 1,5,-1
 419 380 l 1,6,-1
 419 309 l 1,7,-1
 171 309 l 1,8,-1
 171 71 l 1,9,-1
 475 71 l 1,10,-1
 475 0 l 1,11,-1
 87 0 l 1,0,-1
EndSplineSet
EndChar

StartChar: F
Encoding: 70 70 43
Width: 489
GlyphClass: 2
Flags: W
LayerCount: 2
Fore
SplineSet
87 0 m 1,0,-1
 87 656 l 1,1,-1
 466 656 l 1,2,-1
 466 586 l 1,3,-1
 171 586 l 1,4,-1
 171 364 l 1,5,-1
 421 364 l 1,6,-1
 421 294 l 1,7,-1
 171 294 l 1,8,-1
 171 0 l 1,9,-1
 87 0 l 1,0,-1
EndSplineSet
EndChar

StartChar: G
Encoding: 71 71 44
Width: 612
GlyphClass: 2
Flags: W
LayerCount: 2
Fore
SplineSet
49 328 m 0,0,1
 49 484 49 484 133.5 576 c 128,-1,2
 218 668 218 668 352 668 c 0,3,4
 461 668 461 668 540 587 c 1,5,-1
 492 534 l 1,6,7
 434 595 434 595 353 595 c 0,8,9
 253 595 253 595 194 523.5 c 128,-1,10
 135 452 135 452 135 330 c 0,11,12
 135 205 135 205 192 133 c 128,-1,13
 249 61 249 61 353 61 c 0,14,15
 430 61 430 61 472 100 c 1,16,-1
 472 271 l 1,17,-1
 333 271 l 1,18,-1
 333 340 l 1,19,-1
 548 340 l 1,20,-1
 548 64 l 1,21,22
 470 -12 470 -12 344 -12 c 0,23,24
 213 -12 213 -12 131 79 c 128,-1,25
 49 170 49 170 49 328 c 0,0,1
EndSplineSet
EndChar

StartChar: H
Encoding: 72 72 45
Width: 647
GlyphClass: 2
Flags: W
LayerCount: 2
Fore
SplineSet
87 0 m 1,0,-1
 87 656 l 1,1,-1
 171 656 l 1,2,-1
 171 381 l 1,3,-1
 476 381 l 1,4,-1
 476 656 l 1,5,-1
 559 656 l 1,6,-1
 559 0 l 1,7,-1
 476 0 l 1,8,-1
 476 309 l 1,9,-1
 171 309 l 1,10,-1
 171 0 l 1,11,-1
 87 0 l 1,0,-1
EndSplineSet
EndChar

StartChar: I
Encoding: 73 73 46
Width: 258
GlyphClass: 2
Flags: W
LayerCount: 2
Fore
SplineSet
87 0 m 1,0,-1
 87 656 l 1,1,-1
 171 656 l 1,2,-1
 171 0 l 1,3,-1
 87 0 l 1,0,-1
EndSplineSet
EndChar

StartChar: J
Encoding: 74 74 47
Width: 474
GlyphClass: 2
Flags: W
LayerCount: 2
Fore
SplineSet
29 93 m 1,0,-1
 88 135 l 1,1,2
 131 61 131 61 202 61 c 0,3,4
 255 61 255 61 281 94 c 128,-1,5
 307 127 307 127 307 201 c 2,6,-1
 307 656 l 1,7,-1
 390 656 l 1,8,-1
 390 193 l 2,9,10
 390 102 390 102 345.5 45 c 128,-1,11
 301 -12 301 -12 209 -12 c 0,12,13
 87 -12 87 -12 29 93 c 1,0,-1
EndSplineSet
EndChar

StartChar: K
Encoding: 75 75 48
Width: 574
GlyphClass: 2
Flags: W
LayerCount: 2
Fore
SplineSet
87 0 m 1,0,-1
 87 656 l 1,1,-1
 171 656 l 1,2,-1
 171 327 l 1,3,-1
 173 327 l 1,4,-1
 446 656 l 1,5,-1
 541 656 l 1,6,-1
 335 406 l 1,7,-1
 572 0 l 1,8,-1
 479 0 l 1,9,-1
 283 341 l 1,10,-1
 171 208 l 1,11,-1
 171 0 l 1,12,-1
 87 0 l 1,0,-1
EndSplineSet
EndChar

StartChar: L
Encoding: 76 76 49
Width: 481
GlyphClass: 2
Flags: W
LayerCount: 2
Fore
SplineSet
87 0 m 1,0,-1
 87 656 l 1,1,-1
 171 656 l 1,2,-1
 171 71 l 1,3,-1
 457 71 l 1,4,-1
 457 0 l 1,5,-1
 87 0 l 1,0,-1
EndSplineSet
EndChar

StartChar: M
Encoding: 77 77 50
Width: 722
GlyphClass: 2
Flags: W
LayerCount: 2
Fore
SplineSet
87 0 m 1,0,-1
 87 656 l 1,1,-1
 186 656 l 1,2,-1
 313 304 l 1,3,-1
 360 170 l 1,4,-1
 364 170 l 1,5,-1
 410 304 l 1,6,-1
 536 656 l 1,7,-1
 634 656 l 1,8,-1
 634 0 l 1,9,-1
 555 0 l 1,10,-1
 555 361 l 2,11,12
 555 396 555 396 566 555 c 1,13,-1
 562 555 l 1,14,-1
 510 409 l 1,15,-1
 384 66 l 1,16,-1
 336 66 l 1,17,-1
 210 409 l 1,18,-1
 158 555 l 1,19,-1
 154 555 l 1,20,21
 164 410 164 410 164 361 c 2,22,-1
 164 0 l 1,23,-1
 87 0 l 1,0,-1
EndSplineSet
EndChar

StartChar: N
Encoding: 78 78 51
Width: 642
GlyphClass: 2
Flags: W
LayerCount: 2
Fore
SplineSet
87 0 m 1,0,-1
 87 656 l 1,1,-1
 173 656 l 1,2,-1
 411 244 l 1,3,-1
 482 108 l 1,4,-1
 486 108 l 1,5,6
 475 290 475 290 475 317 c 2,7,-1
 475 656 l 1,8,-1
 554 656 l 1,9,-1
 554 0 l 1,10,-1
 468 0 l 1,11,-1
 231 413 l 1,12,-1
 160 548 l 1,13,-1
 156 548 l 1,14,15
 166 383 166 383 166 343 c 2,16,-1
 166 0 l 1,17,-1
 87 0 l 1,0,-1
EndSplineSet
EndChar

StartChar: O
Encoding: 79 79 52
Width: 659
GlyphClass: 2
Flags: W
LayerCount: 2
Fore
SplineSet
49 331 m 0,0,1
 49 486 49 486 126.5 577 c 128,-1,2
 204 668 204 668 330 668 c 0,3,4
 455 668 455 668 532.5 577 c 128,-1,5
 610 486 610 486 610 331 c 0,6,7
 610 175 610 175 532 81.5 c 128,-1,8
 454 -12 454 -12 330 -12 c 0,9,10
 205 -12 205 -12 127 81 c 128,-1,11
 49 174 49 174 49 331 c 0,0,1
135 331 m 0,12,13
 135 208 135 208 188 134.5 c 128,-1,14
 241 61 241 61 330 61 c 0,15,16
 418 61 418 61 471 134.5 c 128,-1,17
 524 208 524 208 524 331 c 0,18,19
 524 453 524 453 471 524 c 128,-1,20
 418 595 418 595 330 595 c 0,21,22
 241 595 241 595 188 524 c 128,-1,23
 135 453 135 453 135 331 c 0,12,13
EndSplineSet
EndChar

StartChar: P
Encoding: 80 80 53
Width: 571
GlyphClass: 2
Flags: W
LayerCount: 2
Fore
SplineSet
87 0 m 1,0,-1
 87 656 l 1,1,-1
 289 656 l 2,2,3
 531 656 531 656 531 463 c 0,4,5
 531 363 531 363 465.5 311.5 c 128,-1,6
 400 260 400 260 289 260 c 2,7,-1
 171 260 l 1,8,-1
 171 0 l 1,9,-1
 87 0 l 1,0,-1
171 328 m 1,10,-1
 278 328 l 2,11,12
 365 328 365 328 406.5 361 c 128,-1,13
 448 394 448 394 448 463 c 128,-1,14
 448 532 448 532 407 560.5 c 128,-1,15
 366 589 366 589 278 589 c 2,16,-1
 171 589 l 1,17,-1
 171 328 l 1,10,-1
EndSplineSet
EndChar

StartChar: Q
Encoding: 81 81 54
Width: 659
GlyphClass: 2
Flags: W
LayerCount: 2
Fore
SplineSet
48 331 m 0,0,1
 48 486 48 486 125.5 577 c 128,-1,2
 203 668 203 668 328 668 c 128,-1,3
 453 668 453 668 531 577 c 128,-1,4
 609 486 609 486 609 331 c 0,5,6
 609 191 609 191 546 100.5 c 128,-1,7
 483 10 483 10 377 -8 c 1,8,9
 421 -94 421 -94 538 -94 c 0,10,11
 571 -94 571 -94 607 -84 c 1,12,-1
 623 -149 l 1,13,14
 580 -164 580 -164 529 -164 c 0,15,16
 442 -164 442 -164 379.5 -122 c 128,-1,17
 317 -80 317 -80 287 -9 c 1,18,19
 178 6 178 6 113 97 c 128,-1,20
 48 188 48 188 48 331 c 0,0,1
134 331 m 0,21,22
 134 208 134 208 187 134.5 c 128,-1,23
 240 61 240 61 328 61 c 128,-1,24
 416 61 416 61 469 134.5 c 128,-1,25
 522 208 522 208 522 331 c 0,26,27
 522 453 522 453 469 524 c 128,-1,28
 416 595 416 595 328 595 c 128,-1,29
 240 595 240 595 187 524 c 128,-1,30
 134 453 134 453 134 331 c 0,21,22
EndSplineSet
EndChar

StartChar: R
Encoding: 82 82 55
Width: 576
GlyphClass: 2
Flags: W
LayerCount: 2
Fore
SplineSet
87 0 m 1,0,-1
 87 656 l 1,1,-1
 293 656 l 2,2,3
 522 656 522 656 522 472 c 0,4,5
 522 398 522 398 483 351 c 128,-1,6
 444 304 444 304 375 286 c 1,7,-1
 542 0 l 1,8,-1
 447 0 l 1,9,-1
 289 277 l 1,10,-1
 171 277 l 1,11,-1
 171 0 l 1,12,-1
 87 0 l 1,0,-1
171 345 m 1,13,-1
 281 345 l 2,14,15
 439 345 439 345 439 472 c 0,16,17
 439 535 439 535 399.5 562 c 128,-1,18
 360 589 360 589 281 589 c 2,19,-1
 171 589 l 1,20,-1
 171 345 l 1,13,-1
EndSplineSet
EndChar

StartChar: S
Encoding: 83 83 56
Width: 529
GlyphClass: 2
Flags: W
LayerCount: 2
Fore
SplineSet
40 85 m 1,0,-1
 90 143 l 1,1,2
 169 61 169 61 271 61 c 0,3,4
 335 61 335 61 371.5 90 c 128,-1,5
 408 119 408 119 408 168 c 0,6,7
 408 192 408 192 401 209.5 c 128,-1,8
 394 227 394 227 375 241 c 128,-1,9
 356 255 356 255 342.5 262.5 c 128,-1,10
 329 270 329 270 298 284 c 2,11,-1
 204 325 l 2,12,13
 71 382 71 382 71 494 c 0,14,15
 71 569 71 569 130 618.5 c 128,-1,16
 189 668 189 668 278 668 c 0,17,18
 393 668 393 668 471 587 c 1,19,-1
 427 533 l 1,20,21
 362 595 362 595 278 595 c 0,22,23
 222 595 222 595 188.5 569 c 128,-1,24
 155 543 155 543 155 499 c 0,25,26
 155 477 155 477 163.5 459.5 c 128,-1,27
 172 442 172 442 191.5 428.5 c 128,-1,28
 211 415 211 415 224 408.5 c 128,-1,29
 237 402 237 402 264 390 c 2,30,-1
 358 350 l 2,31,32
 423 322 423 322 458 282 c 128,-1,33
 493 242 493 242 493 175 c 0,34,35
 493 95 493 95 431.5 41.5 c 128,-1,36
 370 -12 370 -12 269 -12 c 0,37,38
 134 -12 134 -12 40 85 c 1,0,-1
EndSplineSet
EndChar

StartChar: T
Encoding: 84 84 57
Width: 531
GlyphClass: 2
Flags: W
LayerCount: 2
Fore
SplineSet
25 586 m 1,0,-1
 25 656 l 1,1,-1
 506 656 l 1,2,-1
 506 586 l 1,3,-1
 307 586 l 1,4,-1
 307 0 l 1,5,-1
 224 0 l 1,6,-1
 224 586 l 1,7,-1
 25 586 l 1,0,-1
EndSplineSet
EndChar

StartChar: U
Encoding: 85 85 58
Width: 640
GlyphClass: 2
Flags: W
LayerCount: 2
Fore
SplineSet
84 271 m 2,0,-1
 84 656 l 1,1,-1
 168 656 l 1,2,-1
 168 269 l 2,3,4
 168 61 168 61 320 61 c 0,5,6
 476 61 476 61 476 269 c 2,7,-1
 476 656 l 1,8,-1
 556 656 l 1,9,-1
 556 271 l 2,10,11
 556 122 556 122 492.5 55 c 128,-1,12
 429 -12 429 -12 320 -12 c 128,-1,13
 211 -12 211 -12 147.5 55 c 128,-1,14
 84 122 84 122 84 271 c 2,0,-1
EndSplineSet
EndChar

StartChar: V
Encoding: 86 86 59
Width: 510
GlyphClass: 2
Flags: W
LayerCount: 2
Fore
SplineSet
-2 656 m 1,0,-1
 86 656 l 1,1,-1
 192 302 l 2,2,3
 199 277 199 277 220 203 c 128,-1,4
 241 129 241 129 255 85 c 1,5,-1
 259 85 l 1,6,7
 278 146 278 146 322 302 c 2,8,-1
 427 656 l 1,9,-1
 512 656 l 1,10,-1
 304 0 l 1,11,-1
 207 0 l 1,12,-1
 -2 656 l 1,0,-1
EndSplineSet
EndChar

StartChar: W
Encoding: 87 87 60
Width: 781
GlyphClass: 2
Flags: W
LayerCount: 2
Fore
SplineSet
20 656 m 1,0,-1
 106 656 l 1,1,-1
 175 299 l 2,2,3
 182 264 182 264 195 193 c 128,-1,4
 208 122 208 122 214 87 c 1,5,-1
 218 87 l 1,6,7
 233 165 233 165 264 299 c 2,8,-1
 355 656 l 1,9,-1
 431 656 l 1,10,-1
 522 299 l 2,11,12
 543 202 543 202 569 87 c 1,13,-1
 573 87 l 1,14,15
 583 143 583 143 610 299 c 2,16,-1
 679 656 l 1,17,-1
 760 656 l 1,18,-1
 624 0 l 1,19,-1
 523 0 l 1,20,-1
 424 395 l 2,21,22
 398 515 398 515 393 544 c 1,23,-1
 389 544 l 1,24,25
 384 518 384 518 373 469 c 128,-1,26
 362 420 362 420 356 395 c 2,27,-1
 258 0 l 1,28,-1
 159 0 l 1,29,-1
 20 656 l 1,0,-1
EndSplineSet
EndChar

StartChar: X
Encoding: 88 88 61
Width: 508
GlyphClass: 2
Flags: W
LayerCount: 2
Fore
SplineSet
13 0 m 1,0,-1
 204 339 l 1,1,-1
 25 656 l 1,2,-1
 117 656 l 1,3,-1
 207 488 l 2,4,5
 248 410 248 410 258 393 c 1,6,-1
 262 393 l 1,7,8
 299 471 299 471 308 488 c 2,9,-1
 395 656 l 1,10,-1
 483 656 l 1,11,-1
 305 335 l 1,12,-1
 496 0 l 1,13,-1
 404 0 l 1,14,-1
 307 177 l 2,15,16
 302 186 302 186 282.5 222.5 c 128,-1,17
 263 259 263 259 251 282 c 1,18,-1
 247 282 l 1,19,20
 215 215 215 215 195 177 c 2,21,-1
 100 0 l 1,22,-1
 13 0 l 1,0,-1
EndSplineSet
EndChar

StartChar: Y
Encoding: 89 89 62
Width: 471
GlyphClass: 2
Flags: W
LayerCount: 2
Fore
SplineSet
-4 656 m 1,0,-1
 86 656 l 1,1,-1
 170 471 l 2,2,3
 213 373 213 373 234 328 c 1,4,-1
 238 328 l 1,5,6
 244 341 244 341 267.5 392 c 128,-1,7
 291 443 291 443 303 471 c 2,8,-1
 388 656 l 1,9,-1
 474 656 l 1,10,-1
 277 254 l 1,11,-1
 277 0 l 1,12,-1
 194 0 l 1,13,-1
 194 254 l 1,14,-1
 -4 656 l 1,0,-1
EndSplineSet
EndChar

StartChar: Z
Encoding: 90 90 63
Width: 534
GlyphClass: 2
Flags: W
LayerCount: 2
Fore
SplineSet
42 0 m 1,0,-1
 42 50 l 1,1,-1
 388 586 l 1,2,-1
 73 586 l 1,3,-1
 73 656 l 1,4,-1
 491 656 l 1,5,-1
 491 607 l 1,6,-1
 145 71 l 1,7,-1
 494 71 l 1,8,-1
 494 0 l 1,9,-1
 42 0 l 1,0,-1
EndSplineSet
EndChar

StartChar: bracketleft
Encoding: 91 91 64
Width: 303
GlyphClass: 2
Flags: W
LayerCount: 2
Fore
SplineSet
94 -152 m 1,0,-1
 94 708 l 1,1,-1
 273 708 l 1,2,-1
 273 660 l 1,3,-1
 156 660 l 1,4,-1
 156 -105 l 1,5,-1
 273 -105 l 1,6,-1
 273 -152 l 1,7,-1
 94 -152 l 1,0,-1
EndSplineSet
EndChar

StartChar: backslash
Encoding: 92 92 65
Width: 350
GlyphClass: 2
Flags: W
LayerCount: 2
Fore
SplineSet
14 710 m 1,0,-1
 73 710 l 1,1,-1
 340 -160 l 1,2,-1
 280 -160 l 1,3,-1
 14 710 l 1,0,-1
EndSplineSet
EndChar

StartChar: bracketright
Encoding: 93 93 66
Width: 303
GlyphClass: 2
Flags: W
LayerCount: 2
Fore
SplineSet
31 -105 m 1,0,-1
 147 -105 l 1,1,-1
 147 660 l 1,2,-1
 31 660 l 1,3,-1
 31 708 l 1,4,-1
 209 708 l 1,5,-1
 209 -152 l 1,6,-1
 31 -152 l 1,7,-1
 31 -105 l 1,0,-1
EndSplineSet
EndChar

StartChar: asciicircum
Encoding: 94 94 67
Width: 497
GlyphClass: 2
Flags: W
LayerCount: 2
Fore
SplineSet
60 284 m 1,0,-1
 212 670 l 1,1,-1
 285 670 l 1,2,-1
 437 284 l 1,3,-1
 365 284 l 1,4,-1
 300 460 l 1,5,-1
 251 593 l 1,6,-1
 247 593 l 1,7,-1
 197 460 l 1,8,-1
 132 284 l 1,9,-1
 60 284 l 1,0,-1
EndSplineSet
EndChar

StartChar: underscore
Encoding: 95 95 68
Width: 500
GlyphClass: 2
Flags: W
LayerCount: 2
Fore
SplineSet
12 -71 m 1,0,-1
 488 -71 l 1,1,-1
 488 -126 l 1,2,-1
 12 -126 l 1,3,-1
 12 -71 l 1,0,-1
EndSplineSet
EndChar

StartChar: grave
Encoding: 96 96 69
Width: 542
GlyphClass: 2
Flags: W
LayerCount: 2
Fore
SplineSet
160 714 m 1,0,-1
 246 714 l 1,1,-1
 336 573 l 1,2,-1
 273 573 l 1,3,-1
 160 714 l 1,0,-1
EndSplineSet
EndChar

StartChar: a
Encoding: 97 97 70
Width: 512
GlyphClass: 2
Flags: W
LayerCount: 2
Fore
SplineSet
58 126 m 0,0,1
 58 205 58 205 129.5 248 c 128,-1,2
 201 291 201 291 357 308 c 1,3,4
 357 430 357 430 257 430 c 0,5,6
 188 430 188 430 112 378 c 1,7,-1
 79 435 l 1,8,9
 177 498 177 498 270 498 c 0,10,11
 438 498 438 498 438 298 c 2,12,-1
 438 0 l 1,13,-1
 371 0 l 1,14,-1
 364 58 l 1,15,-1
 362 58 l 1,16,17
 275 -12 275 -12 201 -12 c 0,18,19
 138 -12 138 -12 98 25 c 128,-1,20
 58 62 58 62 58 126 c 0,0,1
139 132 m 0,21,22
 139 93 139 93 162.5 73.5 c 128,-1,23
 186 54 186 54 224 54 c 0,24,25
 284 54 284 54 357 119 c 1,26,-1
 357 254 l 1,27,28
 239 239 239 239 189 209.5 c 128,-1,29
 139 180 139 180 139 132 c 0,21,22
EndSplineSet
EndChar

StartChar: b
Encoding: 98 98 71
Width: 555
GlyphClass: 2
Flags: W
LayerCount: 2
Fore
SplineSet
82 0 m 1,0,-1
 82 712 l 1,1,-1
 164 712 l 1,2,-1
 164 518 l 1,3,-1
 162 430 l 1,4,5
 239 498 239 498 314 498 c 0,6,7
 407 498 407 498 457 432 c 128,-1,8
 507 366 507 366 507 251 c 0,9,10
 507 131 507 131 445.5 59.5 c 128,-1,11
 384 -12 384 -12 297 -12 c 0,12,13
 226 -12 226 -12 158 48 c 1,14,-1
 155 48 l 1,15,-1
 148 0 l 1,16,-1
 82 0 l 1,0,-1
164 108 m 1,17,18
 223 57 223 57 283 57 c 0,19,20
 344 57 344 57 383 109.5 c 128,-1,21
 422 162 422 162 422 250 c 0,22,23
 422 429 422 429 294 429 c 0,24,25
 235 429 235 429 164 363 c 1,26,-1
 164 108 l 1,17,18
EndSplineSet
EndChar

StartChar: c
Encoding: 99 99 72
Width: 456
GlyphClass: 2
Flags: W
LayerCount: 2
Fore
SplineSet
46 242 m 128,-1,1
 46 360 46 360 114 429 c 128,-1,2
 182 498 182 498 280 498 c 0,3,4
 360 498 360 498 422 440 c 1,5,-1
 381 387 l 1,6,7
 331 430 331 430 283 430 c 0,8,9
 217 430 217 430 174 377.5 c 128,-1,10
 131 325 131 325 131 242 c 128,-1,11
 131 159 131 159 172.5 107.5 c 128,-1,12
 214 56 214 56 281 56 c 0,13,14
 340 56 340 56 395 105 c 1,15,-1
 432 51 l 1,16,17
 361 -12 361 -12 274 -12 c 0,18,19
 174 -12 174 -12 110 56 c 128,-1,0
 46 124 46 124 46 242 c 128,-1,1
EndSplineSet
EndChar

StartChar: d
Encoding: 100 100 73
Width: 555
GlyphClass: 2
Flags: W
LayerCount: 2
Fore
SplineSet
47 242 m 0,0,1
 47 357 47 357 109 427.5 c 128,-1,2
 171 498 171 498 258 498 c 0,3,4
 325 498 325 498 394 442 c 1,5,-1
 390 525 l 1,6,-1
 390 712 l 1,7,-1
 473 712 l 1,8,-1
 473 0 l 1,9,-1
 405 0 l 1,10,-1
 398 57 l 1,11,-1
 395 57 l 1,12,13
 324 -12 324 -12 248 -12 c 0,14,15
 155 -12 155 -12 101 55 c 128,-1,16
 47 122 47 122 47 242 c 0,0,1
132 243 m 0,17,18
 132 156 132 156 167.5 106.5 c 128,-1,19
 203 57 203 57 266 57 c 0,20,21
 330 57 330 57 390 124 c 1,22,-1
 390 378 l 1,23,24
 333 429 333 429 272 429 c 0,25,26
 213 429 213 429 172.5 377 c 128,-1,27
 132 325 132 325 132 243 c 0,17,18
EndSplineSet
EndChar

StartChar: e
Encoding: 101 101 74
Width: 499
GlyphClass: 2
Flags: W
LayerCount: 2
Fore
SplineSet
46 242 m 0,0,1
 46 356 46 356 111 427 c 128,-1,2
 176 498 176 498 264 498 c 0,3,4
 356 498 356 498 407 436.5 c 128,-1,5
 458 375 458 375 458 270 c 0,6,7
 458 243 458 243 455 225 c 1,8,-1
 127 225 l 1,9,10
 131 146 131 146 175 100 c 128,-1,11
 219 54 219 54 289 54 c 0,12,13
 351 54 351 54 410 92 c 1,14,-1
 439 38 l 1,15,16
 361 -12 361 -12 279 -12 c 0,17,18
 179 -12 179 -12 112.5 57 c 128,-1,19
 46 126 46 126 46 242 c 0,0,1
126 279 m 1,20,-1
 386 279 l 1,21,22
 386 353 386 353 354.5 393 c 128,-1,23
 323 433 323 433 266 433 c 0,24,25
 213 433 213 433 173 391.5 c 128,-1,26
 133 350 133 350 126 279 c 1,20,-1
EndSplineSet
EndChar

StartChar: f
Encoding: 102 102 75
Width: 292
GlyphClass: 2
Flags: W
LayerCount: 2
Fore
SplineSet
30 419 m 1,0,-1
 30 481 l 1,1,-1
 96 486 l 1,2,-1
 96 563 l 2,3,4
 96 639 96 639 131.5 681.5 c 128,-1,5
 167 724 167 724 238 724 c 0,6,7
 280 724 280 724 319 708 c 1,8,-1
 301 645 l 1,9,10
 274 657 274 657 246 657 c 0,11,12
 178 657 178 657 178 563 c 2,13,-1
 178 486 l 1,14,-1
 281 486 l 1,15,-1
 281 419 l 1,16,-1
 178 419 l 1,17,-1
 178 0 l 1,18,-1
 96 0 l 1,19,-1
 96 419 l 1,20,-1
 30 419 l 1,0,-1
EndSplineSet
EndChar

StartChar: g
Encoding: 103 103 76
Width: 504
GlyphClass: 2
Flags: W
LayerCount: 2
Fore
SplineSet
45 -93 m 128,-1,1
 45 -31 45 -31 116 17 c 1,2,-1
 116 21 l 1,3,4
 73 48 73 48 73 100 c 0,5,6
 73 154 73 154 126 190 c 1,7,-1
 126 194 l 1,8,9
 63 245 63 245 63 325 c 0,10,11
 63 402 63 402 116 450 c 128,-1,12
 169 498 169 498 246 498 c 0,13,14
 284 498 284 498 315 486 c 1,15,-1
 484 486 l 1,16,-1
 484 423 l 1,17,-1
 384 423 l 1,18,19
 424 385 424 385 424 323 c 0,20,21
 424 247 424 247 373 200.5 c 128,-1,22
 322 154 322 154 246 154 c 0,23,24
 207 154 207 154 173 171 c 1,25,26
 142 144 142 144 142 113 c 0,27,28
 142 60 142 60 228 60 c 2,29,-1
 322 60 l 2,30,31
 408 60 408 60 450 32 c 128,-1,32
 492 4 492 4 492 -56 c 0,33,34
 492 -126 492 -126 424 -175 c 128,-1,35
 356 -224 356 -224 246 -224 c 0,36,37
 155 -224 155 -224 100 -189.5 c 128,-1,0
 45 -155 45 -155 45 -93 c 128,-1,1
117 -82 m 0,38,39
 117 -121 117 -121 154.5 -144 c 128,-1,40
 192 -167 192 -167 258 -167 c 0,41,42
 325 -167 325 -167 368.5 -137.5 c 128,-1,43
 412 -108 412 -108 412 -68 c 0,44,45
 412 -35 412 -35 387.5 -21.5 c 128,-1,46
 363 -8 363 -8 314 -8 c 2,47,-1
 230 -8 l 2,48,49
 195 -8 195 -8 167 0 c 1,50,51
 117 -36 117 -36 117 -82 c 0,38,39
143 325 m 128,-1,53
 143 273 143 273 173 241 c 128,-1,54
 203 209 203 209 246 209 c 128,-1,55
 289 209 289 209 319 241 c 128,-1,56
 349 273 349 273 349 325 c 128,-1,57
 349 377 349 377 319.5 407.5 c 128,-1,58
 290 438 290 438 246 438 c 128,-1,59
 202 438 202 438 172.5 407.5 c 128,-1,52
 143 377 143 377 143 325 c 128,-1,53
EndSplineSet
EndChar

StartChar: h
Encoding: 104 104 77
Width: 544
GlyphClass: 2
Flags: W
LayerCount: 2
Fore
SplineSet
82 0 m 1,0,-1
 82 712 l 1,1,-1
 164 712 l 1,2,-1
 164 518 l 1,3,-1
 161 418 l 1,4,5
 245 498 245 498 323 498 c 0,6,7
 471 498 471 498 471 308 c 2,8,-1
 471 0 l 1,9,-1
 389 0 l 1,10,-1
 389 297 l 2,11,12
 389 365 389 365 367 396 c 128,-1,13
 345 427 345 427 297 427 c 0,14,15
 262 427 262 427 233 409.5 c 128,-1,16
 204 392 204 392 164 352 c 1,17,-1
 164 0 l 1,18,-1
 82 0 l 1,0,-1
EndSplineSet
EndChar

StartChar: i
Encoding: 105 105 78
Width: 246
GlyphClass: 2
Flags: W
LayerCount: 2
Fore
SplineSet
67 639 m 0,0,1
 67 663 67 663 83.5 677.5 c 128,-1,2
 100 692 100 692 124 692 c 128,-1,3
 148 692 148 692 164.5 677.5 c 128,-1,4
 181 663 181 663 181 639 c 0,5,6
 181 616 181 616 164.5 601 c 128,-1,7
 148 586 148 586 124 586 c 128,-1,8
 100 586 100 586 83.5 601 c 128,-1,9
 67 616 67 616 67 639 c 0,0,1
82 0 m 1,10,-1
 82 486 l 1,11,-1
 164 486 l 1,12,-1
 164 0 l 1,13,-1
 82 0 l 1,10,-1
EndSplineSet
EndChar

StartChar: j
Encoding: 106 106 79
Width: 247
GlyphClass: 2
Flags: W
LayerCount: 2
Fore
SplineSet
-40 -204 m 1,0,-1
 -23 -142 l 1,1,2
 1 -150 1 -150 23 -150 c 0,3,4
 57 -150 57 -150 70 -126.5 c 128,-1,5
 83 -103 83 -103 83 -55 c 2,6,-1
 83 486 l 1,7,-1
 165 486 l 1,8,-1
 165 -55 l 2,9,10
 165 -217 165 -217 32 -217 c 0,11,12
 -8 -217 -8 -217 -40 -204 c 1,0,-1
68 639 m 0,13,14
 68 663 68 663 84.5 677.5 c 128,-1,15
 101 692 101 692 125 692 c 128,-1,16
 149 692 149 692 165 677.5 c 128,-1,17
 181 663 181 663 181 639 c 0,18,19
 181 616 181 616 165 601 c 128,-1,20
 149 586 149 586 125 586 c 128,-1,21
 101 586 101 586 84.5 601 c 128,-1,22
 68 616 68 616 68 639 c 0,13,14
EndSplineSet
EndChar

StartChar: k
Encoding: 107 107 80
Width: 495
GlyphClass: 2
Flags: W
LayerCount: 2
Fore
SplineSet
82 0 m 1,0,-1
 82 712 l 1,1,-1
 163 712 l 1,2,-1
 163 230 l 1,3,-1
 166 230 l 1,4,-1
 373 486 l 1,5,-1
 464 486 l 1,6,-1
 301 291 l 1,7,-1
 486 0 l 1,8,-1
 396 0 l 1,9,-1
 254 234 l 1,10,-1
 163 128 l 1,11,-1
 163 0 l 1,12,-1
 82 0 l 1,0,-1
EndSplineSet
EndChar

StartChar: l
Encoding: 108 108 81
Width: 255
GlyphClass: 2
Flags: W
LayerCount: 2
Fore
SplineSet
82 98 m 2,0,-1
 82 712 l 1,1,-1
 164 712 l 1,2,-1
 164 92 l 2,3,4
 164 56 164 56 187 56 c 0,5,6
 196 56 196 56 205 58 c 1,7,-1
 216 -4 l 1,8,9
 198 -12 198 -12 169 -12 c 0,10,11
 82 -12 82 -12 82 98 c 2,0,-1
EndSplineSet
EndChar

StartChar: m
Encoding: 109 109 82
Width: 829
GlyphClass: 2
Flags: W
LayerCount: 2
Fore
SplineSet
82 0 m 1,0,-1
 82 486 l 1,1,-1
 150 486 l 1,2,-1
 157 416 l 1,3,-1
 160 416 l 1,4,5
 235 498 235 498 311 498 c 0,6,7
 413 498 413 498 445 405 c 1,8,9
 531 498 531 498 605 498 c 0,10,11
 753 498 753 498 753 308 c 2,12,-1
 753 0 l 1,13,-1
 671 0 l 1,14,-1
 671 297 l 2,15,16
 671 365 671 365 649 396 c 128,-1,17
 627 427 627 427 581 427 c 0,18,19
 526 427 526 427 459 352 c 1,20,-1
 459 0 l 1,21,-1
 377 0 l 1,22,-1
 377 297 l 2,23,24
 377 365 377 365 355 396 c 128,-1,25
 333 427 333 427 286 427 c 0,26,27
 232 427 232 427 164 352 c 1,28,-1
 164 0 l 1,29,-1
 82 0 l 1,0,-1
EndSplineSet
EndChar

StartChar: n
Encoding: 110 110 83
Width: 547
GlyphClass: 2
Flags: W
LayerCount: 2
Fore
SplineSet
82 0 m 1,0,-1
 82 486 l 1,1,-1
 150 486 l 1,2,-1
 157 416 l 1,3,-1
 160 416 l 1,4,5
 242 498 242 498 323 498 c 0,6,7
 471 498 471 498 471 308 c 2,8,-1
 471 0 l 1,9,-1
 389 0 l 1,10,-1
 389 297 l 2,11,12
 389 365 389 365 367 396 c 128,-1,13
 345 427 345 427 297 427 c 0,14,15
 262 427 262 427 233 409.5 c 128,-1,16
 204 392 204 392 164 352 c 1,17,-1
 164 0 l 1,18,-1
 82 0 l 1,0,-1
EndSplineSet
EndChar

StartChar: o
Encoding: 111 111 84
Width: 542
GlyphClass: 2
Flags: W
LayerCount: 2
Fore
SplineSet
46 242 m 0,0,1
 46 360 46 360 111.5 429 c 128,-1,2
 177 498 177 498 271 498 c 128,-1,3
 365 498 365 498 430.5 429 c 128,-1,4
 496 360 496 360 496 242 c 0,5,6
 496 126 496 126 430.5 57 c 128,-1,7
 365 -12 365 -12 271 -12 c 128,-1,8
 177 -12 177 -12 111.5 57 c 128,-1,9
 46 126 46 126 46 242 c 0,0,1
131 242 m 0,10,11
 131 159 131 159 170 107.5 c 128,-1,12
 209 56 209 56 271 56 c 0,13,14
 334 56 334 56 372.5 107.5 c 128,-1,15
 411 159 411 159 411 242 c 0,16,17
 411 326 411 326 372.5 378 c 128,-1,18
 334 430 334 430 271 430 c 0,19,20
 209 430 209 430 170 378 c 128,-1,21
 131 326 131 326 131 242 c 0,10,11
EndSplineSet
EndChar

StartChar: p
Encoding: 112 112 85
Width: 555
GlyphClass: 2
Flags: W
LayerCount: 2
Fore
SplineSet
82 -205 m 1,0,-1
 82 486 l 1,1,-1
 150 486 l 1,2,-1
 157 430 l 1,3,-1
 160 430 l 1,4,5
 241 498 241 498 315 498 c 0,6,7
 407 498 407 498 457 431.5 c 128,-1,8
 507 365 507 365 507 250 c 0,9,10
 507 131 507 131 445.5 59.5 c 128,-1,11
 384 -12 384 -12 297 -12 c 0,12,13
 234 -12 234 -12 162 44 c 1,14,-1
 164 -41 l 1,15,-1
 164 -205 l 1,16,-1
 82 -205 l 1,0,-1
164 108 m 1,17,18
 225 57 225 57 283 57 c 0,19,20
 344 57 344 57 383 109.5 c 128,-1,21
 422 162 422 162 422 250 c 0,22,23
 422 429 422 429 294 429 c 0,24,25
 238 429 238 429 164 363 c 1,26,-1
 164 108 l 1,17,18
EndSplineSet
EndChar

StartChar: q
Encoding: 113 113 86
Width: 550
GlyphClass: 2
Flags: W
LayerCount: 2
Fore
SplineSet
47 242 m 0,0,1
 47 357 47 357 109 427.5 c 128,-1,2
 171 498 171 498 258 498 c 0,3,4
 330 498 330 498 397 440 c 1,5,-1
 399 440 l 1,6,-1
 407 486 l 1,7,-1
 473 486 l 1,8,-1
 473 -205 l 1,9,-1
 390 -205 l 1,10,-1
 390 -32 l 1,11,-1
 394 54 l 1,12,13
 322 -12 322 -12 248 -12 c 0,14,15
 155 -12 155 -12 101 55 c 128,-1,16
 47 122 47 122 47 242 c 0,0,1
132 243 m 0,17,18
 132 156 132 156 167.5 106.5 c 128,-1,19
 203 57 203 57 266 57 c 0,20,21
 330 57 330 57 390 124 c 1,22,-1
 390 378 l 1,23,24
 333 429 333 429 272 429 c 0,25,26
 213 429 213 429 172.5 377 c 128,-1,27
 132 325 132 325 132 243 c 0,17,18
EndSplineSet
EndChar

StartChar: r
Encoding: 114 114 87
Width: 347
GlyphClass: 2
Flags: W
LayerCount: 2
Fore
SplineSet
82 0 m 1,0,-1
 82 486 l 1,1,-1
 150 486 l 1,2,-1
 157 398 l 1,3,-1
 160 398 l 1,4,5
 185 445 185 445 221 471.5 c 128,-1,6
 257 498 257 498 298 498 c 0,7,8
 327 498 327 498 350 488 c 1,9,-1
 334 416 l 1,10,11
 308 424 308 424 287 424 c 0,12,13
 253 424 253 424 220 397 c 128,-1,14
 187 370 187 370 164 312 c 1,15,-1
 164 0 l 1,16,-1
 82 0 l 1,0,-1
EndSplineSet
EndChar

StartChar: s
Encoding: 115 115 88
Width: 419
GlyphClass: 2
Flags: W
LayerCount: 2
Fore
SplineSet
28 55 m 1,0,-1
 69 110 l 1,1,2
 141 52 141 52 212 52 c 0,3,4
 258 52 258 52 283 73.5 c 128,-1,5
 308 95 308 95 308 128 c 0,6,7
 308 146 308 146 299 160 c 128,-1,8
 290 174 290 174 271 185.5 c 128,-1,9
 252 197 252 197 238 203.5 c 128,-1,10
 224 210 224 210 197 220 c 0,11,12
 165 231 165 231 144 241 c 128,-1,13
 123 251 123 251 99.5 268 c 128,-1,14
 76 285 76 285 64 308 c 128,-1,15
 52 331 52 331 52 360 c 0,16,17
 52 420 52 420 97 459 c 128,-1,18
 142 498 142 498 219 498 c 0,19,20
 302 498 302 498 370 443 c 1,21,-1
 331 391 l 1,22,23
 274 434 274 434 220 434 c 0,24,25
 177 434 177 434 154 414 c 128,-1,26
 131 394 131 394 131 364 c 0,27,28
 131 344 131 344 148 327.5 c 128,-1,29
 165 311 165 311 179.5 304 c 128,-1,30
 194 297 194 297 232 283 c 0,31,32
 237 281 237 281 239 280 c 0,33,34
 267 269 267 269 282 263 c 128,-1,35
 297 257 297 257 320.5 243.5 c 128,-1,36
 344 230 344 230 356 216.5 c 128,-1,37
 368 203 368 203 377.5 181.5 c 128,-1,38
 387 160 387 160 387 133 c 0,39,40
 387 71 387 71 339.5 29.5 c 128,-1,41
 292 -12 292 -12 209 -12 c 0,42,43
 109 -12 109 -12 28 55 c 1,0,-1
EndSplineSet
EndChar

StartChar: t
Encoding: 116 116 89
Width: 338
GlyphClass: 2
Flags: W
LayerCount: 2
Fore
SplineSet
24 419 m 1,0,-1
 24 481 l 1,1,-1
 100 486 l 1,2,-1
 110 622 l 1,3,-1
 179 622 l 1,4,-1
 179 486 l 1,5,-1
 310 486 l 1,6,-1
 310 419 l 1,7,-1
 179 419 l 1,8,-1
 179 149 l 2,9,10
 179 102 179 102 196 78.5 c 128,-1,11
 213 55 213 55 254 55 c 0,12,13
 274 55 274 55 309 68 c 1,14,-1
 325 6 l 1,15,16
 271 -12 271 -12 235 -12 c 0,17,18
 96 -12 96 -12 96 150 c 2,19,-1
 96 419 l 1,20,-1
 24 419 l 1,0,-1
EndSplineSet
EndChar

StartChar: u
Encoding: 117 117 90
Width: 549
GlyphClass: 2
Flags: W
LayerCount: 2
Fore
SplineSet
80 178 m 2,0,-1
 80 486 l 1,1,-1
 163 486 l 1,2,-1
 163 189 l 2,3,4
 163 121 163 121 184.5 90 c 128,-1,5
 206 59 206 59 254 59 c 0,6,7
 290 59 290 59 319 78 c 128,-1,8
 348 97 348 97 384 141 c 1,9,-1
 384 486 l 1,10,-1
 467 486 l 1,11,-1
 467 0 l 1,12,-1
 399 0 l 1,13,-1
 392 76 l 1,14,-1
 389 76 l 1,15,16
 314 -12 314 -12 229 -12 c 0,17,18
 80 -12 80 -12 80 178 c 2,0,-1
EndSplineSet
EndChar

StartChar: v
Encoding: 118 118 91
Width: 467
GlyphClass: 2
Flags: W
LayerCount: 2
Fore
SplineSet
12 486 m 1,0,-1
 97 486 l 1,1,-1
 189 210 l 2,2,3
 203 163 203 163 234 67 c 1,4,-1
 238 67 l 1,5,6
 242 80 242 80 258 131 c 128,-1,7
 274 182 274 182 282 210 c 2,8,-1
 374 486 l 1,9,-1
 455 486 l 1,10,-1
 283 0 l 1,11,-1
 187 0 l 1,12,-1
 12 486 l 1,0,-1
EndSplineSet
EndChar

StartChar: w
Encoding: 119 119 92
Width: 718
GlyphClass: 2
Flags: W
LayerCount: 2
Fore
SplineSet
24 486 m 1,0,-1
 108 486 l 1,1,-1
 180 205 l 2,2,3
 192 154 192 154 209 70 c 1,4,-1
 213 70 l 1,5,6
 217 85 217 85 223.5 112.5 c 128,-1,7
 230 140 230 140 235.5 162.5 c 128,-1,8
 241 185 241 185 246 205 c 2,9,-1
 321 486 l 1,10,-1
 401 486 l 1,11,-1
 477 205 l 2,12,13
 493 144 493 144 511 70 c 1,14,-1
 515 70 l 1,15,16
 521 94 521 94 545 205 c 2,17,-1
 616 486 l 1,18,-1
 694 486 l 1,19,-1
 564 0 l 1,20,-1
 464 0 l 1,21,-1
 394 261 l 2,22,23
 387 287 387 287 376.5 334 c 128,-1,24
 366 381 366 381 361 401 c 1,25,-1
 357 401 l 1,26,27
 334 300 334 300 323 260 c 2,28,-1
 255 0 l 1,29,-1
 159 0 l 1,30,-1
 24 486 l 1,0,-1
EndSplineSet
EndChar

StartChar: x
Encoding: 120 120 93
Width: 446
GlyphClass: 2
Flags: W
LayerCount: 2
Fore
SplineSet
14 0 m 1,0,-1
 173 254 l 1,1,-1
 26 486 l 1,2,-1
 115 486 l 1,3,-1
 180 379 l 2,4,5
 213 322 213 322 228 298 c 1,6,-1
 232 298 l 1,7,8
 256 345 256 345 276 379 c 2,9,-1
 335 486 l 1,10,-1
 421 486 l 1,11,-1
 274 245 l 1,12,-1
 432 0 l 1,13,-1
 343 0 l 1,14,-1
 272 113 l 2,15,16
 242 165 242 165 219 200 c 1,17,-1
 215 200 l 1,18,19
 194 165 194 165 166 113 c 2,20,-1
 100 0 l 1,21,-1
 14 0 l 1,0,-1
EndSplineSet
EndChar

StartChar: y
Encoding: 121 121 94
Width: 467
GlyphClass: 2
Flags: W
LayerCount: 2
Fore
SplineSet
12 486 m 1,0,-1
 97 486 l 1,1,-1
 196 217 l 2,2,3
 216 161 216 161 243 80 c 1,4,-1
 247 80 l 1,5,6
 255 106 255 106 270 156 c 128,-1,7
 285 206 285 206 288 217 c 2,8,-1
 375 486 l 1,9,-1
 455 486 l 1,10,-1
 272 -40 l 2,11,12
 244 -120 244 -120 201.5 -164.5 c 128,-1,13
 159 -209 159 -209 90 -209 c 0,14,15
 60 -209 60 -209 33 -199 c 1,16,-1
 49 -134 l 1,17,18
 72 -141 72 -141 86 -141 c 0,19,20
 161 -141 161 -141 196 -37 c 2,21,-1
 207 -1 l 1,22,-1
 12 486 l 1,0,-1
EndSplineSet
EndChar

StartChar: z
Encoding: 122 122 95
Width: 425
GlyphClass: 2
Flags: W
LayerCount: 2
Fore
SplineSet
31 0 m 1,0,-1
 31 44 l 1,1,-1
 287 419 l 1,2,-1
 59 419 l 1,3,-1
 59 486 l 1,4,-1
 391 486 l 1,5,-1
 391 442 l 1,6,-1
 135 67 l 1,7,-1
 399 67 l 1,8,-1
 399 0 l 1,9,-1
 31 0 l 1,0,-1
EndSplineSet
EndChar

StartChar: braceleft
Encoding: 123 123 96
Width: 303
GlyphClass: 2
Flags: W
LayerCount: 2
Fore
SplineSet
34 252 m 1,0,-1
 34 304 l 1,1,2
 120 305 120 305 120 381 c 0,3,4
 120 412 120 412 115.5 476 c 128,-1,5
 111 540 111 540 111 575 c 0,6,7
 111 649 111 649 138.5 678.5 c 128,-1,8
 166 708 166 708 227 708 c 2,9,-1
 273 708 l 1,10,-1
 273 660 l 1,11,-1
 245 660 l 2,12,13
 206 660 206 660 192 640 c 128,-1,14
 178 620 178 620 178 570 c 0,15,16
 178 541 178 541 181 480.5 c 128,-1,17
 184 420 184 420 184 389 c 0,18,19
 184 340 184 340 170 314.5 c 128,-1,20
 156 289 156 289 124 280 c 1,21,-1
 124 276 l 1,22,23
 156 267 156 267 170 241 c 128,-1,24
 184 215 184 215 184 167 c 0,25,26
 184 132 184 132 181 74 c 128,-1,27
 178 16 178 16 178 -14 c 0,28,29
 178 -64 178 -64 192 -84.5 c 128,-1,30
 206 -105 206 -105 245 -105 c 2,31,-1
 273 -105 l 1,32,-1
 273 -152 l 1,33,-1
 227 -152 l 2,34,35
 166 -152 166 -152 138.5 -123 c 128,-1,36
 111 -94 111 -94 111 -19 c 0,37,38
 111 18 111 18 115.5 79.5 c 128,-1,39
 120 141 120 141 120 174 c 0,40,41
 120 251 120 251 34 252 c 1,0,-1
EndSplineSet
EndChar

StartChar: bar
Encoding: 124 124 97
Width: 241
GlyphClass: 2
Flags: W
LayerCount: 2
Fore
SplineSet
92 -250 m 1,0,-1
 92 750 l 1,1,-1
 150 750 l 1,2,-1
 150 -250 l 1,3,-1
 92 -250 l 1,0,-1
EndSplineSet
EndChar

StartChar: braceright
Encoding: 125 125 98
Width: 303
GlyphClass: 2
Flags: W
LayerCount: 2
Fore
SplineSet
31 -105 m 1,0,-1
 57 -105 l 2,1,2
 96 -105 96 -105 110.5 -84.5 c 128,-1,3
 125 -64 125 -64 125 -14 c 0,4,5
 125 16 125 16 122.5 74 c 128,-1,6
 120 132 120 132 120 167 c 0,7,8
 120 216 120 216 133.5 241.5 c 128,-1,9
 147 267 147 267 179 276 c 1,10,-1
 179 280 l 1,11,12
 147 289 147 289 133.5 314.5 c 128,-1,13
 120 340 120 340 120 389 c 0,14,15
 120 420 120 420 122.5 480.5 c 128,-1,16
 125 541 125 541 125 570 c 0,17,18
 125 620 125 620 111 640 c 128,-1,19
 97 660 97 660 57 660 c 2,20,-1
 31 660 l 1,21,-1
 31 708 l 1,22,-1
 75 708 l 2,23,24
 137 708 137 708 164.5 678.5 c 128,-1,25
 192 649 192 649 192 575 c 0,26,27
 192 540 192 540 187.5 476 c 128,-1,28
 183 412 183 412 183 381 c 0,29,30
 183 348 183 348 203 326.5 c 128,-1,31
 223 305 223 305 269 304 c 1,32,-1
 269 252 l 1,33,34
 183 251 183 251 183 174 c 0,35,36
 183 141 183 141 187.5 79.5 c 128,-1,37
 192 18 192 18 192 -19 c 0,38,39
 192 -94 192 -94 164.5 -123 c 128,-1,40
 137 -152 137 -152 75 -152 c 2,41,-1
 31 -152 l 1,42,-1
 31 -105 l 1,0,-1
EndSplineSet
EndChar

StartChar: asciitilde
Encoding: 126 126 99
Width: 497
GlyphClass: 2
Flags: W
LayerCount: 2
Fore
SplineSet
36 313 m 1,0,1
 87 403 87 403 161 403 c 0,2,3
 195 403 195 403 227 382 c 128,-1,4
 259 361 259 361 287 340 c 128,-1,5
 315 319 315 319 338 319 c 0,6,7
 382 319 382 319 415 380 c 1,8,-1
 461 346 l 1,9,10
 410 257 410 257 336 257 c 0,11,12
 302 257 302 257 270 278 c 128,-1,13
 238 299 238 299 210 320 c 128,-1,14
 182 341 182 341 159 341 c 0,15,16
 115 341 115 341 82 280 c 1,17,-1
 36 313 l 1,0,1
EndSplineSet
EndChar

StartChar: exclamdown
Encoding: 161 161 101
Width: 289
GlyphClass: 2
Flags: W
LayerCount: 2
Fore
SplineSet
85 436 m 0,0,1
 85 463 85 463 102.5 480.5 c 128,-1,2
 120 498 120 498 145 498 c 0,3,4
 169 498 169 498 186.5 480.5 c 128,-1,5
 204 463 204 463 204 436 c 0,6,7
 204 408 204 408 187 390 c 128,-1,8
 170 372 170 372 145 372 c 128,-1,9
 120 372 120 372 102.5 390 c 128,-1,10
 85 408 85 408 85 436 c 0,0,1
103 -184 m 1,11,-1
 105 -90 l 1,12,-1
 116 288 l 1,13,-1
 173 288 l 1,14,-1
 184 -90 l 1,15,-1
 186 -184 l 1,16,-1
 103 -184 l 1,11,-1
EndSplineSet
EndChar

StartChar: cent
Encoding: 162 162 102
Width: 497
GlyphClass: 2
Flags: W
LayerCount: 2
Fore
SplineSet
61 310 m 0,0,1
 61 410 61 410 117.5 472 c 128,-1,2
 174 534 174 534 262 547 c 1,3,-1
 262 653 l 1,4,-1
 314 653 l 1,5,-1
 314 550 l 1,6,7
 387 546 387 546 445 492 c 1,8,-1
 405 440 l 1,9,10
 361 479 361 479 314 482 c 1,11,-1
 314 138 l 1,12,13
 370 142 370 142 418 185 c 1,14,-1
 454 133 l 1,15,16
 390 76 390 76 314 70 c 1,17,-1
 314 -33 l 1,18,-1
 262 -33 l 1,19,-1
 262 71 l 1,20,21
 170 82 170 82 115.5 144.5 c 128,-1,22
 61 207 61 207 61 310 c 0,0,1
143 310 m 0,23,24
 143 243 143 243 174.5 199 c 128,-1,25
 206 155 206 155 262 142 c 1,26,-1
 262 477 l 1,27,28
 207 464 207 464 175 420 c 128,-1,29
 143 376 143 376 143 310 c 0,23,24
EndSplineSet
EndChar

StartChar: sterling
Encoding: 163 163 103
Width: 497
GlyphClass: 2
Flags: W
LayerCount: 2
Fore
SplineSet
53 285 m 1,0,-1
 53 337 l 1,1,-1
 120 341 l 1,2,-1
 138 341 l 1,3,4
 111 428 111 428 111 466 c 0,5,6
 111 550 111 550 162 600 c 128,-1,7
 213 650 213 650 297 650 c 0,8,9
 391 650 391 650 452 575 c 1,10,-1
 404 528 l 1,11,12
 361 581 361 581 303 581 c 0,13,14
 250 581 250 581 221 549 c 128,-1,15
 192 517 192 517 192 464 c 0,16,17
 192 425 192 425 216 341 c 1,18,-1
 375 341 l 1,19,-1
 375 285 l 1,20,-1
 229 285 l 1,21,22
 234 255 234 255 234 229 c 0,23,24
 234 139 234 139 172 75 c 1,25,-1
 172 71 l 1,26,-1
 453 71 l 1,27,-1
 453 0 l 1,28,-1
 54 0 l 1,29,-1
 54 50 l 1,30,31
 104 77 104 77 132 125 c 128,-1,32
 160 173 160 173 160 230 c 0,33,34
 160 254 160 254 153 285 c 1,35,-1
 53 285 l 1,0,-1
EndSplineSet
EndChar

StartChar: currency
Encoding: 164 164 104
Width: 497
GlyphClass: 2
Flags: W
LayerCount: 2
Fore
SplineSet
26 148 m 1,0,-1
 90 213 l 1,1,2
 54 262 54 262 54 329 c 0,3,4
 54 397 54 397 90 446 c 1,5,-1
 26 512 l 1,6,-1
 70 557 l 1,7,-1
 138 487 l 1,8,9
 186 524 186 524 249 524 c 0,10,11
 311 524 311 524 359 487 c 1,12,-1
 427 557 l 1,13,-1
 471 512 l 1,14,-1
 406 446 l 1,15,16
 443 396 443 396 443 329 c 0,17,18
 443 263 443 263 406 213 c 1,19,-1
 471 148 l 1,20,-1
 427 103 l 1,21,-1
 359 172 l 1,22,23
 312 134 312 134 249 134 c 0,24,25
 185 134 185 134 138 172 c 1,26,-1
 70 103 l 1,27,-1
 26 148 l 1,0,-1
130 329 m 128,-1,29
 130 270 130 270 164.5 232.5 c 128,-1,30
 199 195 199 195 249 195 c 0,31,32
 298 195 298 195 332.5 232.5 c 128,-1,33
 367 270 367 270 367 329 c 128,-1,34
 367 388 367 388 332.5 425.5 c 128,-1,35
 298 463 298 463 249 463 c 0,36,37
 199 463 199 463 164.5 425.5 c 128,-1,28
 130 388 130 388 130 329 c 128,-1,29
EndSplineSet
EndChar

StartChar: yen
Encoding: 165 165 105
Width: 497
GlyphClass: 2
Flags: W
LayerCount: 2
Fore
SplineSet
23 638 m 1,0,-1
 109 638 l 1,1,-1
 187 467 l 2,2,3
 198 442 198 442 219 395 c 128,-1,4
 240 348 240 348 247 332 c 1,5,-1
 251 332 l 1,6,7
 264 359 264 359 285.5 407.5 c 128,-1,8
 307 456 307 456 312 467 c 2,9,-1
 390 638 l 1,10,-1
 474 638 l 1,11,-1
 310 318 l 1,12,-1
 452 318 l 1,13,-1
 452 271 l 1,14,-1
 289 271 l 1,15,-1
 289 206 l 1,16,-1
 452 206 l 1,17,-1
 452 158 l 1,18,-1
 289 158 l 1,19,-1
 289 0 l 1,20,-1
 207 0 l 1,21,-1
 207 158 l 1,22,-1
 45 158 l 1,23,-1
 45 206 l 1,24,-1
 207 206 l 1,25,-1
 207 271 l 1,26,-1
 45 271 l 1,27,-1
 45 318 l 1,28,-1
 186 318 l 1,29,-1
 23 638 l 1,0,-1
EndSplineSet
EndChar

StartChar: brokenbar
Encoding: 166 166 106
Width: 241
GlyphClass: 2
Flags: W
LayerCount: 2
Fore
SplineSet
92 214 m 1,0,-1
 150 214 l 1,1,-1
 150 -250 l 1,2,-1
 92 -250 l 1,3,-1
 92 214 l 1,0,-1
92 291 m 1,4,-1
 92 750 l 1,5,-1
 150 750 l 1,6,-1
 150 291 l 1,7,-1
 92 291 l 1,4,-1
EndSplineSet
EndChar

StartChar: section
Encoding: 167 167 107
Width: 497
GlyphClass: 2
Flags: W
LayerCount: 2
Fore
SplineSet
45 343 m 0,0,1
 45 424 45 424 131 472 c 1,2,3
 99 506 99 506 99 554 c 0,4,5
 99 609 99 609 139 646.5 c 128,-1,6
 179 684 179 684 251 684 c 0,7,8
 335 684 335 684 405 627 c 1,9,-1
 365 574 l 1,10,11
 308 620 308 620 254 620 c 0,12,13
 214 620 214 620 194.5 602.5 c 128,-1,14
 175 585 175 585 175 557 c 0,15,16
 175 532 175 532 195.5 512 c 128,-1,17
 216 492 216 492 247 479 c 128,-1,18
 278 466 278 466 313.5 448.5 c 128,-1,19
 349 431 349 431 380 412.5 c 128,-1,20
 411 394 411 394 431.5 360.5 c 128,-1,21
 452 327 452 327 452 284 c 0,22,23
 452 203 452 203 367 155 c 1,24,25
 397 120 397 120 397 73 c 0,26,27
 397 14 397 14 351.5 -25 c 128,-1,28
 306 -64 306 -64 236 -64 c 0,29,30
 129 -64 129 -64 63 7 c 1,31,-1
 113 52 l 1,32,33
 167 0 167 0 236 0 c 0,34,35
 275 0 275 0 298 20 c 128,-1,36
 321 40 321 40 321 69 c 0,37,38
 321 100 321 100 292.5 123 c 128,-1,39
 264 146 264 146 223.5 162.5 c 128,-1,40
 183 179 183 179 142.5 199 c 128,-1,41
 102 219 102 219 73.5 255.5 c 128,-1,42
 45 292 45 292 45 343 c 0,0,1
117 348 m 0,43,44
 117 317 117 317 138.5 293 c 128,-1,45
 160 269 160 269 186 256.5 c 128,-1,46
 212 244 212 244 254.5 225 c 128,-1,47
 297 206 297 206 320 193 c 1,48,49
 380 221 380 221 380 278 c 0,50,51
 380 304 380 304 367.5 324 c 128,-1,52
 355 344 355 344 332 359 c 128,-1,53
 309 374 309 374 285.5 384.5 c 128,-1,54
 262 395 262 395 230 409 c 128,-1,55
 198 423 198 423 178 435 c 1,56,57
 117 401 117 401 117 348 c 0,43,44
EndSplineSet
EndChar

StartChar: dieresis
Encoding: 168 168 108
Width: 542
GlyphClass: 2
Flags: W
LayerCount: 2
Fore
SplineSet
136 637 m 128,-1,1
 136 658 136 658 150 672 c 128,-1,2
 164 686 164 686 185 686 c 128,-1,3
 206 686 206 686 220 672 c 128,-1,4
 234 658 234 658 234 637 c 128,-1,5
 234 616 234 616 220 602 c 128,-1,6
 206 588 206 588 185 588 c 128,-1,7
 164 588 164 588 150 602 c 128,-1,0
 136 616 136 616 136 637 c 128,-1,1
309 637 m 128,-1,9
 309 658 309 658 322.5 672 c 128,-1,10
 336 686 336 686 357 686 c 0,11,12
 379 686 379 686 392.5 672 c 128,-1,13
 406 658 406 658 406 637 c 128,-1,14
 406 616 406 616 392.5 602 c 128,-1,15
 379 588 379 588 357 588 c 0,16,17
 336 588 336 588 322.5 602 c 128,-1,8
 309 616 309 616 309 637 c 128,-1,9
EndSplineSet
EndChar

StartChar: copyright
Encoding: 169 169 109
Width: 744
GlyphClass: 2
Flags: W
LayerCount: 2
Fore
SplineSet
49 323 m 0,0,1
 49 471 49 471 143 562 c 128,-1,2
 237 653 237 653 372 653 c 128,-1,3
 507 653 507 653 601 562 c 128,-1,4
 695 471 695 471 695 323 c 0,5,6
 695 174 695 174 601 81.5 c 128,-1,7
 507 -11 507 -11 372 -11 c 128,-1,8
 237 -11 237 -11 143 81.5 c 128,-1,9
 49 174 49 174 49 323 c 0,0,1
96 323 m 0,10,11
 96 194 96 194 176 112.5 c 128,-1,12
 256 31 256 31 372 31 c 128,-1,13
 488 31 488 31 568 112.5 c 128,-1,14
 648 194 648 194 648 323 c 0,15,16
 648 451 648 451 568 531.5 c 128,-1,17
 488 612 488 612 372 612 c 128,-1,18
 256 612 256 612 176 531.5 c 128,-1,19
 96 451 96 451 96 323 c 0,10,11
198 323 m 0,20,21
 198 407 198 407 252.5 459.5 c 128,-1,22
 307 512 307 512 383 512 c 0,23,24
 451 512 451 512 508 455 c 1,25,-1
 473 416 l 1,26,27
 430 457 430 457 386 457 c 0,28,29
 332 457 332 457 298 419.5 c 128,-1,30
 264 382 264 382 264 323 c 0,31,32
 264 257 264 257 296.5 218.5 c 128,-1,33
 329 180 329 180 383 180 c 0,34,35
 434 180 434 180 485 224 c 1,36,-1
 515 182 l 1,37,38
 449 125 449 125 380 125 c 0,39,40
 302 125 302 125 250 178.5 c 128,-1,41
 198 232 198 232 198 323 c 0,20,21
EndSplineSet
EndChar

StartChar: ordfeminine
Encoding: 170 170 110
Width: 345
GlyphClass: 2
Flags: W
LayerCount: 2
Fore
SplineSet
37 346 m 0,0,1
 37 398 37 398 84.5 426.5 c 128,-1,2
 132 455 132 455 236 465 c 1,3,4
 234 539 234 539 174 539 c 0,5,6
 130 539 130 539 73 505 c 1,7,-1
 50 547 l 1,8,9
 118 590 118 590 183 590 c 0,10,11
 298 590 298 590 298 456 c 2,12,-1
 298 260 l 1,13,-1
 248 260 l 1,14,-1
 241 297 l 1,15,-1
 237 297 l 1,16,17
 186 252 186 252 136 252 c 0,18,19
 92 252 92 252 64.5 278 c 128,-1,20
 37 304 37 304 37 346 c 0,0,1
98 351 m 0,21,22
 98 302 98 302 154 302 c 0,23,24
 193 302 193 302 236 342 c 1,25,-1
 236 426 l 1,26,27
 98 411 98 411 98 351 c 0,21,22
EndSplineSet
EndChar

StartChar: guillemotleft
Encoding: 171 171 111
Width: 429
GlyphClass: 2
Flags: W
LayerCount: 2
Fore
SplineSet
45 221 m 1,0,-1
 45 283 l 1,1,-1
 181 438 l 1,2,-1
 217 408 l 1,3,-1
 99 252 l 1,4,-1
 217 94 l 1,5,-1
 181 66 l 1,6,-1
 45 221 l 1,0,-1
203 221 m 1,7,-1
 203 283 l 1,8,-1
 340 438 l 1,9,-1
 375 408 l 1,10,-1
 257 252 l 1,11,-1
 375 94 l 1,12,-1
 340 66 l 1,13,-1
 203 221 l 1,7,-1
EndSplineSet
EndChar

StartChar: logicalnot
Encoding: 172 172 112
Width: 497
GlyphClass: 2
Flags: W
LayerCount: 2
Fore
SplineSet
34 299 m 1,0,-1
 34 361 l 1,1,-1
 463 361 l 1,2,-1
 463 104 l 1,3,-1
 397 104 l 1,4,-1
 397 299 l 1,5,-1
 34 299 l 1,0,-1
EndSplineSet
EndChar

StartChar: uni00AD
Encoding: 173 173 113
Width: 311
GlyphClass: 2
Flags: W
LayerCount: 2
Fore
SplineSet
41 219 m 1,0,-1
 41 282 l 1,1,-1
 271 282 l 1,2,-1
 271 219 l 1,3,-1
 41 219 l 1,0,-1
EndSplineSet
EndChar

StartChar: registered
Encoding: 174 174 114
Width: 423
GlyphClass: 2
Flags: W
LayerCount: 2
Fore
SplineSet
23 516 m 128,-1,1
 23 602 23 602 77.5 657.5 c 128,-1,2
 132 713 132 713 211 713 c 128,-1,3
 290 713 290 713 345 657.5 c 128,-1,4
 400 602 400 602 400 516 c 128,-1,5
 400 430 400 430 345 374.5 c 128,-1,6
 290 319 290 319 211 319 c 128,-1,7
 132 319 132 319 77.5 374.5 c 128,-1,0
 23 430 23 430 23 516 c 128,-1,1
63 516 m 0,8,9
 63 445 63 445 105 400.5 c 128,-1,10
 147 356 147 356 211 356 c 128,-1,11
 275 356 275 356 317.5 401 c 128,-1,12
 360 446 360 446 360 516 c 128,-1,13
 360 586 360 586 317.5 631.5 c 128,-1,14
 275 677 275 677 211 677 c 0,15,16
 148 677 148 677 105.5 631.5 c 128,-1,17
 63 586 63 586 63 516 c 0,8,9
139 417 m 1,18,-1
 139 620 l 1,19,-1
 215 620 l 2,20,21
 293 620 293 620 293 555 c 0,22,23
 293 537 293 537 282.5 521.5 c 128,-1,24
 272 506 272 506 256 500 c 1,25,-1
 302 417 l 1,26,-1
 256 417 l 1,27,-1
 221 487 l 1,28,-1
 180 487 l 1,29,-1
 180 417 l 1,30,-1
 139 417 l 1,18,-1
180 519 m 1,31,-1
 206 519 l 2,32,33
 249 519 249 519 249 553 c 0,34,35
 249 586 249 586 208 586 c 2,36,-1
 180 586 l 1,37,-1
 180 519 l 1,31,-1
EndSplineSet
EndChar

StartChar: macron
Encoding: 175 175 115
Width: 542
GlyphClass: 2
Flags: W
LayerCount: 2
Fore
SplineSet
149 601 m 1,0,-1
 149 658 l 1,1,-1
 394 658 l 1,2,-1
 394 601 l 1,3,-1
 149 601 l 1,0,-1
EndSplineSet
EndChar

StartChar: degree
Encoding: 176 176 116
Width: 331
GlyphClass: 2
Flags: W
LayerCount: 2
Fore
SplineSet
41 556 m 0,0,1
 41 614 41 614 77.5 649.5 c 128,-1,2
 114 685 114 685 166 685 c 128,-1,3
 218 685 218 685 254.5 649.5 c 128,-1,4
 291 614 291 614 291 556 c 0,5,6
 291 500 291 500 254.5 464.5 c 128,-1,7
 218 429 218 429 166 429 c 128,-1,8
 114 429 114 429 77.5 464.5 c 128,-1,9
 41 500 41 500 41 556 c 0,0,1
91 556 m 0,10,11
 91 521 91 521 112 498 c 128,-1,12
 133 475 133 475 166 475 c 128,-1,13
 199 475 199 475 220 498 c 128,-1,14
 241 521 241 521 241 556 c 0,15,16
 241 593 241 593 220 616 c 128,-1,17
 199 639 199 639 166 639 c 128,-1,18
 133 639 133 639 112 616 c 128,-1,19
 91 593 91 593 91 556 c 0,10,11
EndSplineSet
EndChar

StartChar: plusminus
Encoding: 177 177 117
Width: 497
GlyphClass: 2
Flags: W
LayerCount: 2
Fore
SplineSet
34 0 m 1,0,-1
 34 62 l 1,1,-1
 463 62 l 1,2,-1
 463 0 l 1,3,-1
 34 0 l 1,0,-1
34 304 m 1,4,-1
 34 366 l 1,5,-1
 216 366 l 1,6,-1
 216 556 l 1,7,-1
 281 556 l 1,8,-1
 281 366 l 1,9,-1
 463 366 l 1,10,-1
 463 304 l 1,11,-1
 281 304 l 1,12,-1
 281 127 l 1,13,-1
 216 127 l 1,14,-1
 216 304 l 1,15,-1
 34 304 l 1,4,-1
EndSplineSet
EndChar

StartChar: uni00B2
Encoding: 178 178 118
Width: 367
GlyphClass: 2
Flags: W
LayerCount: 2
Fore
SplineSet
40 766 m 1,0,1
 91 842 91 842 170 842 c 0,2,3
 230 842 230 842 265 809 c 128,-1,4
 300 776 300 776 300 716 c 0,5,6
 300 689 300 689 291 664 c 128,-1,7
 282 639 282 639 256.5 607 c 128,-1,8
 231 575 231 575 214.5 557 c 128,-1,9
 198 539 198 539 155 495 c 1,10,-1
 320 495 l 1,11,-1
 320 440 l 1,12,-1
 52 440 l 1,13,-1
 52 477 l 1,14,15
 156 570 156 570 196.5 617.5 c 128,-1,16
 237 665 237 665 237 706 c 0,17,18
 237 744 237 744 217 766 c 128,-1,19
 197 788 197 788 162 788 c 0,20,21
 117 788 117 788 78 731 c 1,22,-1
 40 766 l 1,0,1
EndSplineSet
EndChar

StartChar: uni00B3
Encoding: 179 179 119
Width: 367
GlyphClass: 2
Flags: W
LayerCount: 2
Fore
SplineSet
35 504 m 1,0,-1
 78 537 l 1,1,2
 117 479 117 479 177 479 c 0,3,4
 210 479 210 479 232.5 497.5 c 128,-1,5
 255 516 255 516 255 549 c 128,-1,6
 255 582 255 582 223.5 600 c 128,-1,7
 192 618 192 618 134 618 c 1,8,-1
 134 659 l 1,9,10
 183 659 183 659 211.5 678.5 c 128,-1,11
 240 698 240 698 240 729 c 0,12,13
 240 757 240 757 220.5 774 c 128,-1,14
 201 791 201 791 169 791 c 0,15,16
 128 791 128 791 90 744 c 1,17,-1
 51 778 l 1,18,19
 107 842 107 842 179 842 c 0,20,21
 231 842 231 842 267 813.5 c 128,-1,22
 303 785 303 785 303 737 c 0,23,24
 303 673 303 673 235 641 c 1,25,26
 271 632 271 632 295 607 c 128,-1,27
 319 582 319 582 319 545 c 0,28,29
 319 492 319 492 279 460 c 128,-1,30
 239 428 239 428 180 428 c 0,31,32
 87 428 87 428 35 504 c 1,0,-1
EndSplineSet
EndChar

StartChar: acute
Encoding: 180 180 120
Width: 542
GlyphClass: 2
Flags: W
LayerCount: 2
Fore
SplineSet
206 573 m 1,0,-1
 296 714 l 1,1,-1
 382 714 l 1,2,-1
 269 573 l 1,3,-1
 206 573 l 1,0,-1
EndSplineSet
EndChar

StartChar: mu
Encoding: 181 181 121
Width: 550
GlyphClass: 2
Flags: W
LayerCount: 2
Fore
SplineSet
82 -200 m 1,0,-1
 82 486 l 1,1,-1
 164 486 l 1,2,-1
 164 189 l 2,3,4
 164 121 164 121 186 90 c 128,-1,5
 208 59 208 59 256 59 c 0,6,7
 292 59 292 59 321 78 c 128,-1,8
 350 97 350 97 386 141 c 1,9,-1
 386 486 l 1,10,-1
 468 486 l 1,11,-1
 468 0 l 1,12,-1
 400 0 l 1,13,-1
 393 76 l 1,14,-1
 391 76 l 1,15,16
 330 -8 330 -8 251 -8 c 0,17,18
 187 -8 187 -8 159 35 c 1,19,-1
 164 -55 l 1,20,-1
 164 -200 l 1,21,-1
 82 -200 l 1,0,-1
EndSplineSet
EndChar

StartChar: paragraph
Encoding: 182 182 122
Width: 560
GlyphClass: 2
Flags: W
LayerCount: 2
Fore
SplineSet
41 443 m 0,0,1
 41 555 41 555 106 605.5 c 128,-1,2
 171 656 171 656 282 656 c 2,3,-1
 326 656 l 1,4,-1
 326 226 l 1,5,-1
 293 226 l 2,6,7
 178 226 178 226 109.5 280 c 128,-1,8
 41 334 41 334 41 443 c 0,0,1
380 -80 m 1,9,-1
 380 656 l 1,10,-1
 464 656 l 1,11,-1
 464 -80 l 1,12,-1
 380 -80 l 1,9,-1
EndSplineSet
EndChar

StartChar: periodcentered
Encoding: 183 183 123
Width: 249
GlyphClass: 2
Flags: W
LayerCount: 2
Fore
SplineSet
65 321 m 0,0,1
 65 349 65 349 82.5 367 c 128,-1,2
 100 385 100 385 125 385 c 128,-1,3
 150 385 150 385 167 367 c 128,-1,4
 184 349 184 349 184 321 c 0,5,6
 184 294 184 294 166.5 276.5 c 128,-1,7
 149 259 149 259 125 259 c 0,8,9
 100 259 100 259 82.5 276.5 c 128,-1,10
 65 294 65 294 65 321 c 0,0,1
EndSplineSet
EndChar

StartChar: cedilla
Encoding: 184 184 124
Width: 542
GlyphClass: 2
Flags: W
LayerCount: 2
Fore
SplineSet
193 -172 m 1,0,1
 282 -160 282 -160 282 -124 c 0,2,3
 282 -91 282 -91 218 -75 c 1,4,-1
 258 3 l 1,5,-1
 312 3 l 1,6,-1
 286 -50 l 1,7,8
 345 -70 345 -70 345 -121 c 0,9,10
 345 -162 345 -162 304 -184.5 c 128,-1,11
 263 -207 263 -207 201 -213 c 1,12,-1
 193 -172 l 1,0,1
EndSplineSet
EndChar

StartChar: uni00B9
Encoding: 185 185 125
Width: 367
GlyphClass: 2
Flags: W
LayerCount: 2
Fore
SplineSet
87 748 m 1,0,-1
 87 790 l 1,1,2
 144 800 144 800 184 830 c 1,3,-1
 236 830 l 1,4,-1
 236 440 l 1,5,-1
 172 440 l 1,6,-1
 172 748 l 1,7,-1
 87 748 l 1,0,-1
EndSplineSet
EndChar

StartChar: ordmasculine
Encoding: 186 186 126
Width: 365
GlyphClass: 2
Flags: W
LayerCount: 2
Fore
SplineSet
30 421 m 0,0,1
 30 499 30 499 73.5 544.5 c 128,-1,2
 117 590 117 590 182 590 c 0,3,4
 246 590 246 590 290 544.5 c 128,-1,5
 334 499 334 499 334 421 c 0,6,7
 334 344 334 344 290 298 c 128,-1,8
 246 252 246 252 182 252 c 128,-1,9
 118 252 118 252 74 298 c 128,-1,10
 30 344 30 344 30 421 c 0,0,1
93 421 m 0,11,12
 93 368 93 368 117 335.5 c 128,-1,13
 141 303 141 303 182 303 c 128,-1,14
 223 303 223 303 246.5 335.5 c 128,-1,15
 270 368 270 368 270 421 c 0,16,17
 270 475 270 475 246.5 507 c 128,-1,18
 223 539 223 539 182 539 c 128,-1,19
 141 539 141 539 117 507 c 128,-1,20
 93 475 93 475 93 421 c 0,11,12
EndSplineSet
EndChar

StartChar: guillemotright
Encoding: 187 187 127
Width: 429
GlyphClass: 2
Flags: W
LayerCount: 2
Fore
SplineSet
54 94 m 1,0,-1
 172 252 l 1,1,-1
 54 408 l 1,2,-1
 89 438 l 1,3,-1
 226 283 l 1,4,-1
 226 221 l 1,5,-1
 89 66 l 1,6,-1
 54 94 l 1,0,-1
212 94 m 1,7,-1
 330 252 l 1,8,-1
 212 408 l 1,9,-1
 248 438 l 1,10,-1
 384 283 l 1,11,-1
 384 221 l 1,12,-1
 248 66 l 1,13,-1
 212 94 l 1,7,-1
EndSplineSet
EndChar

StartChar: onequarter
Encoding: 188 188 128
Width: 781
GlyphClass: 2
Flags: W
LayerCount: 2
Fore
SplineSet
63 574 m 1,0,-1
 63 616 l 1,1,2
 119 626 119 626 159 656 c 1,3,-1
 212 656 l 1,4,-1
 212 266 l 1,5,-1
 148 266 l 1,6,-1
 148 574 l 1,7,-1
 63 574 l 1,0,-1
180 -12 m 1,8,-1
 542 668 l 1,9,-1
 598 668 l 1,10,-1
 236 -12 l 1,11,-1
 180 -12 l 1,8,-1
456 104 m 1,12,-1
 456 137 l 1,13,-1
 619 390 l 1,14,-1
 691 390 l 1,15,-1
 691 150 l 1,16,-1
 749 150 l 1,17,-1
 749 104 l 1,18,-1
 691 104 l 1,19,-1
 691 0 l 1,20,-1
 633 0 l 1,21,-1
 633 104 l 1,22,-1
 456 104 l 1,12,-1
522 150 m 1,23,-1
 633 150 l 1,24,-1
 633 220 l 1,25,-1
 638 329 l 1,26,-1
 634 329 l 1,27,-1
 584 248 l 1,28,-1
 522 150 l 1,23,-1
EndSplineSet
EndChar

StartChar: onehalf
Encoding: 189 189 129
Width: 808
GlyphClass: 2
Flags: W
LayerCount: 2
Fore
SplineSet
63 574 m 1,0,-1
 63 616 l 1,1,2
 119 626 119 626 159 656 c 1,3,-1
 212 656 l 1,4,-1
 212 266 l 1,5,-1
 148 266 l 1,6,-1
 148 574 l 1,7,-1
 63 574 l 1,0,-1
160 -12 m 1,8,-1
 522 668 l 1,9,-1
 578 668 l 1,10,-1
 216 -12 l 1,11,-1
 160 -12 l 1,8,-1
481 326 m 1,12,13
 532 402 532 402 611 402 c 0,14,15
 671 402 671 402 706 369 c 128,-1,16
 741 336 741 336 741 276 c 0,17,18
 741 249 741 249 732 224 c 128,-1,19
 723 199 723 199 697.5 167 c 128,-1,20
 672 135 672 135 655.5 117 c 128,-1,21
 639 99 639 99 596 55 c 1,22,-1
 761 55 l 1,23,-1
 761 0 l 1,24,-1
 493 0 l 1,25,-1
 493 37 l 1,26,27
 597 130 597 130 637.5 177.5 c 128,-1,28
 678 225 678 225 678 266 c 0,29,30
 678 304 678 304 658 326 c 128,-1,31
 638 348 638 348 603 348 c 0,32,33
 558 348 558 348 519 291 c 1,34,-1
 481 326 l 1,12,13
EndSplineSet
EndChar

StartChar: threequarters
Encoding: 190 190 130
Width: 796
GlyphClass: 2
Flags: W
LayerCount: 2
Fore
SplineSet
34 331 m 1,0,-1
 76 363 l 1,1,2
 115 305 115 305 175 305 c 0,3,4
 208 305 208 305 230.5 324 c 128,-1,5
 253 343 253 343 253 375 c 0,6,7
 253 444 253 444 132 444 c 1,8,-1
 132 485 l 1,9,10
 181 485 181 485 209.5 504.5 c 128,-1,11
 238 524 238 524 238 555 c 0,12,13
 238 584 238 584 219 600.5 c 128,-1,14
 200 617 200 617 168 617 c 0,15,16
 127 617 127 617 88 570 c 1,17,-1
 50 604 l 1,18,19
 104 668 104 668 177 668 c 0,20,21
 230 668 230 668 266 639.5 c 128,-1,22
 302 611 302 611 302 563 c 0,23,24
 302 499 302 499 234 468 c 1,25,26
 270 458 270 458 293.5 433 c 128,-1,27
 317 408 317 408 317 371 c 0,28,29
 317 318 317 318 277.5 286 c 128,-1,30
 238 254 238 254 179 254 c 0,31,32
 86 254 86 254 34 331 c 1,0,-1
218 -12 m 1,33,-1
 580 668 l 1,34,-1
 635 668 l 1,35,-1
 273 -12 l 1,36,-1
 218 -12 l 1,33,-1
470 104 m 1,37,-1
 470 137 l 1,38,-1
 634 390 l 1,39,-1
 706 390 l 1,40,-1
 706 150 l 1,41,-1
 764 150 l 1,42,-1
 764 104 l 1,43,-1
 706 104 l 1,44,-1
 706 0 l 1,45,-1
 648 0 l 1,46,-1
 648 104 l 1,47,-1
 470 104 l 1,37,-1
537 150 m 1,48,-1
 648 150 l 1,49,-1
 648 220 l 1,50,-1
 653 329 l 1,51,-1
 649 329 l 1,52,-1
 599 248 l 1,53,-1
 537 150 l 1,48,-1
EndSplineSet
EndChar

StartChar: questiondown
Encoding: 191 191 131
Width: 425
GlyphClass: 2
Flags: W
LayerCount: 2
Fore
SplineSet
48 -36 m 0,0,1
 48 -2 48 -2 63 30.5 c 128,-1,2
 78 63 78 63 99.5 89 c 128,-1,3
 121 115 121 115 142 141.5 c 128,-1,4
 163 168 163 168 178 200.5 c 128,-1,5
 193 233 193 233 193 268 c 0,6,7
 193 281 193 281 192 288 c 1,8,-1
 265 288 l 1,9,10
 267 268 267 268 267 259 c 0,11,12
 267 222 267 222 252.5 187.5 c 128,-1,13
 238 153 238 153 218 126.5 c 128,-1,14
 198 100 198 100 177.5 75.5 c 128,-1,15
 157 51 157 51 142.5 23.5 c 128,-1,16
 128 -4 128 -4 128 -31 c 0,17,18
 128 -73 128 -73 153 -100 c 128,-1,19
 178 -127 178 -127 225 -127 c 0,20,21
 290 -127 290 -127 339 -70 c 1,22,-1
 387 -113 l 1,23,24
 313 -196 313 -196 219 -196 c 0,25,26
 141 -196 141 -196 94.5 -153 c 128,-1,27
 48 -110 48 -110 48 -36 c 0,0,1
167 436 m 0,28,29
 167 463 167 463 184.5 480.5 c 128,-1,30
 202 498 202 498 227 498 c 0,31,32
 251 498 251 498 268.5 480.5 c 128,-1,33
 286 463 286 463 286 436 c 0,34,35
 286 408 286 408 269 390 c 128,-1,36
 252 372 252 372 227 372 c 128,-1,37
 202 372 202 372 184.5 390 c 128,-1,38
 167 408 167 408 167 436 c 0,28,29
EndSplineSet
EndChar

StartChar: Agrave
Encoding: 192 192 132
Width: 538
GlyphClass: 2
Flags: W
LayerCount: 2
Fore
SplineSet
0 0 m 1,0,-1
 222 656 l 1,1,-1
 316 656 l 1,2,-1
 538 0 l 1,3,-1
 450 0 l 1,4,-1
 387 200 l 1,5,-1
 148 200 l 1,6,-1
 85 0 l 1,7,-1
 0 0 l 1,0,-1
137 818 m 1,8,-1
 231 818 l 1,9,-1
 319 706 l 1,10,-1
 250 706 l 1,11,-1
 137 818 l 1,8,-1
169 267 m 1,12,-1
 366 267 l 1,13,-1
 335 367 l 2,14,15
 303 469 303 469 270 588 c 1,16,-1
 266 588 l 1,17,18
 233 469 233 469 201 367 c 2,19,-1
 169 267 l 1,12,-1
EndSplineSet
EndChar

StartChar: Aacute
Encoding: 193 193 133
Width: 538
GlyphClass: 2
Flags: W
LayerCount: 2
Fore
SplineSet
0 0 m 1,0,-1
 222 656 l 1,1,-1
 316 656 l 1,2,-1
 538 0 l 1,3,-1
 450 0 l 1,4,-1
 387 200 l 1,5,-1
 148 200 l 1,6,-1
 85 0 l 1,7,-1
 0 0 l 1,0,-1
169 267 m 1,8,-1
 366 267 l 1,9,-1
 335 367 l 2,10,11
 303 469 303 469 270 588 c 1,12,-1
 266 588 l 1,13,14
 233 469 233 469 201 367 c 2,15,-1
 169 267 l 1,8,-1
217 706 m 1,16,-1
 305 818 l 1,17,-1
 399 818 l 1,18,-1
 286 706 l 1,19,-1
 217 706 l 1,16,-1
EndSplineSet
EndChar

StartChar: Acircumflex
Encoding: 194 194 134
Width: 538
GlyphClass: 2
Flags: W
LayerCount: 2
Fore
SplineSet
0 0 m 1,0,-1
 222 656 l 1,1,-1
 316 656 l 1,2,-1
 538 0 l 1,3,-1
 450 0 l 1,4,-1
 387 200 l 1,5,-1
 148 200 l 1,6,-1
 85 0 l 1,7,-1
 0 0 l 1,0,-1
132 706 m 1,8,-1
 228 818 l 1,9,-1
 308 818 l 1,10,-1
 404 706 l 1,11,-1
 337 706 l 1,12,-1
 270 774 l 1,13,-1
 266 774 l 1,14,-1
 199 706 l 1,15,-1
 132 706 l 1,8,-1
169 267 m 1,16,-1
 366 267 l 1,17,-1
 335 367 l 2,18,19
 303 469 303 469 270 588 c 1,20,-1
 266 588 l 1,21,22
 233 469 233 469 201 367 c 2,23,-1
 169 267 l 1,16,-1
EndSplineSet
EndChar

StartChar: Atilde
Encoding: 195 195 135
Width: 538
GlyphClass: 2
Flags: W
LayerCount: 2
Fore
SplineSet
0 0 m 1,0,-1
 222 656 l 1,1,-1
 316 656 l 1,2,-1
 538 0 l 1,3,-1
 450 0 l 1,4,-1
 387 200 l 1,5,-1
 148 200 l 1,6,-1
 85 0 l 1,7,-1
 0 0 l 1,0,-1
123 711 m 1,8,9
 128 759 128 759 150.5 789 c 128,-1,10
 173 819 173 819 208 819 c 0,11,12
 236 819 236 819 272.5 793 c 128,-1,13
 309 767 309 767 326 767 c 0,14,15
 358 767 358 767 367 819 c 1,16,-1
 412 819 l 1,17,18
 408 772 408 772 385.5 741.5 c 128,-1,19
 363 711 363 711 328 711 c 0,20,21
 300 711 300 711 263 737 c 128,-1,22
 226 763 226 763 209 763 c 0,23,24
 177 763 177 763 169 711 c 1,25,-1
 123 711 l 1,8,9
169 267 m 1,26,-1
 366 267 l 1,27,-1
 335 367 l 2,28,29
 303 469 303 469 270 588 c 1,30,-1
 266 588 l 1,31,32
 233 469 233 469 201 367 c 2,33,-1
 169 267 l 1,26,-1
EndSplineSet
EndChar

StartChar: Adieresis
Encoding: 196 196 136
Width: 538
GlyphClass: 2
Flags: W
LayerCount: 2
Fore
SplineSet
0 0 m 1,0,-1
 222 656 l 1,1,-1
 316 656 l 1,2,-1
 538 0 l 1,3,-1
 450 0 l 1,4,-1
 387 200 l 1,5,-1
 148 200 l 1,6,-1
 85 0 l 1,7,-1
 0 0 l 1,0,-1
133 764 m 0,8,9
 133 786 133 786 146.5 799.5 c 128,-1,10
 160 813 160 813 181 813 c 0,11,12
 203 813 203 813 216.5 799.5 c 128,-1,13
 230 786 230 786 230 764 c 0,14,15
 230 743 230 743 216.5 729 c 128,-1,16
 203 715 203 715 181 715 c 0,17,18
 160 715 160 715 146.5 729 c 128,-1,19
 133 743 133 743 133 764 c 0,8,9
169 267 m 1,20,-1
 366 267 l 1,21,-1
 335 367 l 2,22,23
 303 469 303 469 270 588 c 1,24,-1
 266 588 l 1,25,26
 233 469 233 469 201 367 c 2,27,-1
 169 267 l 1,20,-1
305 764 m 0,28,29
 305 786 305 786 319 799.5 c 128,-1,30
 333 813 333 813 354 813 c 128,-1,31
 375 813 375 813 389 799.5 c 128,-1,32
 403 786 403 786 403 764 c 0,33,34
 403 743 403 743 389 729 c 128,-1,35
 375 715 375 715 354 715 c 128,-1,36
 333 715 333 715 319 729 c 128,-1,37
 305 743 305 743 305 764 c 0,28,29
EndSplineSet
EndChar

StartChar: Aring
Encoding: 197 197 137
Width: 538
GlyphClass: 2
Flags: W
LayerCount: 2
Fore
SplineSet
0 0 m 1,0,-1
 222 656 l 1,1,-1
 316 656 l 1,2,-1
 538 0 l 1,3,-1
 450 0 l 1,4,-1
 387 200 l 1,5,-1
 148 200 l 1,6,-1
 85 0 l 1,7,-1
 0 0 l 1,0,-1
169 267 m 1,8,-1
 366 267 l 1,9,-1
 335 367 l 2,10,11
 303 469 303 469 270 588 c 1,12,-1
 266 588 l 1,13,14
 233 469 233 469 201 367 c 2,15,-1
 169 267 l 1,8,-1
174 787 m 0,16,17
 174 826 174 826 200 850.5 c 128,-1,18
 226 875 226 875 268 875 c 0,19,20
 308 875 308 875 334.5 850.5 c 128,-1,21
 361 826 361 826 361 787 c 0,22,23
 361 747 361 747 334.5 723 c 128,-1,24
 308 699 308 699 268 699 c 0,25,26
 226 699 226 699 200 723 c 128,-1,27
 174 747 174 747 174 787 c 0,16,17
220 787 m 0,28,29
 220 763 220 763 233.5 749 c 128,-1,30
 247 735 247 735 268 735 c 0,31,32
 288 735 288 735 301.5 749 c 128,-1,33
 315 763 315 763 315 787 c 0,34,35
 315 810 315 810 301 824 c 128,-1,36
 287 838 287 838 268 838 c 0,37,38
 247 838 247 838 233.5 824 c 128,-1,39
 220 810 220 810 220 787 c 0,28,29
EndSplineSet
EndChar

StartChar: AE
Encoding: 198 198 138
Width: 817
GlyphClass: 2
Flags: W
LayerCount: 2
Fore
SplineSet
6 0 m 1,0,-1
 350 656 l 1,1,-1
 761 656 l 1,2,-1
 761 586 l 1,3,-1
 482 586 l 1,4,-1
 482 380 l 1,5,-1
 715 380 l 1,6,-1
 715 309 l 1,7,-1
 482 309 l 1,8,-1
 482 71 l 1,9,-1
 771 71 l 1,10,-1
 771 0 l 1,11,-1
 399 0 l 1,12,-1
 399 191 l 1,13,-1
 191 191 l 1,14,-1
 92 0 l 1,15,-1
 6 0 l 1,0,-1
226 258 m 1,16,-1
 399 258 l 1,17,-1
 399 590 l 1,18,-1
 395 590 l 1,19,20
 378 554 378 554 341 483 c 128,-1,21
 304 412 304 412 287 376 c 2,22,-1
 226 258 l 1,16,-1
EndSplineSet
EndChar

StartChar: Ccedilla
Encoding: 199 199 139
Width: 566
GlyphClass: 2
Flags: W
LayerCount: 2
Fore
SplineSet
49 328 m 0,0,1
 49 483 49 483 131 575.5 c 128,-1,2
 213 668 213 668 342 668 c 0,3,4
 448 668 448 668 521 587 c 1,5,-1
 474 534 l 1,6,7
 416 595 416 595 343 595 c 0,8,9
 249 595 249 595 192 523.5 c 128,-1,10
 135 452 135 452 135 330 c 0,11,12
 135 206 135 206 190 133.5 c 128,-1,13
 245 61 245 61 339 61 c 0,14,15
 424 61 424 61 489 134 c 1,16,-1
 536 83 l 1,17,18
 467 2 467 2 369 -10 c 1,19,-1
 349 -50 l 1,20,21
 409 -70 409 -70 409 -121 c 0,22,23
 409 -162 409 -162 368 -184.5 c 128,-1,24
 327 -207 327 -207 264 -213 c 1,25,-1
 256 -172 l 1,26,27
 345 -160 345 -160 345 -124 c 0,28,29
 345 -91 345 -91 281 -75 c 1,30,-1
 314 -11 l 1,31,32
 196 -3 196 -3 122.5 87.5 c 128,-1,33
 49 178 49 178 49 328 c 0,0,1
EndSplineSet
EndChar

StartChar: Egrave
Encoding: 200 200 140
Width: 522
GlyphClass: 2
Flags: W
LayerCount: 2
Fore
SplineSet
87 0 m 1,0,-1
 87 656 l 1,1,-1
 465 656 l 1,2,-1
 465 586 l 1,3,-1
 171 586 l 1,4,-1
 171 380 l 1,5,-1
 419 380 l 1,6,-1
 419 309 l 1,7,-1
 171 309 l 1,8,-1
 171 71 l 1,9,-1
 475 71 l 1,10,-1
 475 0 l 1,11,-1
 87 0 l 1,0,-1
151 818 m 1,12,-1
 245 818 l 1,13,-1
 333 706 l 1,14,-1
 264 706 l 1,15,-1
 151 818 l 1,12,-1
EndSplineSet
EndChar

StartChar: Eacute
Encoding: 201 201 141
Width: 522
GlyphClass: 2
Flags: W
LayerCount: 2
Fore
SplineSet
87 0 m 1,0,-1
 87 656 l 1,1,-1
 465 656 l 1,2,-1
 465 586 l 1,3,-1
 171 586 l 1,4,-1
 171 380 l 1,5,-1
 419 380 l 1,6,-1
 419 309 l 1,7,-1
 171 309 l 1,8,-1
 171 71 l 1,9,-1
 475 71 l 1,10,-1
 475 0 l 1,11,-1
 87 0 l 1,0,-1
231 706 m 1,12,-1
 319 818 l 1,13,-1
 413 818 l 1,14,-1
 300 706 l 1,15,-1
 231 706 l 1,12,-1
EndSplineSet
EndChar

StartChar: Ecircumflex
Encoding: 202 202 142
Width: 522
GlyphClass: 2
Flags: W
LayerCount: 2
Fore
SplineSet
87 0 m 1,0,-1
 87 656 l 1,1,-1
 465 656 l 1,2,-1
 465 586 l 1,3,-1
 171 586 l 1,4,-1
 171 380 l 1,5,-1
 419 380 l 1,6,-1
 419 309 l 1,7,-1
 171 309 l 1,8,-1
 171 71 l 1,9,-1
 475 71 l 1,10,-1
 475 0 l 1,11,-1
 87 0 l 1,0,-1
146 706 m 1,12,-1
 242 818 l 1,13,-1
 322 818 l 1,14,-1
 418 706 l 1,15,-1
 351 706 l 1,16,-1
 284 774 l 1,17,-1
 280 774 l 1,18,-1
 213 706 l 1,19,-1
 146 706 l 1,12,-1
EndSplineSet
EndChar

StartChar: Edieresis
Encoding: 203 203 143
Width: 522
GlyphClass: 2
Flags: W
LayerCount: 2
Fore
SplineSet
87 0 m 1,0,-1
 87 656 l 1,1,-1
 465 656 l 1,2,-1
 465 586 l 1,3,-1
 171 586 l 1,4,-1
 171 380 l 1,5,-1
 419 380 l 1,6,-1
 419 309 l 1,7,-1
 171 309 l 1,8,-1
 171 71 l 1,9,-1
 475 71 l 1,10,-1
 475 0 l 1,11,-1
 87 0 l 1,0,-1
147 764 m 0,12,13
 147 786 147 786 160.5 799.5 c 128,-1,14
 174 813 174 813 195 813 c 0,15,16
 217 813 217 813 230.5 799.5 c 128,-1,17
 244 786 244 786 244 764 c 0,18,19
 244 743 244 743 230.5 729 c 128,-1,20
 217 715 217 715 195 715 c 0,21,22
 174 715 174 715 160.5 729 c 128,-1,23
 147 743 147 743 147 764 c 0,12,13
319 764 m 0,24,25
 319 786 319 786 333 799.5 c 128,-1,26
 347 813 347 813 368 813 c 128,-1,27
 389 813 389 813 403 799.5 c 128,-1,28
 417 786 417 786 417 764 c 0,29,30
 417 743 417 743 403 729 c 128,-1,31
 389 715 389 715 368 715 c 128,-1,32
 347 715 347 715 333 729 c 128,-1,33
 319 743 319 743 319 764 c 0,24,25
EndSplineSet
EndChar

StartChar: Igrave
Encoding: 204 204 144
Width: 258
GlyphClass: 2
Flags: W
LayerCount: 2
Fore
SplineSet
-2 818 m 1,0,-1
 92 818 l 1,1,-1
 180 706 l 1,2,-1
 111 706 l 1,3,-1
 -2 818 l 1,0,-1
87 0 m 1,4,-1
 87 656 l 1,5,-1
 171 656 l 1,6,-1
 171 0 l 1,7,-1
 87 0 l 1,4,-1
EndSplineSet
EndChar

StartChar: Iacute
Encoding: 205 205 145
Width: 258
GlyphClass: 2
Flags: W
LayerCount: 2
Fore
SplineSet
78 706 m 1,0,-1
 166 818 l 1,1,-1
 260 818 l 1,2,-1
 147 706 l 1,3,-1
 78 706 l 1,0,-1
87 0 m 1,4,-1
 87 656 l 1,5,-1
 171 656 l 1,6,-1
 171 0 l 1,7,-1
 87 0 l 1,4,-1
EndSplineSet
EndChar

StartChar: Icircumflex
Encoding: 206 206 146
Width: 258
GlyphClass: 2
Flags: W
LayerCount: 2
Fore
SplineSet
-7 706 m 1,0,-1
 89 818 l 1,1,-1
 169 818 l 1,2,-1
 265 706 l 1,3,-1
 198 706 l 1,4,-1
 131 774 l 1,5,-1
 127 774 l 1,6,-1
 60 706 l 1,7,-1
 -7 706 l 1,0,-1
87 0 m 1,8,-1
 87 656 l 1,9,-1
 171 656 l 1,10,-1
 171 0 l 1,11,-1
 87 0 l 1,8,-1
EndSplineSet
EndChar

StartChar: Idieresis
Encoding: 207 207 147
Width: 258
GlyphClass: 2
Flags: W
LayerCount: 2
Fore
SplineSet
-6 764 m 0,0,1
 -6 786 -6 786 7.5 799.5 c 128,-1,2
 21 813 21 813 43 813 c 0,3,4
 64 813 64 813 78 799.5 c 128,-1,5
 92 786 92 786 92 764 c 0,6,7
 92 743 92 743 78 729 c 128,-1,8
 64 715 64 715 43 715 c 0,9,10
 21 715 21 715 7.5 729 c 128,-1,11
 -6 743 -6 743 -6 764 c 0,0,1
87 0 m 1,12,-1
 87 656 l 1,13,-1
 171 656 l 1,14,-1
 171 0 l 1,15,-1
 87 0 l 1,12,-1
166 764 m 0,16,17
 166 786 166 786 180 799.5 c 128,-1,18
 194 813 194 813 215 813 c 0,19,20
 237 813 237 813 250.5 799.5 c 128,-1,21
 264 786 264 786 264 764 c 0,22,23
 264 743 264 743 250.5 729 c 128,-1,24
 237 715 237 715 215 715 c 0,25,26
 194 715 194 715 180 729 c 128,-1,27
 166 743 166 743 166 764 c 0,16,17
EndSplineSet
EndChar

StartChar: Eth
Encoding: 208 208 148
Width: 631
GlyphClass: 2
Flags: W
LayerCount: 2
Fore
SplineSet
30 321 m 1,0,-1
 30 364 l 1,1,-1
 106 368 l 1,2,-1
 106 656 l 1,3,-1
 270 656 l 2,4,5
 421 656 421 656 500.5 572 c 128,-1,6
 580 488 580 488 580 331 c 0,7,8
 580 173 580 173 501 86.5 c 128,-1,9
 422 0 422 0 274 0 c 2,10,-1
 106 0 l 1,11,-1
 106 321 l 1,12,-1
 30 321 l 1,0,-1
190 68 m 1,13,-1
 264 68 l 2,14,15
 378 68 378 68 436 136.5 c 128,-1,16
 494 205 494 205 494 331 c 0,17,18
 494 456 494 456 436 522 c 128,-1,19
 378 588 378 588 264 588 c 2,20,-1
 190 588 l 1,21,-1
 190 368 l 1,22,-1
 341 368 l 1,23,-1
 341 321 l 1,24,-1
 190 321 l 1,25,-1
 190 68 l 1,13,-1
EndSplineSet
EndChar

StartChar: Ntilde
Encoding: 209 209 149
Width: 642
GlyphClass: 2
Flags: W
LayerCount: 2
Fore
SplineSet
87 0 m 1,0,-1
 87 656 l 1,1,-1
 173 656 l 1,2,-1
 411 244 l 1,3,-1
 482 108 l 1,4,-1
 486 108 l 1,5,6
 475 290 475 290 475 317 c 2,7,-1
 475 656 l 1,8,-1
 554 656 l 1,9,-1
 554 0 l 1,10,-1
 468 0 l 1,11,-1
 231 413 l 1,12,-1
 160 548 l 1,13,-1
 156 548 l 1,14,15
 166 383 166 383 166 343 c 2,16,-1
 166 0 l 1,17,-1
 87 0 l 1,0,-1
179 711 m 1,18,19
 184 759 184 759 206.5 789 c 128,-1,20
 229 819 229 819 264 819 c 0,21,22
 292 819 292 819 329 793 c 128,-1,23
 366 767 366 767 383 767 c 0,24,25
 415 767 415 767 423 819 c 1,26,-1
 469 819 l 1,27,28
 464 772 464 772 441.5 741.5 c 128,-1,29
 419 711 419 711 384 711 c 0,30,31
 356 711 356 711 319 737 c 128,-1,32
 282 763 282 763 265 763 c 0,33,34
 233 763 233 763 225 711 c 1,35,-1
 179 711 l 1,18,19
EndSplineSet
EndChar

StartChar: Ograve
Encoding: 210 210 150
Width: 659
GlyphClass: 2
Flags: W
LayerCount: 2
Fore
SplineSet
49 331 m 0,0,1
 49 486 49 486 126.5 577 c 128,-1,2
 204 668 204 668 330 668 c 0,3,4
 455 668 455 668 532.5 577 c 128,-1,5
 610 486 610 486 610 331 c 0,6,7
 610 175 610 175 532 81.5 c 128,-1,8
 454 -12 454 -12 330 -12 c 0,9,10
 205 -12 205 -12 127 81 c 128,-1,11
 49 174 49 174 49 331 c 0,0,1
135 331 m 0,12,13
 135 208 135 208 188 134.5 c 128,-1,14
 241 61 241 61 330 61 c 0,15,16
 418 61 418 61 471 134.5 c 128,-1,17
 524 208 524 208 524 331 c 0,18,19
 524 453 524 453 471 524 c 128,-1,20
 418 595 418 595 330 595 c 0,21,22
 241 595 241 595 188 524 c 128,-1,23
 135 453 135 453 135 331 c 0,12,13
199 818 m 1,24,-1
 293 818 l 1,25,-1
 381 706 l 1,26,-1
 312 706 l 1,27,-1
 199 818 l 1,24,-1
EndSplineSet
EndChar

StartChar: Oacute
Encoding: 211 211 151
Width: 659
GlyphClass: 2
Flags: W
LayerCount: 2
Fore
SplineSet
49 331 m 0,0,1
 49 486 49 486 126.5 577 c 128,-1,2
 204 668 204 668 330 668 c 0,3,4
 455 668 455 668 532.5 577 c 128,-1,5
 610 486 610 486 610 331 c 0,6,7
 610 175 610 175 532 81.5 c 128,-1,8
 454 -12 454 -12 330 -12 c 0,9,10
 205 -12 205 -12 127 81 c 128,-1,11
 49 174 49 174 49 331 c 0,0,1
135 331 m 0,12,13
 135 208 135 208 188 134.5 c 128,-1,14
 241 61 241 61 330 61 c 0,15,16
 418 61 418 61 471 134.5 c 128,-1,17
 524 208 524 208 524 331 c 0,18,19
 524 453 524 453 471 524 c 128,-1,20
 418 595 418 595 330 595 c 0,21,22
 241 595 241 595 188 524 c 128,-1,23
 135 453 135 453 135 331 c 0,12,13
278 706 m 1,24,-1
 367 818 l 1,25,-1
 461 818 l 1,26,-1
 347 706 l 1,27,-1
 278 706 l 1,24,-1
EndSplineSet
EndChar

StartChar: Ocircumflex
Encoding: 212 212 152
Width: 659
GlyphClass: 2
Flags: W
LayerCount: 2
Fore
SplineSet
49 331 m 0,0,1
 49 486 49 486 126.5 577 c 128,-1,2
 204 668 204 668 330 668 c 0,3,4
 455 668 455 668 532.5 577 c 128,-1,5
 610 486 610 486 610 331 c 0,6,7
 610 175 610 175 532 81.5 c 128,-1,8
 454 -12 454 -12 330 -12 c 0,9,10
 205 -12 205 -12 127 81 c 128,-1,11
 49 174 49 174 49 331 c 0,0,1
135 331 m 0,12,13
 135 208 135 208 188 134.5 c 128,-1,14
 241 61 241 61 330 61 c 0,15,16
 418 61 418 61 471 134.5 c 128,-1,17
 524 208 524 208 524 331 c 0,18,19
 524 453 524 453 471 524 c 128,-1,20
 418 595 418 595 330 595 c 0,21,22
 241 595 241 595 188 524 c 128,-1,23
 135 453 135 453 135 331 c 0,12,13
194 706 m 1,24,-1
 290 818 l 1,25,-1
 369 818 l 1,26,-1
 465 706 l 1,27,-1
 399 706 l 1,28,-1
 332 774 l 1,29,-1
 328 774 l 1,30,-1
 261 706 l 1,31,-1
 194 706 l 1,24,-1
EndSplineSet
EndChar

StartChar: Otilde
Encoding: 213 213 153
Width: 659
GlyphClass: 2
Flags: W
LayerCount: 2
Fore
SplineSet
49 331 m 0,0,1
 49 486 49 486 126.5 577 c 128,-1,2
 204 668 204 668 330 668 c 0,3,4
 455 668 455 668 532.5 577 c 128,-1,5
 610 486 610 486 610 331 c 0,6,7
 610 175 610 175 532 81.5 c 128,-1,8
 454 -12 454 -12 330 -12 c 0,9,10
 205 -12 205 -12 127 81 c 128,-1,11
 49 174 49 174 49 331 c 0,0,1
135 331 m 0,12,13
 135 208 135 208 188 134.5 c 128,-1,14
 241 61 241 61 330 61 c 0,15,16
 418 61 418 61 471 134.5 c 128,-1,17
 524 208 524 208 524 331 c 0,18,19
 524 453 524 453 471 524 c 128,-1,20
 418 595 418 595 330 595 c 0,21,22
 241 595 241 595 188 524 c 128,-1,23
 135 453 135 453 135 331 c 0,12,13
185 711 m 1,24,25
 190 759 190 759 212.5 789 c 128,-1,26
 235 819 235 819 269 819 c 0,27,28
 298 819 298 819 335 793 c 128,-1,29
 372 767 372 767 388 767 c 0,30,31
 420 767 420 767 429 819 c 1,32,-1
 474 819 l 1,33,34
 469 772 469 772 446.5 741.5 c 128,-1,35
 424 711 424 711 390 711 c 0,36,37
 362 711 362 711 325 737 c 128,-1,38
 288 763 288 763 271 763 c 0,39,40
 239 763 239 763 231 711 c 1,41,-1
 185 711 l 1,24,25
EndSplineSet
EndChar

StartChar: Odieresis
Encoding: 214 214 154
Width: 659
GlyphClass: 2
Flags: W
LayerCount: 2
Fore
SplineSet
49 331 m 0,0,1
 49 486 49 486 126.5 577 c 128,-1,2
 204 668 204 668 330 668 c 0,3,4
 455 668 455 668 532.5 577 c 128,-1,5
 610 486 610 486 610 331 c 0,6,7
 610 175 610 175 532 81.5 c 128,-1,8
 454 -12 454 -12 330 -12 c 0,9,10
 205 -12 205 -12 127 81 c 128,-1,11
 49 174 49 174 49 331 c 0,0,1
135 331 m 0,12,13
 135 208 135 208 188 134.5 c 128,-1,14
 241 61 241 61 330 61 c 0,15,16
 418 61 418 61 471 134.5 c 128,-1,17
 524 208 524 208 524 331 c 0,18,19
 524 453 524 453 471 524 c 128,-1,20
 418 595 418 595 330 595 c 0,21,22
 241 595 241 595 188 524 c 128,-1,23
 135 453 135 453 135 331 c 0,12,13
194 764 m 0,24,25
 194 786 194 786 208 799.5 c 128,-1,26
 222 813 222 813 243 813 c 0,27,28
 265 813 265 813 278.5 799.5 c 128,-1,29
 292 786 292 786 292 764 c 0,30,31
 292 743 292 743 278.5 729 c 128,-1,32
 265 715 265 715 243 715 c 0,33,34
 222 715 222 715 208 729 c 128,-1,35
 194 743 194 743 194 764 c 0,24,25
367 764 m 0,36,37
 367 786 367 786 381 799.5 c 128,-1,38
 395 813 395 813 416 813 c 128,-1,39
 437 813 437 813 451 799.5 c 128,-1,40
 465 786 465 786 465 764 c 0,41,42
 465 743 465 743 451 729 c 128,-1,43
 437 715 437 715 416 715 c 128,-1,44
 395 715 395 715 381 729 c 128,-1,45
 367 743 367 743 367 764 c 0,36,37
EndSplineSet
EndChar

StartChar: multiply
Encoding: 215 215 155
Width: 497
GlyphClass: 2
Flags: W
LayerCount: 2
Fore
SplineSet
50 171 m 1,0,-1
 205 330 l 1,1,-1
 50 488 l 1,2,-1
 94 533 l 1,3,-1
 249 374 l 1,4,-1
 403 533 l 1,5,-1
 447 488 l 1,6,-1
 292 330 l 1,7,-1
 447 171 l 1,8,-1
 403 126 l 1,9,-1
 249 286 l 1,10,-1
 94 126 l 1,11,-1
 50 171 l 1,0,-1
EndSplineSet
EndChar

StartChar: Oslash
Encoding: 216 216 156
Width: 659
GlyphClass: 2
Flags: W
LayerCount: 2
Fore
SplineSet
47 6 m 1,0,-1
 116 96 l 1,1,2
 49 186 49 186 49 331 c 0,3,4
 49 486 49 486 126.5 577 c 128,-1,5
 204 668 204 668 330 668 c 0,6,7
 434 668 434 668 507 603 c 1,8,-1
 570 686 l 1,9,-1
 617 651 l 1,10,-1
 546 559 l 1,11,12
 610 470 610 470 610 331 c 0,13,14
 610 175 610 175 532 81.5 c 128,-1,15
 454 -12 454 -12 330 -12 c 0,16,17
 228 -12 228 -12 156 51 c 1,18,-1
 94 -30 l 1,19,-1
 47 6 l 1,0,-1
135 331 m 0,20,21
 135 232 135 232 170 165 c 1,22,-1
 458 540 l 1,23,24
 408 595 408 595 330 595 c 0,25,26
 241 595 241 595 188 524 c 128,-1,27
 135 453 135 453 135 331 c 0,20,21
205 114 m 1,28,29
 255 61 255 61 330 61 c 0,30,31
 418 61 418 61 471 134.5 c 128,-1,32
 524 208 524 208 524 331 c 0,33,34
 524 425 524 425 492 489 c 1,35,-1
 205 114 l 1,28,29
EndSplineSet
EndChar

StartChar: Ugrave
Encoding: 217 217 157
Width: 640
GlyphClass: 2
Flags: W
LayerCount: 2
Fore
SplineSet
84 271 m 2,0,-1
 84 656 l 1,1,-1
 168 656 l 1,2,-1
 168 269 l 2,3,4
 168 61 168 61 320 61 c 0,5,6
 476 61 476 61 476 269 c 2,7,-1
 476 656 l 1,8,-1
 556 656 l 1,9,-1
 556 271 l 2,10,11
 556 122 556 122 492.5 55 c 128,-1,12
 429 -12 429 -12 320 -12 c 128,-1,13
 211 -12 211 -12 147.5 55 c 128,-1,14
 84 122 84 122 84 271 c 2,0,-1
189 818 m 1,15,-1
 283 818 l 1,16,-1
 371 706 l 1,17,-1
 302 706 l 1,18,-1
 189 818 l 1,15,-1
EndSplineSet
EndChar

StartChar: Uacute
Encoding: 218 218 158
Width: 640
GlyphClass: 2
Flags: W
LayerCount: 2
Fore
SplineSet
84 271 m 2,0,-1
 84 656 l 1,1,-1
 168 656 l 1,2,-1
 168 269 l 2,3,4
 168 61 168 61 320 61 c 0,5,6
 476 61 476 61 476 269 c 2,7,-1
 476 656 l 1,8,-1
 556 656 l 1,9,-1
 556 271 l 2,10,11
 556 122 556 122 492.5 55 c 128,-1,12
 429 -12 429 -12 320 -12 c 128,-1,13
 211 -12 211 -12 147.5 55 c 128,-1,14
 84 122 84 122 84 271 c 2,0,-1
269 706 m 1,15,-1
 357 818 l 1,16,-1
 451 818 l 1,17,-1
 338 706 l 1,18,-1
 269 706 l 1,15,-1
EndSplineSet
EndChar

StartChar: Ucircumflex
Encoding: 219 219 159
Width: 640
GlyphClass: 2
Flags: W
LayerCount: 2
Fore
SplineSet
84 271 m 2,0,-1
 84 656 l 1,1,-1
 168 656 l 1,2,-1
 168 269 l 2,3,4
 168 61 168 61 320 61 c 0,5,6
 476 61 476 61 476 269 c 2,7,-1
 476 656 l 1,8,-1
 556 656 l 1,9,-1
 556 271 l 2,10,11
 556 122 556 122 492.5 55 c 128,-1,12
 429 -12 429 -12 320 -12 c 128,-1,13
 211 -12 211 -12 147.5 55 c 128,-1,14
 84 122 84 122 84 271 c 2,0,-1
184 706 m 1,15,-1
 280 818 l 1,16,-1
 360 818 l 1,17,-1
 456 706 l 1,18,-1
 389 706 l 1,19,-1
 322 774 l 1,20,-1
 318 774 l 1,21,-1
 251 706 l 1,22,-1
 184 706 l 1,15,-1
EndSplineSet
EndChar

StartChar: Udieresis
Encoding: 220 220 160
Width: 640
GlyphClass: 2
Flags: W
LayerCount: 2
Fore
SplineSet
84 271 m 2,0,-1
 84 656 l 1,1,-1
 168 656 l 1,2,-1
 168 269 l 2,3,4
 168 61 168 61 320 61 c 0,5,6
 476 61 476 61 476 269 c 2,7,-1
 476 656 l 1,8,-1
 556 656 l 1,9,-1
 556 271 l 2,10,11
 556 122 556 122 492.5 55 c 128,-1,12
 429 -12 429 -12 320 -12 c 128,-1,13
 211 -12 211 -12 147.5 55 c 128,-1,14
 84 122 84 122 84 271 c 2,0,-1
185 764 m 0,15,16
 185 786 185 786 199 799.5 c 128,-1,17
 213 813 213 813 234 813 c 128,-1,18
 255 813 255 813 269 799.5 c 128,-1,19
 283 786 283 786 283 764 c 0,20,21
 283 743 283 743 269 729 c 128,-1,22
 255 715 255 715 234 715 c 128,-1,23
 213 715 213 715 199 729 c 128,-1,24
 185 743 185 743 185 764 c 0,15,16
358 764 m 0,25,26
 358 786 358 786 371.5 799.5 c 128,-1,27
 385 813 385 813 407 813 c 0,28,29
 428 813 428 813 441.5 799.5 c 128,-1,30
 455 786 455 786 455 764 c 0,31,32
 455 743 455 743 441.5 729 c 128,-1,33
 428 715 428 715 407 715 c 0,34,35
 385 715 385 715 371.5 729 c 128,-1,36
 358 743 358 743 358 764 c 0,25,26
EndSplineSet
EndChar

StartChar: Yacute
Encoding: 221 221 161
Width: 471
GlyphClass: 2
Flags: W
LayerCount: 2
Fore
SplineSet
-4 656 m 1,0,-1
 86 656 l 1,1,-1
 170 471 l 2,2,3
 213 373 213 373 234 328 c 1,4,-1
 238 328 l 1,5,6
 244 341 244 341 267.5 392 c 128,-1,7
 291 443 291 443 303 471 c 2,8,-1
 388 656 l 1,9,-1
 474 656 l 1,10,-1
 277 254 l 1,11,-1
 277 0 l 1,12,-1
 194 0 l 1,13,-1
 194 254 l 1,14,-1
 -4 656 l 1,0,-1
184 706 m 1,15,-1
 272 818 l 1,16,-1
 366 818 l 1,17,-1
 253 706 l 1,18,-1
 184 706 l 1,15,-1
EndSplineSet
EndChar

StartChar: Thorn
Encoding: 222 222 162
Width: 583
GlyphClass: 2
Flags: W
LayerCount: 2
Fore
SplineSet
89 0 m 1,0,-1
 89 656 l 1,1,-1
 172 656 l 1,2,-1
 172 546 l 1,3,-1
 290 546 l 2,4,5
 532 546 532 546 532 353 c 0,6,7
 532 252 532 252 467 201 c 128,-1,8
 402 150 402 150 290 150 c 2,9,-1
 172 150 l 1,10,-1
 172 0 l 1,11,-1
 89 0 l 1,0,-1
172 218 m 1,12,-1
 280 218 l 2,13,14
 366 218 366 218 407.5 250.5 c 128,-1,15
 449 283 449 283 449 353 c 0,16,17
 449 422 449 422 408.5 450 c 128,-1,18
 368 478 368 478 280 478 c 2,19,-1
 172 478 l 1,20,-1
 172 218 l 1,12,-1
EndSplineSet
EndChar

StartChar: germandbls
Encoding: 223 223 163
Width: 576
GlyphClass: 2
Flags: W
LayerCount: 2
Fore
SplineSet
82 0 m 1,0,-1
 82 515 l 2,1,2
 82 610 82 610 133.5 666 c 128,-1,3
 185 722 185 722 278 722 c 0,4,5
 354 722 354 722 397.5 680 c 128,-1,6
 441 638 441 638 441 576 c 0,7,8
 441 542 441 542 427 512 c 128,-1,9
 413 482 413 482 395.5 463.5 c 128,-1,10
 378 445 378 445 364 421 c 128,-1,11
 350 397 350 397 350 374 c 0,12,13
 350 348 350 348 370.5 328.5 c 128,-1,14
 391 309 391 309 419.5 294.5 c 128,-1,15
 448 280 448 280 477 263 c 128,-1,16
 506 246 506 246 526.5 214 c 128,-1,17
 547 182 547 182 547 137 c 0,18,19
 547 73 547 73 503.5 30.5 c 128,-1,20
 460 -12 460 -12 387 -12 c 0,21,22
 313 -12 313 -12 246 37 c 1,23,-1
 279 95 l 1,24,25
 331 52 331 52 385 52 c 0,26,27
 424 52 424 52 446.5 75.5 c 128,-1,28
 469 99 469 99 469 132 c 0,29,30
 469 164 469 164 448.5 187 c 128,-1,31
 428 210 428 210 399 224.5 c 128,-1,32
 370 239 370 239 341.5 255 c 128,-1,33
 313 271 313 271 292.5 298.5 c 128,-1,34
 272 326 272 326 272 364 c 0,35,36
 272 394 272 394 286 422 c 128,-1,37
 300 450 300 450 316 468.5 c 128,-1,38
 332 487 332 487 346 513.5 c 128,-1,39
 360 540 360 540 360 568 c 0,40,41
 360 607 360 607 338.5 631 c 128,-1,42
 317 655 317 655 277 655 c 0,43,44
 223 655 223 655 193.5 615.5 c 128,-1,45
 164 576 164 576 164 500 c 2,46,-1
 164 0 l 1,47,-1
 82 0 l 1,0,-1
EndSplineSet
EndChar

StartChar: agrave
Encoding: 224 224 164
Width: 512
GlyphClass: 2
Flags: W
LayerCount: 2
Fore
SplineSet
58 126 m 0,0,1
 58 205 58 205 129.5 248 c 128,-1,2
 201 291 201 291 357 308 c 1,3,4
 357 430 357 430 257 430 c 0,5,6
 188 430 188 430 112 378 c 1,7,-1
 79 435 l 1,8,9
 177 498 177 498 270 498 c 0,10,11
 438 498 438 498 438 298 c 2,12,-1
 438 0 l 1,13,-1
 371 0 l 1,14,-1
 364 58 l 1,15,-1
 362 58 l 1,16,17
 275 -12 275 -12 201 -12 c 0,18,19
 138 -12 138 -12 98 25 c 128,-1,20
 58 62 58 62 58 126 c 0,0,1
139 132 m 0,21,22
 139 93 139 93 162.5 73.5 c 128,-1,23
 186 54 186 54 224 54 c 0,24,25
 284 54 284 54 357 119 c 1,26,-1
 357 254 l 1,27,28
 239 239 239 239 189 209.5 c 128,-1,29
 139 180 139 180 139 132 c 0,21,22
158 714 m 1,30,-1
 244 714 l 1,31,-1
 334 573 l 1,32,-1
 271 573 l 1,33,-1
 158 714 l 1,30,-1
EndSplineSet
EndChar

StartChar: aacute
Encoding: 225 225 165
Width: 512
GlyphClass: 2
Flags: W
LayerCount: 2
Fore
SplineSet
58 126 m 0,0,1
 58 205 58 205 129.5 248 c 128,-1,2
 201 291 201 291 357 308 c 1,3,4
 357 430 357 430 257 430 c 0,5,6
 188 430 188 430 112 378 c 1,7,-1
 79 435 l 1,8,9
 177 498 177 498 270 498 c 0,10,11
 438 498 438 498 438 298 c 2,12,-1
 438 0 l 1,13,-1
 371 0 l 1,14,-1
 364 58 l 1,15,-1
 362 58 l 1,16,17
 275 -12 275 -12 201 -12 c 0,18,19
 138 -12 138 -12 98 25 c 128,-1,20
 58 62 58 62 58 126 c 0,0,1
139 132 m 0,21,22
 139 93 139 93 162.5 73.5 c 128,-1,23
 186 54 186 54 224 54 c 0,24,25
 284 54 284 54 357 119 c 1,26,-1
 357 254 l 1,27,28
 239 239 239 239 189 209.5 c 128,-1,29
 139 180 139 180 139 132 c 0,21,22
204 573 m 1,30,-1
 294 714 l 1,31,-1
 380 714 l 1,32,-1
 267 573 l 1,33,-1
 204 573 l 1,30,-1
EndSplineSet
EndChar

StartChar: acircumflex
Encoding: 226 226 166
Width: 512
GlyphClass: 2
Flags: W
LayerCount: 2
Fore
SplineSet
58 126 m 0,0,1
 58 205 58 205 129.5 248 c 128,-1,2
 201 291 201 291 357 308 c 1,3,4
 357 430 357 430 257 430 c 0,5,6
 188 430 188 430 112 378 c 1,7,-1
 79 435 l 1,8,9
 177 498 177 498 270 498 c 0,10,11
 438 498 438 498 438 298 c 2,12,-1
 438 0 l 1,13,-1
 371 0 l 1,14,-1
 364 58 l 1,15,-1
 362 58 l 1,16,17
 275 -12 275 -12 201 -12 c 0,18,19
 138 -12 138 -12 98 25 c 128,-1,20
 58 62 58 62 58 126 c 0,0,1
139 132 m 0,21,22
 139 93 139 93 162.5 73.5 c 128,-1,23
 186 54 186 54 224 54 c 0,24,25
 284 54 284 54 357 119 c 1,26,-1
 357 254 l 1,27,28
 239 239 239 239 189 209.5 c 128,-1,29
 139 180 139 180 139 132 c 0,21,22
141 573 m 1,30,-1
 235 714 l 1,31,-1
 303 714 l 1,32,-1
 398 573 l 1,33,-1
 338 573 l 1,34,-1
 271 664 l 1,35,-1
 267 664 l 1,36,-1
 200 573 l 1,37,-1
 141 573 l 1,30,-1
EndSplineSet
EndChar

StartChar: atilde
Encoding: 227 227 167
Width: 512
GlyphClass: 2
Flags: W
LayerCount: 2
Fore
SplineSet
58 126 m 0,0,1
 58 205 58 205 129.5 248 c 128,-1,2
 201 291 201 291 357 308 c 1,3,4
 357 430 357 430 257 430 c 0,5,6
 188 430 188 430 112 378 c 1,7,-1
 79 435 l 1,8,9
 177 498 177 498 270 498 c 0,10,11
 438 498 438 498 438 298 c 2,12,-1
 438 0 l 1,13,-1
 371 0 l 1,14,-1
 364 58 l 1,15,-1
 362 58 l 1,16,17
 275 -12 275 -12 201 -12 c 0,18,19
 138 -12 138 -12 98 25 c 128,-1,20
 58 62 58 62 58 126 c 0,0,1
130 579 m 1,21,22
 135 627 135 627 155.5 656 c 128,-1,23
 176 685 176 685 212 685 c 0,24,25
 239 685 239 685 275 659.5 c 128,-1,26
 311 634 311 634 325 634 c 0,27,28
 353 634 353 634 362 685 c 1,29,-1
 409 685 l 1,30,31
 404 638 404 638 383 608.5 c 128,-1,32
 362 579 362 579 327 579 c 0,33,34
 300 579 300 579 264 604.5 c 128,-1,35
 228 630 228 630 213 630 c 0,36,37
 184 630 184 630 177 579 c 1,38,-1
 130 579 l 1,21,22
139 132 m 0,39,40
 139 93 139 93 162.5 73.5 c 128,-1,41
 186 54 186 54 224 54 c 0,42,43
 284 54 284 54 357 119 c 1,44,-1
 357 254 l 1,45,46
 239 239 239 239 189 209.5 c 128,-1,47
 139 180 139 180 139 132 c 0,39,40
EndSplineSet
EndChar

StartChar: adieresis
Encoding: 228 228 168
Width: 512
GlyphClass: 2
Flags: W
LayerCount: 2
Fore
SplineSet
58 126 m 0,0,1
 58 205 58 205 129.5 248 c 128,-1,2
 201 291 201 291 357 308 c 1,3,4
 357 430 357 430 257 430 c 0,5,6
 188 430 188 430 112 378 c 1,7,-1
 79 435 l 1,8,9
 177 498 177 498 270 498 c 0,10,11
 438 498 438 498 438 298 c 2,12,-1
 438 0 l 1,13,-1
 371 0 l 1,14,-1
 364 58 l 1,15,-1
 362 58 l 1,16,17
 275 -12 275 -12 201 -12 c 0,18,19
 138 -12 138 -12 98 25 c 128,-1,20
 58 62 58 62 58 126 c 0,0,1
134 637 m 128,-1,22
 134 658 134 658 148 672 c 128,-1,23
 162 686 162 686 183 686 c 128,-1,24
 204 686 204 686 218 672 c 128,-1,25
 232 658 232 658 232 637 c 128,-1,26
 232 616 232 616 218 602 c 128,-1,27
 204 588 204 588 183 588 c 128,-1,28
 162 588 162 588 148 602 c 128,-1,21
 134 616 134 616 134 637 c 128,-1,22
139 132 m 0,29,30
 139 93 139 93 162.5 73.5 c 128,-1,31
 186 54 186 54 224 54 c 0,32,33
 284 54 284 54 357 119 c 1,34,-1
 357 254 l 1,35,36
 239 239 239 239 189 209.5 c 128,-1,37
 139 180 139 180 139 132 c 0,29,30
307 637 m 128,-1,39
 307 658 307 658 320.5 672 c 128,-1,40
 334 686 334 686 356 686 c 0,41,42
 377 686 377 686 390.5 672 c 128,-1,43
 404 658 404 658 404 637 c 128,-1,44
 404 616 404 616 390.5 602 c 128,-1,45
 377 588 377 588 356 588 c 0,46,47
 334 588 334 588 320.5 602 c 128,-1,38
 307 616 307 616 307 637 c 128,-1,39
EndSplineSet
EndChar

StartChar: aring
Encoding: 229 229 169
Width: 512
GlyphClass: 2
Flags: W
LayerCount: 2
Fore
SplineSet
58 126 m 0,0,1
 58 205 58 205 129.5 248 c 128,-1,2
 201 291 201 291 357 308 c 1,3,4
 357 430 357 430 257 430 c 0,5,6
 188 430 188 430 112 378 c 1,7,-1
 79 435 l 1,8,9
 177 498 177 498 270 498 c 0,10,11
 438 498 438 498 438 298 c 2,12,-1
 438 0 l 1,13,-1
 371 0 l 1,14,-1
 364 58 l 1,15,-1
 362 58 l 1,16,17
 275 -12 275 -12 201 -12 c 0,18,19
 138 -12 138 -12 98 25 c 128,-1,20
 58 62 58 62 58 126 c 0,0,1
139 132 m 0,21,22
 139 93 139 93 162.5 73.5 c 128,-1,23
 186 54 186 54 224 54 c 0,24,25
 284 54 284 54 357 119 c 1,26,-1
 357 254 l 1,27,28
 239 239 239 239 189 209.5 c 128,-1,29
 139 180 139 180 139 132 c 0,21,22
176 635 m 0,30,31
 176 676 176 676 202 701.5 c 128,-1,32
 228 727 228 727 269 727 c 128,-1,33
 310 727 310 727 336.5 701.5 c 128,-1,34
 363 676 363 676 363 635 c 0,35,36
 363 593 363 593 337 567.5 c 128,-1,37
 311 542 311 542 269 542 c 0,38,39
 228 542 228 542 202 567.5 c 128,-1,40
 176 593 176 593 176 635 c 0,30,31
221 635 m 0,41,42
 221 610 221 610 235 594.5 c 128,-1,43
 249 579 249 579 269 579 c 0,44,45
 290 579 290 579 303.5 594.5 c 128,-1,46
 317 610 317 610 317 635 c 0,47,48
 317 659 317 659 303.5 674.5 c 128,-1,49
 290 690 290 690 269 690 c 0,50,51
 249 690 249 690 235 674.5 c 128,-1,52
 221 659 221 659 221 635 c 0,41,42
EndSplineSet
EndChar

StartChar: ae
Encoding: 230 230 170
Width: 788
GlyphClass: 2
Flags: W
LayerCount: 2
Fore
SplineSet
58 126 m 0,0,1
 58 205 58 205 128.5 248 c 128,-1,2
 199 291 199 291 352 308 c 1,3,4
 352 430 352 430 253 430 c 0,5,6
 188 430 188 430 112 378 c 1,7,-1
 79 435 l 1,8,9
 177 498 177 498 263 498 c 0,10,11
 369 498 369 498 402 395 c 1,12,13
 464 498 464 498 562 498 c 0,14,15
 650 498 650 498 698.5 436.5 c 128,-1,16
 747 375 747 375 747 269 c 0,17,18
 747 241 747 241 744 223 c 1,19,-1
 429 223 l 1,20,21
 432 148 432 148 474.5 101.5 c 128,-1,22
 517 55 517 55 580 55 c 0,23,24
 635 55 635 55 698 95 c 1,25,-1
 728 38 l 1,26,27
 650 -12 650 -12 570 -12 c 0,28,29
 469 -12 469 -12 399 79 c 1,30,31
 297 -12 297 -12 201 -12 c 0,32,33
 138 -12 138 -12 98 25 c 128,-1,34
 58 62 58 62 58 126 c 0,0,1
139 132 m 0,35,36
 139 93 139 93 162.5 73.5 c 128,-1,37
 186 54 186 54 224 54 c 0,38,39
 259 54 259 54 299 74 c 128,-1,40
 339 94 339 94 371 129 c 1,41,42
 354 168 354 168 352 229 c 2,43,-1
 352 254 l 1,44,45
 239 239 239 239 189 209.5 c 128,-1,46
 139 180 139 180 139 132 c 0,35,36
429 278 m 1,47,-1
 675 278 l 1,48,49
 675 353 675 353 645.5 393 c 128,-1,50
 616 433 616 433 560 433 c 0,51,52
 509 433 509 433 472.5 390.5 c 128,-1,53
 436 348 436 348 429 278 c 1,47,-1
EndSplineSet
EndChar

StartChar: ccedilla
Encoding: 231 231 171
Width: 456
GlyphClass: 2
Flags: W
LayerCount: 2
Fore
SplineSet
46 242 m 0,0,1
 46 360 46 360 114 429 c 128,-1,2
 182 498 182 498 280 498 c 0,3,4
 360 498 360 498 422 440 c 1,5,-1
 381 387 l 1,6,7
 331 430 331 430 283 430 c 0,8,9
 217 430 217 430 174 377.5 c 128,-1,10
 131 325 131 325 131 242 c 128,-1,11
 131 159 131 159 172.5 107.5 c 128,-1,12
 214 56 214 56 281 56 c 0,13,14
 340 56 340 56 395 105 c 1,15,-1
 432 51 l 1,16,17
 372 -2 372 -2 300 -10 c 1,18,-1
 281 -50 l 1,19,20
 340 -70 340 -70 340 -121 c 0,21,22
 340 -162 340 -162 299 -184.5 c 128,-1,23
 258 -207 258 -207 195 -213 c 1,24,-1
 187 -172 l 1,25,26
 276 -160 276 -160 276 -124 c 0,27,28
 276 -91 276 -91 212 -75 c 1,29,-1
 245 -10 l 1,30,31
 157 0 157 0 101.5 66.5 c 128,-1,32
 46 133 46 133 46 242 c 0,0,1
EndSplineSet
EndChar

StartChar: egrave
Encoding: 232 232 172
Width: 499
GlyphClass: 2
Flags: W
LayerCount: 2
Fore
SplineSet
46 242 m 0,0,1
 46 356 46 356 111 427 c 128,-1,2
 176 498 176 498 264 498 c 0,3,4
 356 498 356 498 407 436.5 c 128,-1,5
 458 375 458 375 458 270 c 0,6,7
 458 243 458 243 455 225 c 1,8,-1
 127 225 l 1,9,10
 131 146 131 146 175 100 c 128,-1,11
 219 54 219 54 289 54 c 0,12,13
 351 54 351 54 410 92 c 1,14,-1
 439 38 l 1,15,16
 361 -12 361 -12 279 -12 c 0,17,18
 179 -12 179 -12 112.5 57 c 128,-1,19
 46 126 46 126 46 242 c 0,0,1
126 279 m 1,20,-1
 386 279 l 1,21,22
 386 353 386 353 354.5 393 c 128,-1,23
 323 433 323 433 266 433 c 0,24,25
 213 433 213 433 173 391.5 c 128,-1,26
 133 350 133 350 126 279 c 1,20,-1
154 714 m 1,27,-1
 239 714 l 1,28,-1
 330 573 l 1,29,-1
 266 573 l 1,30,-1
 154 714 l 1,27,-1
EndSplineSet
EndChar

StartChar: eacute
Encoding: 233 233 173
Width: 499
GlyphClass: 2
Flags: W
LayerCount: 2
Fore
SplineSet
46 242 m 0,0,1
 46 356 46 356 111 427 c 128,-1,2
 176 498 176 498 264 498 c 0,3,4
 356 498 356 498 407 436.5 c 128,-1,5
 458 375 458 375 458 270 c 0,6,7
 458 243 458 243 455 225 c 1,8,-1
 127 225 l 1,9,10
 131 146 131 146 175 100 c 128,-1,11
 219 54 219 54 289 54 c 0,12,13
 351 54 351 54 410 92 c 1,14,-1
 439 38 l 1,15,16
 361 -12 361 -12 279 -12 c 0,17,18
 179 -12 179 -12 112.5 57 c 128,-1,19
 46 126 46 126 46 242 c 0,0,1
126 279 m 1,20,-1
 386 279 l 1,21,22
 386 353 386 353 354.5 393 c 128,-1,23
 323 433 323 433 266 433 c 0,24,25
 213 433 213 433 173 391.5 c 128,-1,26
 133 350 133 350 126 279 c 1,20,-1
199 573 m 1,27,-1
 290 714 l 1,28,-1
 375 714 l 1,29,-1
 262 573 l 1,30,-1
 199 573 l 1,27,-1
EndSplineSet
EndChar

StartChar: ecircumflex
Encoding: 234 234 174
Width: 499
GlyphClass: 2
Flags: W
LayerCount: 2
Fore
SplineSet
46 242 m 0,0,1
 46 356 46 356 111 427 c 128,-1,2
 176 498 176 498 264 498 c 0,3,4
 356 498 356 498 407 436.5 c 128,-1,5
 458 375 458 375 458 270 c 0,6,7
 458 243 458 243 455 225 c 1,8,-1
 127 225 l 1,9,10
 131 146 131 146 175 100 c 128,-1,11
 219 54 219 54 289 54 c 0,12,13
 351 54 351 54 410 92 c 1,14,-1
 439 38 l 1,15,16
 361 -12 361 -12 279 -12 c 0,17,18
 179 -12 179 -12 112.5 57 c 128,-1,19
 46 126 46 126 46 242 c 0,0,1
126 279 m 1,20,-1
 386 279 l 1,21,22
 386 353 386 353 354.5 393 c 128,-1,23
 323 433 323 433 266 433 c 0,24,25
 213 433 213 433 173 391.5 c 128,-1,26
 133 350 133 350 126 279 c 1,20,-1
136 573 m 1,27,-1
 231 714 l 1,28,-1
 298 714 l 1,29,-1
 393 573 l 1,30,-1
 333 573 l 1,31,-1
 266 664 l 1,32,-1
 262 664 l 1,33,-1
 195 573 l 1,34,-1
 136 573 l 1,27,-1
EndSplineSet
EndChar

StartChar: edieresis
Encoding: 235 235 175
Width: 499
GlyphClass: 2
Flags: W
LayerCount: 2
Fore
SplineSet
46 242 m 0,0,1
 46 356 46 356 111 427 c 128,-1,2
 176 498 176 498 264 498 c 0,3,4
 356 498 356 498 407 436.5 c 128,-1,5
 458 375 458 375 458 270 c 0,6,7
 458 243 458 243 455 225 c 1,8,-1
 127 225 l 1,9,10
 131 146 131 146 175 100 c 128,-1,11
 219 54 219 54 289 54 c 0,12,13
 351 54 351 54 410 92 c 1,14,-1
 439 38 l 1,15,16
 361 -12 361 -12 279 -12 c 0,17,18
 179 -12 179 -12 112.5 57 c 128,-1,19
 46 126 46 126 46 242 c 0,0,1
126 279 m 1,20,-1
 386 279 l 1,21,22
 386 353 386 353 354.5 393 c 128,-1,23
 323 433 323 433 266 433 c 0,24,25
 213 433 213 433 173 391.5 c 128,-1,26
 133 350 133 350 126 279 c 1,20,-1
129 637 m 128,-1,28
 129 658 129 658 143 672 c 128,-1,29
 157 686 157 686 178 686 c 128,-1,30
 199 686 199 686 213 672 c 128,-1,31
 227 658 227 658 227 637 c 128,-1,32
 227 616 227 616 213 602 c 128,-1,33
 199 588 199 588 178 588 c 128,-1,34
 157 588 157 588 143 602 c 128,-1,27
 129 616 129 616 129 637 c 128,-1,28
302 637 m 128,-1,36
 302 658 302 658 315.5 672 c 128,-1,37
 329 686 329 686 351 686 c 0,38,39
 372 686 372 686 386 672 c 128,-1,40
 400 658 400 658 400 637 c 128,-1,41
 400 616 400 616 386 602 c 128,-1,42
 372 588 372 588 351 588 c 0,43,44
 329 588 329 588 315.5 602 c 128,-1,35
 302 616 302 616 302 637 c 128,-1,36
EndSplineSet
EndChar

StartChar: igrave
Encoding: 236 236 176
Width: 246
GlyphClass: 2
Flags: W
LayerCount: 2
Fore
SplineSet
12 714 m 1,0,-1
 98 714 l 1,1,-1
 188 573 l 1,2,-1
 125 573 l 1,3,-1
 12 714 l 1,0,-1
82 0 m 1,4,-1
 82 486 l 1,5,-1
 164 486 l 1,6,-1
 164 0 l 1,7,-1
 82 0 l 1,4,-1
EndSplineSet
EndChar

StartChar: iacute
Encoding: 237 237 177
Width: 246
GlyphClass: 2
Flags: W
LayerCount: 2
Fore
SplineSet
58 573 m 1,0,-1
 148 714 l 1,1,-1
 234 714 l 1,2,-1
 121 573 l 1,3,-1
 58 573 l 1,0,-1
82 0 m 1,4,-1
 82 486 l 1,5,-1
 164 486 l 1,6,-1
 164 0 l 1,7,-1
 82 0 l 1,4,-1
EndSplineSet
EndChar

StartChar: icircumflex
Encoding: 238 238 178
Width: 246
GlyphClass: 2
Flags: W
LayerCount: 2
Fore
SplineSet
-5 573 m 1,0,-1
 89 714 l 1,1,-1
 157 714 l 1,2,-1
 252 573 l 1,3,-1
 192 573 l 1,4,-1
 125 664 l 1,5,-1
 121 664 l 1,6,-1
 54 573 l 1,7,-1
 -5 573 l 1,0,-1
82 0 m 1,8,-1
 82 486 l 1,9,-1
 164 486 l 1,10,-1
 164 0 l 1,11,-1
 82 0 l 1,8,-1
EndSplineSet
EndChar

StartChar: idieresis
Encoding: 239 239 179
Width: 246
GlyphClass: 2
Flags: W
LayerCount: 2
Fore
SplineSet
-12 637 m 128,-1,1
 -12 658 -12 658 2 672 c 128,-1,2
 16 686 16 686 37 686 c 128,-1,3
 58 686 58 686 72 672 c 128,-1,4
 86 658 86 658 86 637 c 128,-1,5
 86 616 86 616 72 602 c 128,-1,6
 58 588 58 588 37 588 c 128,-1,7
 16 588 16 588 2 602 c 128,-1,0
 -12 616 -12 616 -12 637 c 128,-1,1
82 0 m 1,8,-1
 82 486 l 1,9,-1
 164 486 l 1,10,-1
 164 0 l 1,11,-1
 82 0 l 1,8,-1
161 637 m 128,-1,13
 161 658 161 658 174.5 672 c 128,-1,14
 188 686 188 686 209 686 c 0,15,16
 231 686 231 686 244.5 672 c 128,-1,17
 258 658 258 658 258 637 c 128,-1,18
 258 616 258 616 244.5 602 c 128,-1,19
 231 588 231 588 209 588 c 0,20,21
 188 588 188 588 174.5 602 c 128,-1,12
 161 616 161 616 161 637 c 128,-1,13
EndSplineSet
EndChar

StartChar: eth
Encoding: 240 240 180
Width: 545
GlyphClass: 2
Flags: W
LayerCount: 2
Fore
SplineSet
53 222 m 0,0,1
 53 322 53 322 111.5 384.5 c 128,-1,2
 170 447 170 447 259 447 c 0,3,4
 343 447 343 447 393 381 c 1,5,6
 369 492 369 492 286 573 c 1,7,-1
 145 500 l 1,8,-1
 121 541 l 1,9,-1
 248 606 l 1,10,11
 196 646 196 646 136 678 c 1,12,-1
 174 730 l 1,13,14
 257 685 257 685 312 639 c 1,15,-1
 454 712 l 1,16,-1
 478 671 l 1,17,-1
 349 605 l 1,18,19
 485 467 485 467 485 257 c 0,20,21
 485 137 485 137 425.5 62.5 c 128,-1,22
 366 -12 366 -12 269 -12 c 0,23,24
 180 -12 180 -12 116.5 52.5 c 128,-1,25
 53 117 53 117 53 222 c 0,0,1
131 222 m 0,26,27
 131 149 131 149 172 102.5 c 128,-1,28
 213 56 213 56 271 56 c 0,29,30
 337 56 337 56 371.5 109.5 c 128,-1,31
 406 163 406 163 406 254 c 0,32,33
 406 275 406 275 404 309 c 1,34,35
 349 383 349 383 271 383 c 0,36,37
 206 383 206 383 168.5 338 c 128,-1,38
 131 293 131 293 131 222 c 0,26,27
EndSplineSet
EndChar

StartChar: ntilde
Encoding: 241 241 181
Width: 547
GlyphClass: 2
Flags: W
LayerCount: 2
Fore
SplineSet
82 0 m 1,0,-1
 82 486 l 1,1,-1
 150 486 l 1,2,-1
 157 416 l 1,3,-1
 160 416 l 1,4,5
 242 498 242 498 323 498 c 0,6,7
 471 498 471 498 471 308 c 2,8,-1
 471 0 l 1,9,-1
 389 0 l 1,10,-1
 389 297 l 2,11,12
 389 365 389 365 367 396 c 128,-1,13
 345 427 345 427 297 427 c 0,14,15
 262 427 262 427 233 409.5 c 128,-1,16
 204 392 204 392 164 352 c 1,17,-1
 164 0 l 1,18,-1
 82 0 l 1,0,-1
153 579 m 1,19,20
 157 626 157 626 178 655.5 c 128,-1,21
 199 685 199 685 234 685 c 0,22,23
 261 685 261 685 297.5 659.5 c 128,-1,24
 334 634 334 634 348 634 c 0,25,26
 376 634 376 634 384 685 c 1,27,-1
 431 685 l 1,28,29
 427 638 427 638 406 608.5 c 128,-1,30
 385 579 385 579 350 579 c 0,31,32
 322 579 322 579 286.5 604.5 c 128,-1,33
 251 630 251 630 236 630 c 0,34,35
 208 630 208 630 199 579 c 1,36,-1
 153 579 l 1,19,20
EndSplineSet
EndChar

StartChar: ograve
Encoding: 242 242 182
Width: 542
GlyphClass: 2
Flags: W
LayerCount: 2
Fore
SplineSet
46 242 m 0,0,1
 46 360 46 360 111.5 429 c 128,-1,2
 177 498 177 498 271 498 c 128,-1,3
 365 498 365 498 430.5 429 c 128,-1,4
 496 360 496 360 496 242 c 0,5,6
 496 126 496 126 430.5 57 c 128,-1,7
 365 -12 365 -12 271 -12 c 128,-1,8
 177 -12 177 -12 111.5 57 c 128,-1,9
 46 126 46 126 46 242 c 0,0,1
131 242 m 0,10,11
 131 159 131 159 170 107.5 c 128,-1,12
 209 56 209 56 271 56 c 0,13,14
 334 56 334 56 372.5 107.5 c 128,-1,15
 411 159 411 159 411 242 c 0,16,17
 411 326 411 326 372.5 378 c 128,-1,18
 334 430 334 430 271 430 c 0,19,20
 209 430 209 430 170 378 c 128,-1,21
 131 326 131 326 131 242 c 0,10,11
160 714 m 1,22,-1
 246 714 l 1,23,-1
 336 573 l 1,24,-1
 273 573 l 1,25,-1
 160 714 l 1,22,-1
EndSplineSet
EndChar

StartChar: oacute
Encoding: 243 243 183
Width: 542
GlyphClass: 2
Flags: W
LayerCount: 2
Fore
SplineSet
46 242 m 0,0,1
 46 360 46 360 111.5 429 c 128,-1,2
 177 498 177 498 271 498 c 128,-1,3
 365 498 365 498 430.5 429 c 128,-1,4
 496 360 496 360 496 242 c 0,5,6
 496 126 496 126 430.5 57 c 128,-1,7
 365 -12 365 -12 271 -12 c 128,-1,8
 177 -12 177 -12 111.5 57 c 128,-1,9
 46 126 46 126 46 242 c 0,0,1
131 242 m 0,10,11
 131 159 131 159 170 107.5 c 128,-1,12
 209 56 209 56 271 56 c 0,13,14
 334 56 334 56 372.5 107.5 c 128,-1,15
 411 159 411 159 411 242 c 0,16,17
 411 326 411 326 372.5 378 c 128,-1,18
 334 430 334 430 271 430 c 0,19,20
 209 430 209 430 170 378 c 128,-1,21
 131 326 131 326 131 242 c 0,10,11
206 573 m 1,22,-1
 296 714 l 1,23,-1
 382 714 l 1,24,-1
 269 573 l 1,25,-1
 206 573 l 1,22,-1
EndSplineSet
EndChar

StartChar: ocircumflex
Encoding: 244 244 184
Width: 542
GlyphClass: 2
Flags: W
LayerCount: 2
Fore
SplineSet
46 242 m 0,0,1
 46 360 46 360 111.5 429 c 128,-1,2
 177 498 177 498 271 498 c 128,-1,3
 365 498 365 498 430.5 429 c 128,-1,4
 496 360 496 360 496 242 c 0,5,6
 496 126 496 126 430.5 57 c 128,-1,7
 365 -12 365 -12 271 -12 c 128,-1,8
 177 -12 177 -12 111.5 57 c 128,-1,9
 46 126 46 126 46 242 c 0,0,1
131 242 m 0,10,11
 131 159 131 159 170 107.5 c 128,-1,12
 209 56 209 56 271 56 c 0,13,14
 334 56 334 56 372.5 107.5 c 128,-1,15
 411 159 411 159 411 242 c 0,16,17
 411 326 411 326 372.5 378 c 128,-1,18
 334 430 334 430 271 430 c 0,19,20
 209 430 209 430 170 378 c 128,-1,21
 131 326 131 326 131 242 c 0,10,11
143 573 m 1,22,-1
 237 714 l 1,23,-1
 305 714 l 1,24,-1
 400 573 l 1,25,-1
 340 573 l 1,26,-1
 273 664 l 1,27,-1
 269 664 l 1,28,-1
 202 573 l 1,29,-1
 143 573 l 1,22,-1
EndSplineSet
EndChar

StartChar: otilde
Encoding: 245 245 185
Width: 542
GlyphClass: 2
Flags: W
LayerCount: 2
Fore
SplineSet
46 242 m 0,0,1
 46 360 46 360 111.5 429 c 128,-1,2
 177 498 177 498 271 498 c 128,-1,3
 365 498 365 498 430.5 429 c 128,-1,4
 496 360 496 360 496 242 c 0,5,6
 496 126 496 126 430.5 57 c 128,-1,7
 365 -12 365 -12 271 -12 c 128,-1,8
 177 -12 177 -12 111.5 57 c 128,-1,9
 46 126 46 126 46 242 c 0,0,1
131 242 m 0,10,11
 131 159 131 159 170 107.5 c 128,-1,12
 209 56 209 56 271 56 c 0,13,14
 334 56 334 56 372.5 107.5 c 128,-1,15
 411 159 411 159 411 242 c 0,16,17
 411 326 411 326 372.5 378 c 128,-1,18
 334 430 334 430 271 430 c 0,19,20
 209 430 209 430 170 378 c 128,-1,21
 131 326 131 326 131 242 c 0,10,11
132 579 m 1,22,23
 136 626 136 626 157 655.5 c 128,-1,24
 178 685 178 685 213 685 c 0,25,26
 241 685 241 685 277 659.5 c 128,-1,27
 313 634 313 634 327 634 c 0,28,29
 355 634 355 634 364 685 c 1,30,-1
 410 685 l 1,31,32
 406 638 406 638 385 608.5 c 128,-1,33
 364 579 364 579 329 579 c 0,34,35
 302 579 302 579 266 604.5 c 128,-1,36
 230 630 230 630 215 630 c 0,37,38
 186 630 186 630 179 579 c 1,39,-1
 132 579 l 1,22,23
EndSplineSet
EndChar

StartChar: odieresis
Encoding: 246 246 186
Width: 542
GlyphClass: 2
Flags: W
LayerCount: 2
Fore
SplineSet
46 242 m 0,0,1
 46 360 46 360 111.5 429 c 128,-1,2
 177 498 177 498 271 498 c 128,-1,3
 365 498 365 498 430.5 429 c 128,-1,4
 496 360 496 360 496 242 c 0,5,6
 496 126 496 126 430.5 57 c 128,-1,7
 365 -12 365 -12 271 -12 c 128,-1,8
 177 -12 177 -12 111.5 57 c 128,-1,9
 46 126 46 126 46 242 c 0,0,1
131 242 m 0,10,11
 131 159 131 159 170 107.5 c 128,-1,12
 209 56 209 56 271 56 c 0,13,14
 334 56 334 56 372.5 107.5 c 128,-1,15
 411 159 411 159 411 242 c 0,16,17
 411 326 411 326 372.5 378 c 128,-1,18
 334 430 334 430 271 430 c 0,19,20
 209 430 209 430 170 378 c 128,-1,21
 131 326 131 326 131 242 c 0,10,11
136 637 m 128,-1,23
 136 658 136 658 150 672 c 128,-1,24
 164 686 164 686 185 686 c 128,-1,25
 206 686 206 686 220 672 c 128,-1,26
 234 658 234 658 234 637 c 128,-1,27
 234 616 234 616 220 602 c 128,-1,28
 206 588 206 588 185 588 c 128,-1,29
 164 588 164 588 150 602 c 128,-1,22
 136 616 136 616 136 637 c 128,-1,23
309 637 m 128,-1,31
 309 658 309 658 322.5 672 c 128,-1,32
 336 686 336 686 357 686 c 0,33,34
 379 686 379 686 392.5 672 c 128,-1,35
 406 658 406 658 406 637 c 128,-1,36
 406 616 406 616 392.5 602 c 128,-1,37
 379 588 379 588 357 588 c 0,38,39
 336 588 336 588 322.5 602 c 128,-1,30
 309 616 309 616 309 637 c 128,-1,31
EndSplineSet
EndChar

StartChar: divide
Encoding: 247 247 187
Width: 497
GlyphClass: 2
Flags: W
LayerCount: 2
Fore
SplineSet
34 299 m 1,0,-1
 34 361 l 1,1,-1
 463 361 l 1,2,-1
 463 299 l 1,3,-1
 34 299 l 1,0,-1
194 150 m 0,4,5
 194 173 194 173 210 188 c 128,-1,6
 226 203 226 203 249 203 c 128,-1,7
 272 203 272 203 287.5 188 c 128,-1,8
 303 173 303 173 303 150 c 0,9,10
 303 126 303 126 287.5 111 c 128,-1,11
 272 96 272 96 249 96 c 0,12,13
 225 96 225 96 209.5 111 c 128,-1,14
 194 126 194 126 194 150 c 0,4,5
194 510 m 0,15,16
 194 533 194 533 210 548 c 128,-1,17
 226 563 226 563 249 563 c 128,-1,18
 272 563 272 563 287.5 548 c 128,-1,19
 303 533 303 533 303 510 c 0,20,21
 303 486 303 486 287.5 471 c 128,-1,22
 272 456 272 456 249 456 c 0,23,24
 225 456 225 456 209.5 471 c 128,-1,25
 194 486 194 486 194 510 c 0,15,16
EndSplineSet
EndChar

StartChar: oslash
Encoding: 248 248 188
Width: 542
GlyphClass: 2
Flags: W
LayerCount: 2
Fore
SplineSet
46 6 m 1,0,-1
 100 71 l 1,1,2
 46 141 46 141 46 242 c 0,3,4
 46 360 46 360 111.5 429 c 128,-1,5
 177 498 177 498 271 498 c 0,6,7
 351 498 351 498 410 448 c 1,8,-1
 460 509 l 1,9,-1
 496 480 l 1,10,-1
 442 415 l 1,11,12
 496 345 496 345 496 242 c 0,13,14
 496 126 496 126 430.5 57 c 128,-1,15
 365 -12 365 -12 271 -12 c 0,16,17
 192 -12 192 -12 132 37 c 1,18,-1
 83 -23 l 1,19,-1
 46 6 l 1,0,-1
127 246 m 0,20,21
 127 179 127 179 150 133 c 1,22,-1
 364 392 l 1,23,24
 327 432 327 432 271 432 c 0,25,26
 208 432 208 432 167.5 380 c 128,-1,27
 127 328 127 328 127 246 c 0,20,21
178 93 m 1,28,29
 217 54 217 54 271 54 c 0,30,31
 334 54 334 54 374.5 105.5 c 128,-1,32
 415 157 415 157 415 239 c 0,33,34
 415 306 415 306 391 353 c 1,35,-1
 178 93 l 1,28,29
EndSplineSet
EndChar

StartChar: ugrave
Encoding: 249 249 189
Width: 549
GlyphClass: 2
Flags: W
LayerCount: 2
Fore
SplineSet
80 178 m 2,0,-1
 80 486 l 1,1,-1
 163 486 l 1,2,-1
 163 189 l 2,3,4
 163 121 163 121 184.5 90 c 128,-1,5
 206 59 206 59 254 59 c 0,6,7
 290 59 290 59 319 78 c 128,-1,8
 348 97 348 97 384 141 c 1,9,-1
 384 486 l 1,10,-1
 467 486 l 1,11,-1
 467 0 l 1,12,-1
 399 0 l 1,13,-1
 392 76 l 1,14,-1
 389 76 l 1,15,16
 314 -12 314 -12 229 -12 c 0,17,18
 80 -12 80 -12 80 178 c 2,0,-1
166 714 m 1,19,-1
 252 714 l 1,20,-1
 342 573 l 1,21,-1
 279 573 l 1,22,-1
 166 714 l 1,19,-1
EndSplineSet
EndChar

StartChar: uacute
Encoding: 250 250 190
Width: 549
GlyphClass: 2
Flags: W
LayerCount: 2
Fore
SplineSet
80 178 m 2,0,-1
 80 486 l 1,1,-1
 163 486 l 1,2,-1
 163 189 l 2,3,4
 163 121 163 121 184.5 90 c 128,-1,5
 206 59 206 59 254 59 c 0,6,7
 290 59 290 59 319 78 c 128,-1,8
 348 97 348 97 384 141 c 1,9,-1
 384 486 l 1,10,-1
 467 486 l 1,11,-1
 467 0 l 1,12,-1
 399 0 l 1,13,-1
 392 76 l 1,14,-1
 389 76 l 1,15,16
 314 -12 314 -12 229 -12 c 0,17,18
 80 -12 80 -12 80 178 c 2,0,-1
212 573 m 1,19,-1
 302 714 l 1,20,-1
 388 714 l 1,21,-1
 275 573 l 1,22,-1
 212 573 l 1,19,-1
EndSplineSet
EndChar

StartChar: ucircumflex
Encoding: 251 251 191
Width: 549
GlyphClass: 2
Flags: W
LayerCount: 2
Fore
SplineSet
80 178 m 2,0,-1
 80 486 l 1,1,-1
 163 486 l 1,2,-1
 163 189 l 2,3,4
 163 121 163 121 184.5 90 c 128,-1,5
 206 59 206 59 254 59 c 0,6,7
 290 59 290 59 319 78 c 128,-1,8
 348 97 348 97 384 141 c 1,9,-1
 384 486 l 1,10,-1
 467 486 l 1,11,-1
 467 0 l 1,12,-1
 399 0 l 1,13,-1
 392 76 l 1,14,-1
 389 76 l 1,15,16
 314 -12 314 -12 229 -12 c 0,17,18
 80 -12 80 -12 80 178 c 2,0,-1
149 573 m 1,19,-1
 243 714 l 1,20,-1
 311 714 l 1,21,-1
 406 573 l 1,22,-1
 346 573 l 1,23,-1
 279 664 l 1,24,-1
 275 664 l 1,25,-1
 208 573 l 1,26,-1
 149 573 l 1,19,-1
EndSplineSet
EndChar

StartChar: udieresis
Encoding: 252 252 192
Width: 549
GlyphClass: 2
Flags: W
LayerCount: 2
Fore
SplineSet
80 178 m 2,0,-1
 80 486 l 1,1,-1
 163 486 l 1,2,-1
 163 189 l 2,3,4
 163 121 163 121 184.5 90 c 128,-1,5
 206 59 206 59 254 59 c 0,6,7
 290 59 290 59 319 78 c 128,-1,8
 348 97 348 97 384 141 c 1,9,-1
 384 486 l 1,10,-1
 467 486 l 1,11,-1
 467 0 l 1,12,-1
 399 0 l 1,13,-1
 392 76 l 1,14,-1
 389 76 l 1,15,16
 314 -12 314 -12 229 -12 c 0,17,18
 80 -12 80 -12 80 178 c 2,0,-1
142 637 m 128,-1,20
 142 658 142 658 156 672 c 128,-1,21
 170 686 170 686 191 686 c 128,-1,22
 212 686 212 686 226 672 c 128,-1,23
 240 658 240 658 240 637 c 128,-1,24
 240 616 240 616 226 602 c 128,-1,25
 212 588 212 588 191 588 c 128,-1,26
 170 588 170 588 156 602 c 128,-1,19
 142 616 142 616 142 637 c 128,-1,20
315 637 m 128,-1,28
 315 658 315 658 328.5 672 c 128,-1,29
 342 686 342 686 363 686 c 0,30,31
 385 686 385 686 398.5 672 c 128,-1,32
 412 658 412 658 412 637 c 128,-1,33
 412 616 412 616 398.5 602 c 128,-1,34
 385 588 385 588 363 588 c 0,35,36
 342 588 342 588 328.5 602 c 128,-1,27
 315 616 315 616 315 637 c 128,-1,28
EndSplineSet
EndChar

StartChar: yacute
Encoding: 253 253 193
Width: 467
GlyphClass: 2
Flags: W
LayerCount: 2
Fore
SplineSet
12 486 m 1,0,-1
 97 486 l 1,1,-1
 196 217 l 2,2,3
 216 161 216 161 243 80 c 1,4,-1
 247 80 l 1,5,6
 255 106 255 106 270 156 c 128,-1,7
 285 206 285 206 288 217 c 2,8,-1
 375 486 l 1,9,-1
 455 486 l 1,10,-1
 272 -40 l 2,11,12
 244 -120 244 -120 201.5 -164.5 c 128,-1,13
 159 -209 159 -209 90 -209 c 0,14,15
 60 -209 60 -209 33 -199 c 1,16,-1
 49 -134 l 1,17,18
 72 -141 72 -141 86 -141 c 0,19,20
 161 -141 161 -141 196 -37 c 2,21,-1
 207 -1 l 1,22,-1
 12 486 l 1,0,-1
178 573 m 1,23,-1
 268 714 l 1,24,-1
 354 714 l 1,25,-1
 241 573 l 1,26,-1
 178 573 l 1,23,-1
EndSplineSet
EndChar

StartChar: thorn
Encoding: 254 254 194
Width: 555
GlyphClass: 2
Flags: W
LayerCount: 2
Fore
SplineSet
82 -205 m 1,0,-1
 82 712 l 1,1,-1
 164 712 l 1,2,-1
 164 518 l 1,3,-1
 163 435 l 1,4,5
 243 498 243 498 311 498 c 0,6,7
 405 498 405 498 456 431.5 c 128,-1,8
 507 365 507 365 507 250 c 0,9,10
 507 131 507 131 445.5 59.5 c 128,-1,11
 384 -12 384 -12 297 -12 c 0,12,13
 233 -12 233 -12 163 42 c 1,14,-1
 164 -41 l 1,15,-1
 164 -205 l 1,16,-1
 82 -205 l 1,0,-1
164 108 m 1,17,18
 225 57 225 57 283 57 c 0,19,20
 344 57 344 57 383 109.5 c 128,-1,21
 422 162 422 162 422 250 c 0,22,23
 422 429 422 429 294 429 c 0,24,25
 238 429 238 429 164 363 c 1,26,-1
 164 108 l 1,17,18
EndSplineSet
EndChar

StartChar: ydieresis
Encoding: 255 255 195
Width: 467
GlyphClass: 2
Flags: W
LayerCount: 2
Fore
SplineSet
12 486 m 1,0,-1
 97 486 l 1,1,-1
 196 217 l 2,2,3
 216 161 216 161 243 80 c 1,4,-1
 247 80 l 1,5,6
 255 106 255 106 270 156 c 128,-1,7
 285 206 285 206 288 217 c 2,8,-1
 375 486 l 1,9,-1
 455 486 l 1,10,-1
 272 -40 l 2,11,12
 244 -120 244 -120 201.5 -164.5 c 128,-1,13
 159 -209 159 -209 90 -209 c 0,14,15
 60 -209 60 -209 33 -199 c 1,16,-1
 49 -134 l 1,17,18
 72 -141 72 -141 86 -141 c 0,19,20
 161 -141 161 -141 196 -37 c 2,21,-1
 207 -1 l 1,22,-1
 12 486 l 1,0,-1
108 637 m 128,-1,24
 108 658 108 658 122 672 c 128,-1,25
 136 686 136 686 157 686 c 128,-1,26
 178 686 178 686 192 672 c 128,-1,27
 206 658 206 658 206 637 c 128,-1,28
 206 616 206 616 192 602 c 128,-1,29
 178 588 178 588 157 588 c 128,-1,30
 136 588 136 588 122 602 c 128,-1,23
 108 616 108 616 108 637 c 128,-1,24
281 637 m 128,-1,32
 281 658 281 658 294.5 672 c 128,-1,33
 308 686 308 686 329 686 c 0,34,35
 351 686 351 686 364.5 672 c 128,-1,36
 378 658 378 658 378 637 c 128,-1,37
 378 616 378 616 364.5 602 c 128,-1,38
 351 588 351 588 329 588 c 0,39,40
 308 588 308 588 294.5 602 c 128,-1,31
 281 616 281 616 281 637 c 128,-1,32
EndSplineSet
EndChar

StartChar: Amacron
Encoding: 256 256 196
Width: 538
GlyphClass: 2
Flags: W
LayerCount: 2
Fore
SplineSet
0 0 m 1,0,-1
 222 656 l 1,1,-1
 316 656 l 1,2,-1
 538 0 l 1,3,-1
 450 0 l 1,4,-1
 387 200 l 1,5,-1
 148 200 l 1,6,-1
 85 0 l 1,7,-1
 0 0 l 1,0,-1
144 729 m 1,8,-1
 144 786 l 1,9,-1
 392 786 l 1,10,-1
 392 729 l 1,11,-1
 144 729 l 1,8,-1
169 267 m 1,12,-1
 366 267 l 1,13,-1
 335 367 l 2,14,15
 303 469 303 469 270 588 c 1,16,-1
 266 588 l 1,17,18
 233 469 233 469 201 367 c 2,19,-1
 169 267 l 1,12,-1
EndSplineSet
EndChar

StartChar: amacron
Encoding: 257 257 197
Width: 512
GlyphClass: 2
Flags: W
LayerCount: 2
Fore
SplineSet
58 126 m 0,0,1
 58 205 58 205 129.5 248 c 128,-1,2
 201 291 201 291 357 308 c 1,3,4
 357 430 357 430 257 430 c 0,5,6
 188 430 188 430 112 378 c 1,7,-1
 79 435 l 1,8,9
 177 498 177 498 270 498 c 0,10,11
 438 498 438 498 438 298 c 2,12,-1
 438 0 l 1,13,-1
 371 0 l 1,14,-1
 364 58 l 1,15,-1
 362 58 l 1,16,17
 275 -12 275 -12 201 -12 c 0,18,19
 138 -12 138 -12 98 25 c 128,-1,20
 58 62 58 62 58 126 c 0,0,1
139 132 m 0,21,22
 139 93 139 93 162.5 73.5 c 128,-1,23
 186 54 186 54 224 54 c 0,24,25
 284 54 284 54 357 119 c 1,26,-1
 357 254 l 1,27,28
 239 239 239 239 189 209.5 c 128,-1,29
 139 180 139 180 139 132 c 0,21,22
147 601 m 1,30,-1
 147 658 l 1,31,-1
 392 658 l 1,32,-1
 392 601 l 1,33,-1
 147 601 l 1,30,-1
EndSplineSet
EndChar

StartChar: Abreve
Encoding: 258 258 198
Width: 538
GlyphClass: 2
Flags: W
LayerCount: 2
Fore
SplineSet
0 0 m 1,0,-1
 222 656 l 1,1,-1
 316 656 l 1,2,-1
 538 0 l 1,3,-1
 450 0 l 1,4,-1
 387 200 l 1,5,-1
 148 200 l 1,6,-1
 85 0 l 1,7,-1
 0 0 l 1,0,-1
145 818 m 1,8,-1
 195 818 l 1,9,10
 200 791 200 791 218.5 773 c 128,-1,11
 237 755 237 755 268 755 c 128,-1,12
 299 755 299 755 317.5 773 c 128,-1,13
 336 791 336 791 341 818 c 1,14,-1
 391 818 l 1,15,16
 385 771 385 771 354.5 739.5 c 128,-1,17
 324 708 324 708 268 708 c 128,-1,18
 212 708 212 708 181 739.5 c 128,-1,19
 150 771 150 771 145 818 c 1,8,-1
169 267 m 1,20,-1
 366 267 l 1,21,-1
 335 367 l 2,22,23
 303 469 303 469 270 588 c 1,24,-1
 266 588 l 1,25,26
 233 469 233 469 201 367 c 2,27,-1
 169 267 l 1,20,-1
EndSplineSet
EndChar

StartChar: abreve
Encoding: 259 259 199
Width: 512
GlyphClass: 2
Flags: W
LayerCount: 2
Fore
SplineSet
58 126 m 0,0,1
 58 205 58 205 129.5 248 c 128,-1,2
 201 291 201 291 357 308 c 1,3,4
 357 430 357 430 257 430 c 0,5,6
 188 430 188 430 112 378 c 1,7,-1
 79 435 l 1,8,9
 177 498 177 498 270 498 c 0,10,11
 438 498 438 498 438 298 c 2,12,-1
 438 0 l 1,13,-1
 371 0 l 1,14,-1
 364 58 l 1,15,-1
 362 58 l 1,16,17
 275 -12 275 -12 201 -12 c 0,18,19
 138 -12 138 -12 98 25 c 128,-1,20
 58 62 58 62 58 126 c 0,0,1
139 132 m 0,21,22
 139 93 139 93 162.5 73.5 c 128,-1,23
 186 54 186 54 224 54 c 0,24,25
 284 54 284 54 357 119 c 1,26,-1
 357 254 l 1,27,28
 239 239 239 239 189 209.5 c 128,-1,29
 139 180 139 180 139 132 c 0,21,22
143 702 m 1,30,-1
 194 702 l 1,31,32
 198 670 198 670 217 648 c 128,-1,33
 236 626 236 626 269 626 c 128,-1,34
 302 626 302 626 321 648 c 128,-1,35
 340 670 340 670 344 702 c 1,36,-1
 396 702 l 1,37,38
 392 651 392 651 360 613 c 128,-1,39
 328 575 328 575 269 575 c 128,-1,40
 210 575 210 575 178 613 c 128,-1,41
 146 651 146 651 143 702 c 1,30,-1
EndSplineSet
EndChar

StartChar: Aogonek
Encoding: 260 260 200
Width: 538
GlyphClass: 2
Flags: W
LayerCount: 2
Fore
SplineSet
0 0 m 1,0,-1
 222 656 l 1,1,-1
 316 656 l 1,2,-1
 538 0 l 1,3,4
 504 -14 504 -14 481 -44.5 c 128,-1,5
 458 -75 458 -75 458 -107 c 0,6,7
 458 -129 458 -129 471.5 -141 c 128,-1,8
 485 -153 485 -153 504 -153 c 0,9,10
 527 -153 527 -153 546 -139 c 1,11,-1
 569 -184 l 1,12,13
 534 -212 534 -212 489 -212 c 0,14,15
 448 -212 448 -212 421 -189 c 128,-1,16
 394 -166 394 -166 394 -125 c 0,17,18
 394 -88 394 -88 416.5 -54 c 128,-1,19
 439 -20 439 -20 469 0 c 1,20,-1
 450 0 l 1,21,-1
 387 200 l 1,22,-1
 148 200 l 1,23,-1
 85 0 l 1,24,-1
 0 0 l 1,0,-1
169 267 m 1,25,-1
 366 267 l 1,26,-1
 335 367 l 2,27,28
 303 469 303 469 270 588 c 1,29,-1
 266 588 l 1,30,31
 233 469 233 469 201 367 c 2,32,-1
 169 267 l 1,25,-1
EndSplineSet
EndChar

StartChar: aogonek
Encoding: 261 261 201
Width: 512
GlyphClass: 2
Flags: W
LayerCount: 2
Fore
SplineSet
58 126 m 0,0,1
 58 205 58 205 129.5 248 c 128,-1,2
 201 291 201 291 357 308 c 1,3,4
 357 430 357 430 257 430 c 0,5,6
 188 430 188 430 112 378 c 1,7,-1
 79 435 l 1,8,9
 177 498 177 498 270 498 c 0,10,11
 438 498 438 498 438 298 c 2,12,-1
 438 0 l 1,13,14
 398 -16 398 -16 375 -45.5 c 128,-1,15
 352 -75 352 -75 352 -105 c 0,16,17
 352 -127 352 -127 366 -139 c 128,-1,18
 380 -151 380 -151 399 -151 c 0,19,20
 420 -151 420 -151 439 -138 c 1,21,-1
 460 -179 l 1,22,23
 426 -206 426 -206 382 -206 c 0,24,25
 342 -206 342 -206 317 -184 c 128,-1,26
 292 -162 292 -162 292 -121 c 0,27,28
 292 -83 292 -83 315.5 -50 c 128,-1,29
 339 -17 339 -17 372 4 c 1,30,-1
 364 58 l 1,31,-1
 362 58 l 1,32,33
 275 -12 275 -12 201 -12 c 0,34,35
 138 -12 138 -12 98 25 c 128,-1,36
 58 62 58 62 58 126 c 0,0,1
139 132 m 0,37,38
 139 93 139 93 162.5 73.5 c 128,-1,39
 186 54 186 54 224 54 c 0,40,41
 284 54 284 54 357 119 c 1,42,-1
 357 254 l 1,43,44
 239 239 239 239 189 209.5 c 128,-1,45
 139 180 139 180 139 132 c 0,37,38
EndSplineSet
EndChar

StartChar: Cacute
Encoding: 262 262 202
Width: 566
GlyphClass: 2
Flags: W
LayerCount: 2
Fore
SplineSet
49 328 m 0,0,1
 49 483 49 483 131 575.5 c 128,-1,2
 213 668 213 668 342 668 c 0,3,4
 448 668 448 668 521 587 c 1,5,-1
 474 534 l 1,6,7
 416 595 416 595 343 595 c 0,8,9
 249 595 249 595 192 523.5 c 128,-1,10
 135 452 135 452 135 330 c 0,11,12
 135 206 135 206 190 133.5 c 128,-1,13
 245 61 245 61 339 61 c 0,14,15
 424 61 424 61 489 134 c 1,16,-1
 536 83 l 1,17,18
 455 -12 455 -12 337 -12 c 0,19,20
 210 -12 210 -12 129.5 79.5 c 128,-1,21
 49 171 49 171 49 328 c 0,0,1
277 706 m 1,22,-1
 365 818 l 1,23,-1
 459 818 l 1,24,-1
 346 706 l 1,25,-1
 277 706 l 1,22,-1
EndSplineSet
EndChar

StartChar: cacute
Encoding: 263 263 203
Width: 456
GlyphClass: 2
Flags: W
LayerCount: 2
Fore
SplineSet
46 242 m 128,-1,1
 46 360 46 360 114 429 c 128,-1,2
 182 498 182 498 280 498 c 0,3,4
 360 498 360 498 422 440 c 1,5,-1
 381 387 l 1,6,7
 331 430 331 430 283 430 c 0,8,9
 217 430 217 430 174 377.5 c 128,-1,10
 131 325 131 325 131 242 c 128,-1,11
 131 159 131 159 172.5 107.5 c 128,-1,12
 214 56 214 56 281 56 c 0,13,14
 340 56 340 56 395 105 c 1,15,-1
 432 51 l 1,16,17
 361 -12 361 -12 274 -12 c 0,18,19
 174 -12 174 -12 110 56 c 128,-1,0
 46 124 46 124 46 242 c 128,-1,1
213 573 m 1,20,-1
 304 714 l 1,21,-1
 389 714 l 1,22,-1
 277 573 l 1,23,-1
 213 573 l 1,20,-1
EndSplineSet
EndChar

StartChar: Ccircumflex
Encoding: 264 264 204
Width: 566
GlyphClass: 2
Flags: W
LayerCount: 2
Fore
SplineSet
49 328 m 0,0,1
 49 483 49 483 131 575.5 c 128,-1,2
 213 668 213 668 342 668 c 0,3,4
 448 668 448 668 521 587 c 1,5,-1
 474 534 l 1,6,7
 416 595 416 595 343 595 c 0,8,9
 249 595 249 595 192 523.5 c 128,-1,10
 135 452 135 452 135 330 c 0,11,12
 135 206 135 206 190 133.5 c 128,-1,13
 245 61 245 61 339 61 c 0,14,15
 424 61 424 61 489 134 c 1,16,-1
 536 83 l 1,17,18
 455 -12 455 -12 337 -12 c 0,19,20
 210 -12 210 -12 129.5 79.5 c 128,-1,21
 49 171 49 171 49 328 c 0,0,1
192 706 m 1,22,-1
 288 818 l 1,23,-1
 368 818 l 1,24,-1
 464 706 l 1,25,-1
 397 706 l 1,26,-1
 330 774 l 1,27,-1
 326 774 l 1,28,-1
 259 706 l 1,29,-1
 192 706 l 1,22,-1
EndSplineSet
EndChar

StartChar: ccircumflex
Encoding: 265 265 205
Width: 456
GlyphClass: 2
Flags: W
LayerCount: 2
Fore
SplineSet
46 242 m 128,-1,1
 46 360 46 360 114 429 c 128,-1,2
 182 498 182 498 280 498 c 0,3,4
 360 498 360 498 422 440 c 1,5,-1
 381 387 l 1,6,7
 331 430 331 430 283 430 c 0,8,9
 217 430 217 430 174 377.5 c 128,-1,10
 131 325 131 325 131 242 c 128,-1,11
 131 159 131 159 172.5 107.5 c 128,-1,12
 214 56 214 56 281 56 c 0,13,14
 340 56 340 56 395 105 c 1,15,-1
 432 51 l 1,16,17
 361 -12 361 -12 274 -12 c 0,18,19
 174 -12 174 -12 110 56 c 128,-1,0
 46 124 46 124 46 242 c 128,-1,1
150 573 m 1,20,-1
 245 714 l 1,21,-1
 312 714 l 1,22,-1
 407 573 l 1,23,-1
 348 573 l 1,24,-1
 281 664 l 1,25,-1
 277 664 l 1,26,-1
 210 573 l 1,27,-1
 150 573 l 1,20,-1
EndSplineSet
EndChar

StartChar: Cdotaccent
Encoding: 266 266 206
Width: 566
GlyphClass: 2
Flags: W
LayerCount: 2
Fore
SplineSet
49 328 m 0,0,1
 49 483 49 483 131 575.5 c 128,-1,2
 213 668 213 668 342 668 c 0,3,4
 448 668 448 668 521 587 c 1,5,-1
 474 534 l 1,6,7
 416 595 416 595 343 595 c 0,8,9
 249 595 249 595 192 523.5 c 128,-1,10
 135 452 135 452 135 330 c 0,11,12
 135 206 135 206 190 133.5 c 128,-1,13
 245 61 245 61 339 61 c 0,14,15
 424 61 424 61 489 134 c 1,16,-1
 536 83 l 1,17,18
 455 -12 455 -12 337 -12 c 0,19,20
 210 -12 210 -12 129.5 79.5 c 128,-1,21
 49 171 49 171 49 328 c 0,0,1
271 768 m 0,22,23
 271 791 271 791 287.5 806 c 128,-1,24
 304 821 304 821 328 821 c 128,-1,25
 352 821 352 821 368.5 806 c 128,-1,26
 385 791 385 791 385 768 c 0,27,28
 385 744 385 744 368.5 729 c 128,-1,29
 352 714 352 714 328 714 c 128,-1,30
 304 714 304 714 287.5 729 c 128,-1,31
 271 744 271 744 271 768 c 0,22,23
EndSplineSet
EndChar

StartChar: cdotaccent
Encoding: 267 267 207
Width: 456
GlyphClass: 2
Flags: W
LayerCount: 2
Fore
SplineSet
46 242 m 128,-1,1
 46 360 46 360 114 429 c 128,-1,2
 182 498 182 498 280 498 c 0,3,4
 360 498 360 498 422 440 c 1,5,-1
 381 387 l 1,6,7
 331 430 331 430 283 430 c 0,8,9
 217 430 217 430 174 377.5 c 128,-1,10
 131 325 131 325 131 242 c 128,-1,11
 131 159 131 159 172.5 107.5 c 128,-1,12
 214 56 214 56 281 56 c 0,13,14
 340 56 340 56 395 105 c 1,15,-1
 432 51 l 1,16,17
 361 -12 361 -12 274 -12 c 0,18,19
 174 -12 174 -12 110 56 c 128,-1,0
 46 124 46 124 46 242 c 128,-1,1
224 640 m 0,20,21
 224 663 224 663 239.5 678.5 c 128,-1,22
 255 694 255 694 279 694 c 0,23,24
 302 694 302 694 317.5 678.5 c 128,-1,25
 333 663 333 663 333 640 c 0,26,27
 333 616 333 616 317.5 601 c 128,-1,28
 302 586 302 586 279 586 c 0,29,30
 255 586 255 586 239.5 601 c 128,-1,31
 224 616 224 616 224 640 c 0,20,21
EndSplineSet
EndChar

StartChar: Ccaron
Encoding: 268 268 208
Width: 566
GlyphClass: 2
Flags: W
LayerCount: 2
Fore
SplineSet
49 328 m 0,0,1
 49 483 49 483 131 575.5 c 128,-1,2
 213 668 213 668 342 668 c 0,3,4
 448 668 448 668 521 587 c 1,5,-1
 474 534 l 1,6,7
 416 595 416 595 343 595 c 0,8,9
 249 595 249 595 192 523.5 c 128,-1,10
 135 452 135 452 135 330 c 0,11,12
 135 206 135 206 190 133.5 c 128,-1,13
 245 61 245 61 339 61 c 0,14,15
 424 61 424 61 489 134 c 1,16,-1
 536 83 l 1,17,18
 455 -12 455 -12 337 -12 c 0,19,20
 210 -12 210 -12 129.5 79.5 c 128,-1,21
 49 171 49 171 49 328 c 0,0,1
192 818 m 1,22,-1
 259 818 l 1,23,-1
 326 750 l 1,24,-1
 330 750 l 1,25,-1
 397 818 l 1,26,-1
 464 818 l 1,27,-1
 368 706 l 1,28,-1
 288 706 l 1,29,-1
 192 818 l 1,22,-1
EndSplineSet
EndChar

StartChar: ccaron
Encoding: 269 269 209
Width: 456
GlyphClass: 2
Flags: W
LayerCount: 2
Fore
SplineSet
46 242 m 128,-1,1
 46 360 46 360 114 429 c 128,-1,2
 182 498 182 498 280 498 c 0,3,4
 360 498 360 498 422 440 c 1,5,-1
 381 387 l 1,6,7
 331 430 331 430 283 430 c 0,8,9
 217 430 217 430 174 377.5 c 128,-1,10
 131 325 131 325 131 242 c 128,-1,11
 131 159 131 159 172.5 107.5 c 128,-1,12
 214 56 214 56 281 56 c 0,13,14
 340 56 340 56 395 105 c 1,15,-1
 432 51 l 1,16,17
 361 -12 361 -12 274 -12 c 0,18,19
 174 -12 174 -12 110 56 c 128,-1,0
 46 124 46 124 46 242 c 128,-1,1
150 714 m 1,20,-1
 210 714 l 1,21,-1
 277 622 l 1,22,-1
 281 622 l 1,23,-1
 348 714 l 1,24,-1
 407 714 l 1,25,-1
 312 573 l 1,26,-1
 245 573 l 1,27,-1
 150 714 l 1,20,-1
EndSplineSet
EndChar

StartChar: Dcaron
Encoding: 270 270 210
Width: 609
GlyphClass: 2
Flags: W
LayerCount: 2
Fore
SplineSet
85 0 m 1,0,-1
 85 656 l 1,1,-1
 249 656 l 2,2,3
 400 656 400 656 479.5 572 c 128,-1,4
 559 488 559 488 559 331 c 0,5,6
 559 173 559 173 480 86.5 c 128,-1,7
 401 0 401 0 253 0 c 2,8,-1
 85 0 l 1,0,-1
167 818 m 1,9,-1
 234 818 l 1,10,-1
 301 750 l 1,11,-1
 305 750 l 1,12,-1
 372 818 l 1,13,-1
 439 818 l 1,14,-1
 343 706 l 1,15,-1
 263 706 l 1,16,-1
 167 818 l 1,9,-1
168 68 m 1,17,-1
 243 68 l 2,18,19
 356 68 356 68 414.5 136.5 c 128,-1,20
 473 205 473 205 473 331 c 0,21,22
 473 456 473 456 415 522 c 128,-1,23
 357 588 357 588 243 588 c 2,24,-1
 168 588 l 1,25,-1
 168 68 l 1,17,-1
EndSplineSet
EndChar

StartChar: dcaron
Encoding: 271 271 211
Width: 573
GlyphClass: 2
Flags: W
LayerCount: 2
Fore
SplineSet
47 242 m 0,0,1
 47 357 47 357 109 427.5 c 128,-1,2
 171 498 171 498 258 498 c 0,3,4
 325 498 325 498 394 442 c 1,5,-1
 390 525 l 1,6,-1
 390 712 l 1,7,-1
 473 712 l 1,8,-1
 473 0 l 1,9,-1
 405 0 l 1,10,-1
 398 57 l 1,11,-1
 395 57 l 1,12,13
 324 -12 324 -12 248 -12 c 0,14,15
 155 -12 155 -12 101 55 c 128,-1,16
 47 122 47 122 47 242 c 0,0,1
132 243 m 0,17,18
 132 156 132 156 167.5 106.5 c 128,-1,19
 203 57 203 57 266 57 c 0,20,21
 330 57 330 57 390 124 c 1,22,-1
 390 378 l 1,23,24
 333 429 333 429 272 429 c 0,25,26
 213 429 213 429 172.5 377 c 128,-1,27
 132 325 132 325 132 243 c 0,17,18
526 760 m 1,28,-1
 585 760 l 1,29,-1
 584 703 l 1,30,-1
 570 548 l 1,31,-1
 530 548 l 1,32,-1
 526 760 l 1,28,-1
EndSplineSet
EndChar

StartChar: Dcroat
Encoding: 272 272 212
Width: 631
GlyphClass: 2
Flags: W
LayerCount: 2
Fore
SplineSet
30 321 m 1,0,-1
 30 364 l 1,1,-1
 106 368 l 1,2,-1
 106 656 l 1,3,-1
 270 656 l 2,4,5
 421 656 421 656 500.5 572 c 128,-1,6
 580 488 580 488 580 331 c 0,7,8
 580 173 580 173 501 86.5 c 128,-1,9
 422 0 422 0 274 0 c 2,10,-1
 106 0 l 1,11,-1
 106 321 l 1,12,-1
 30 321 l 1,0,-1
190 68 m 1,13,-1
 264 68 l 2,14,15
 378 68 378 68 436 136.5 c 128,-1,16
 494 205 494 205 494 331 c 0,17,18
 494 456 494 456 436 522 c 128,-1,19
 378 588 378 588 264 588 c 2,20,-1
 190 588 l 1,21,-1
 190 368 l 1,22,-1
 341 368 l 1,23,-1
 341 321 l 1,24,-1
 190 321 l 1,25,-1
 190 68 l 1,13,-1
EndSplineSet
EndChar

StartChar: dcroat
Encoding: 273 273 213
Width: 555
GlyphClass: 2
Flags: W
LayerCount: 2
Fore
SplineSet
47 232 m 0,0,1
 47 342 47 342 109 410 c 128,-1,2
 171 478 171 478 258 478 c 0,3,4
 325 478 325 478 394 422 c 1,5,-1
 390 505 l 1,6,-1
 390 571 l 1,7,-1
 229 571 l 1,8,-1
 229 619 l 1,9,-1
 390 619 l 1,10,-1
 390 712 l 1,11,-1
 473 712 l 1,12,-1
 473 619 l 1,13,-1
 545 619 l 1,14,-1
 545 576 l 1,15,-1
 473 571 l 1,16,-1
 473 0 l 1,17,-1
 403 0 l 1,18,-1
 397 55 l 1,19,-1
 394 55 l 1,20,21
 327 -12 327 -12 248 -12 c 0,22,23
 155 -12 155 -12 101 52 c 128,-1,24
 47 116 47 116 47 232 c 0,0,1
132 233 m 0,25,26
 132 150 132 150 167 103.5 c 128,-1,27
 202 57 202 57 266 57 c 128,-1,28
 330 57 330 57 390 124 c 1,29,-1
 390 358 l 1,30,31
 333 409 333 409 272 409 c 0,32,33
 213 409 213 409 172.5 360 c 128,-1,34
 132 311 132 311 132 233 c 0,25,26
EndSplineSet
EndChar

StartChar: Emacron
Encoding: 274 274 214
Width: 522
GlyphClass: 2
Flags: W
LayerCount: 2
Fore
SplineSet
87 0 m 1,0,-1
 87 656 l 1,1,-1
 465 656 l 1,2,-1
 465 586 l 1,3,-1
 171 586 l 1,4,-1
 171 380 l 1,5,-1
 419 380 l 1,6,-1
 419 309 l 1,7,-1
 171 309 l 1,8,-1
 171 71 l 1,9,-1
 475 71 l 1,10,-1
 475 0 l 1,11,-1
 87 0 l 1,0,-1
158 729 m 1,12,-1
 158 786 l 1,13,-1
 406 786 l 1,14,-1
 406 729 l 1,15,-1
 158 729 l 1,12,-1
EndSplineSet
EndChar

StartChar: emacron
Encoding: 275 275 215
Width: 499
GlyphClass: 2
Flags: W
LayerCount: 2
Fore
SplineSet
46 242 m 0,0,1
 46 356 46 356 111 427 c 128,-1,2
 176 498 176 498 264 498 c 0,3,4
 356 498 356 498 407 436.5 c 128,-1,5
 458 375 458 375 458 270 c 0,6,7
 458 243 458 243 455 225 c 1,8,-1
 127 225 l 1,9,10
 131 146 131 146 175 100 c 128,-1,11
 219 54 219 54 289 54 c 0,12,13
 351 54 351 54 410 92 c 1,14,-1
 439 38 l 1,15,16
 361 -12 361 -12 279 -12 c 0,17,18
 179 -12 179 -12 112.5 57 c 128,-1,19
 46 126 46 126 46 242 c 0,0,1
126 279 m 1,20,-1
 386 279 l 1,21,22
 386 353 386 353 354.5 393 c 128,-1,23
 323 433 323 433 266 433 c 0,24,25
 213 433 213 433 173 391.5 c 128,-1,26
 133 350 133 350 126 279 c 1,20,-1
142 601 m 1,27,-1
 142 658 l 1,28,-1
 387 658 l 1,29,-1
 387 601 l 1,30,-1
 142 601 l 1,27,-1
EndSplineSet
EndChar

StartChar: Ebreve
Encoding: 276 276 216
Width: 522
GlyphClass: 2
Flags: W
LayerCount: 2
Fore
SplineSet
87 0 m 1,0,-1
 87 656 l 1,1,-1
 465 656 l 1,2,-1
 465 586 l 1,3,-1
 171 586 l 1,4,-1
 171 380 l 1,5,-1
 419 380 l 1,6,-1
 419 309 l 1,7,-1
 171 309 l 1,8,-1
 171 71 l 1,9,-1
 475 71 l 1,10,-1
 475 0 l 1,11,-1
 87 0 l 1,0,-1
159 818 m 1,12,-1
 209 818 l 1,13,14
 214 791 214 791 232.5 773 c 128,-1,15
 251 755 251 755 282 755 c 128,-1,16
 313 755 313 755 331.5 773 c 128,-1,17
 350 791 350 791 355 818 c 1,18,-1
 405 818 l 1,19,20
 399 771 399 771 368.5 739.5 c 128,-1,21
 338 708 338 708 282 708 c 128,-1,22
 226 708 226 708 195 739.5 c 128,-1,23
 164 771 164 771 159 818 c 1,12,-1
EndSplineSet
EndChar

StartChar: ebreve
Encoding: 277 277 217
Width: 499
GlyphClass: 2
Flags: W
LayerCount: 2
Fore
SplineSet
46 242 m 0,0,1
 46 356 46 356 111 427 c 128,-1,2
 176 498 176 498 264 498 c 0,3,4
 356 498 356 498 407 436.5 c 128,-1,5
 458 375 458 375 458 270 c 0,6,7
 458 243 458 243 455 225 c 1,8,-1
 127 225 l 1,9,10
 131 146 131 146 175 100 c 128,-1,11
 219 54 219 54 289 54 c 0,12,13
 351 54 351 54 410 92 c 1,14,-1
 439 38 l 1,15,16
 361 -12 361 -12 279 -12 c 0,17,18
 179 -12 179 -12 112.5 57 c 128,-1,19
 46 126 46 126 46 242 c 0,0,1
126 279 m 1,20,-1
 386 279 l 1,21,22
 386 353 386 353 354.5 393 c 128,-1,23
 323 433 323 433 266 433 c 0,24,25
 213 433 213 433 173 391.5 c 128,-1,26
 133 350 133 350 126 279 c 1,20,-1
138 702 m 1,27,-1
 189 702 l 1,28,29
 193 670 193 670 212.5 648 c 128,-1,30
 232 626 232 626 264 626 c 0,31,32
 297 626 297 626 316 647.5 c 128,-1,33
 335 669 335 669 340 702 c 1,34,-1
 391 702 l 1,35,36
 387 651 387 651 355 613 c 128,-1,37
 323 575 323 575 264 575 c 128,-1,38
 205 575 205 575 173.5 613 c 128,-1,39
 142 651 142 651 138 702 c 1,27,-1
EndSplineSet
EndChar

StartChar: Edotaccent
Encoding: 278 278 218
Width: 522
GlyphClass: 2
Flags: W
LayerCount: 2
Fore
SplineSet
87 0 m 1,0,-1
 87 656 l 1,1,-1
 465 656 l 1,2,-1
 465 586 l 1,3,-1
 171 586 l 1,4,-1
 171 380 l 1,5,-1
 419 380 l 1,6,-1
 419 309 l 1,7,-1
 171 309 l 1,8,-1
 171 71 l 1,9,-1
 475 71 l 1,10,-1
 475 0 l 1,11,-1
 87 0 l 1,0,-1
225 768 m 0,12,13
 225 791 225 791 241.5 806 c 128,-1,14
 258 821 258 821 282 821 c 128,-1,15
 306 821 306 821 322.5 806 c 128,-1,16
 339 791 339 791 339 768 c 0,17,18
 339 744 339 744 322.5 729 c 128,-1,19
 306 714 306 714 282 714 c 128,-1,20
 258 714 258 714 241.5 729 c 128,-1,21
 225 744 225 744 225 768 c 0,12,13
EndSplineSet
EndChar

StartChar: edotaccent
Encoding: 279 279 219
Width: 499
GlyphClass: 2
Flags: W
LayerCount: 2
Fore
SplineSet
46 242 m 0,0,1
 46 356 46 356 111 427 c 128,-1,2
 176 498 176 498 264 498 c 0,3,4
 356 498 356 498 407 436.5 c 128,-1,5
 458 375 458 375 458 270 c 0,6,7
 458 243 458 243 455 225 c 1,8,-1
 127 225 l 1,9,10
 131 146 131 146 175 100 c 128,-1,11
 219 54 219 54 289 54 c 0,12,13
 351 54 351 54 410 92 c 1,14,-1
 439 38 l 1,15,16
 361 -12 361 -12 279 -12 c 0,17,18
 179 -12 179 -12 112.5 57 c 128,-1,19
 46 126 46 126 46 242 c 0,0,1
126 279 m 1,20,-1
 386 279 l 1,21,22
 386 353 386 353 354.5 393 c 128,-1,23
 323 433 323 433 266 433 c 0,24,25
 213 433 213 433 173 391.5 c 128,-1,26
 133 350 133 350 126 279 c 1,20,-1
210 640 m 0,27,28
 210 663 210 663 225.5 678.5 c 128,-1,29
 241 694 241 694 264 694 c 0,30,31
 288 694 288 694 303 678.5 c 128,-1,32
 318 663 318 663 318 640 c 0,33,34
 318 616 318 616 303 601 c 128,-1,35
 288 586 288 586 264 586 c 0,36,37
 241 586 241 586 225.5 601 c 128,-1,38
 210 616 210 616 210 640 c 0,27,28
EndSplineSet
EndChar

StartChar: Eogonek
Encoding: 280 280 220
Width: 522
GlyphClass: 2
Flags: W
LayerCount: 2
Fore
SplineSet
87 0 m 1,0,-1
 87 656 l 1,1,-1
 465 656 l 1,2,-1
 465 586 l 1,3,-1
 171 586 l 1,4,-1
 171 380 l 1,5,-1
 419 380 l 1,6,-1
 419 309 l 1,7,-1
 171 309 l 1,8,-1
 171 71 l 1,9,-1
 475 71 l 1,10,-1
 475 0 l 1,11,-1
 472 0 l 1,12,13
 437 -5 437 -5 408.5 -36.5 c 128,-1,14
 380 -68 380 -68 380 -107 c 0,15,16
 380 -129 380 -129 394 -141 c 128,-1,17
 408 -153 408 -153 428 -153 c 0,18,19
 449 -153 449 -153 468 -139 c 1,20,-1
 491 -184 l 1,21,22
 456 -212 456 -212 411 -212 c 0,23,24
 370 -212 370 -212 343 -189 c 128,-1,25
 316 -166 316 -166 316 -125 c 0,26,27
 316 -86 316 -86 338 -53 c 128,-1,28
 360 -20 360 -20 391 0 c 1,29,-1
 87 0 l 1,0,-1
EndSplineSet
EndChar

StartChar: eogonek
Encoding: 281 281 221
Width: 499
GlyphClass: 2
Flags: W
LayerCount: 2
Fore
SplineSet
46 242 m 0,0,1
 46 356 46 356 111 427 c 128,-1,2
 176 498 176 498 264 498 c 0,3,4
 356 498 356 498 407 436.5 c 128,-1,5
 458 375 458 375 458 270 c 0,6,7
 458 243 458 243 455 225 c 1,8,-1
 127 225 l 1,9,10
 131 146 131 146 175 100 c 128,-1,11
 219 54 219 54 289 54 c 0,12,13
 351 54 351 54 410 92 c 1,14,-1
 439 38 l 1,15,16
 376 -7 376 -7 352 -39.5 c 128,-1,17
 328 -72 328 -72 328 -105 c 0,18,19
 328 -127 328 -127 341.5 -139 c 128,-1,20
 355 -151 355 -151 375 -151 c 0,21,22
 396 -151 396 -151 415 -138 c 1,23,-1
 436 -179 l 1,24,25
 402 -206 402 -206 358 -206 c 0,26,27
 318 -206 318 -206 293 -184 c 128,-1,28
 268 -162 268 -162 268 -121 c 0,29,30
 268 -58 268 -58 328 -5 c 1,31,32
 308 -12 308 -12 279 -12 c 0,33,34
 179 -12 179 -12 112.5 57 c 128,-1,35
 46 126 46 126 46 242 c 0,0,1
126 279 m 1,36,-1
 386 279 l 1,37,38
 386 353 386 353 355 393 c 128,-1,39
 324 433 324 433 266 433 c 0,40,41
 213 433 213 433 173 391.5 c 128,-1,42
 133 350 133 350 126 279 c 1,36,-1
EndSplineSet
EndChar

StartChar: Ecaron
Encoding: 282 282 222
Width: 522
GlyphClass: 2
Flags: W
LayerCount: 2
Fore
SplineSet
87 0 m 1,0,-1
 87 656 l 1,1,-1
 465 656 l 1,2,-1
 465 586 l 1,3,-1
 171 586 l 1,4,-1
 171 380 l 1,5,-1
 419 380 l 1,6,-1
 419 309 l 1,7,-1
 171 309 l 1,8,-1
 171 71 l 1,9,-1
 475 71 l 1,10,-1
 475 0 l 1,11,-1
 87 0 l 1,0,-1
146 818 m 1,12,-1
 213 818 l 1,13,-1
 280 750 l 1,14,-1
 284 750 l 1,15,-1
 351 818 l 1,16,-1
 418 818 l 1,17,-1
 322 706 l 1,18,-1
 242 706 l 1,19,-1
 146 818 l 1,12,-1
EndSplineSet
EndChar

StartChar: ecaron
Encoding: 283 283 223
Width: 499
GlyphClass: 2
Flags: W
LayerCount: 2
Fore
SplineSet
46 242 m 0,0,1
 46 356 46 356 111 427 c 128,-1,2
 176 498 176 498 264 498 c 0,3,4
 356 498 356 498 407 436.5 c 128,-1,5
 458 375 458 375 458 270 c 0,6,7
 458 243 458 243 455 225 c 1,8,-1
 127 225 l 1,9,10
 131 146 131 146 175 100 c 128,-1,11
 219 54 219 54 289 54 c 0,12,13
 351 54 351 54 410 92 c 1,14,-1
 439 38 l 1,15,16
 361 -12 361 -12 279 -12 c 0,17,18
 179 -12 179 -12 112.5 57 c 128,-1,19
 46 126 46 126 46 242 c 0,0,1
126 279 m 1,20,-1
 386 279 l 1,21,22
 386 353 386 353 354.5 393 c 128,-1,23
 323 433 323 433 266 433 c 0,24,25
 213 433 213 433 173 391.5 c 128,-1,26
 133 350 133 350 126 279 c 1,20,-1
136 714 m 1,27,-1
 195 714 l 1,28,-1
 262 622 l 1,29,-1
 266 622 l 1,30,-1
 333 714 l 1,31,-1
 393 714 l 1,32,-1
 298 573 l 1,33,-1
 231 573 l 1,34,-1
 136 714 l 1,27,-1
EndSplineSet
EndChar

StartChar: Gcircumflex
Encoding: 284 284 224
Width: 612
GlyphClass: 2
Flags: W
LayerCount: 2
Fore
SplineSet
49 328 m 0,0,1
 49 484 49 484 133.5 576 c 128,-1,2
 218 668 218 668 352 668 c 0,3,4
 461 668 461 668 540 587 c 1,5,-1
 492 534 l 1,6,7
 434 595 434 595 353 595 c 0,8,9
 253 595 253 595 194 523.5 c 128,-1,10
 135 452 135 452 135 330 c 0,11,12
 135 205 135 205 192 133 c 128,-1,13
 249 61 249 61 353 61 c 0,14,15
 430 61 430 61 472 100 c 1,16,-1
 472 271 l 1,17,-1
 333 271 l 1,18,-1
 333 340 l 1,19,-1
 548 340 l 1,20,-1
 548 64 l 1,21,22
 470 -12 470 -12 344 -12 c 0,23,24
 213 -12 213 -12 131 79 c 128,-1,25
 49 170 49 170 49 328 c 0,0,1
215 706 m 1,26,-1
 311 818 l 1,27,-1
 391 818 l 1,28,-1
 487 706 l 1,29,-1
 420 706 l 1,30,-1
 353 774 l 1,31,-1
 349 774 l 1,32,-1
 282 706 l 1,33,-1
 215 706 l 1,26,-1
EndSplineSet
EndChar

StartChar: gcircumflex
Encoding: 285 285 225
Width: 504
GlyphClass: 2
Flags: W
LayerCount: 2
Fore
SplineSet
45 -93 m 128,-1,1
 45 -31 45 -31 116 17 c 1,2,-1
 116 21 l 1,3,4
 73 48 73 48 73 100 c 0,5,6
 73 154 73 154 126 190 c 1,7,-1
 126 194 l 1,8,9
 63 245 63 245 63 325 c 0,10,11
 63 402 63 402 116 450 c 128,-1,12
 169 498 169 498 246 498 c 0,13,14
 284 498 284 498 315 486 c 1,15,-1
 484 486 l 1,16,-1
 484 423 l 1,17,-1
 384 423 l 1,18,19
 424 385 424 385 424 323 c 0,20,21
 424 247 424 247 373 200.5 c 128,-1,22
 322 154 322 154 246 154 c 0,23,24
 207 154 207 154 173 171 c 1,25,26
 142 144 142 144 142 113 c 0,27,28
 142 60 142 60 228 60 c 2,29,-1
 322 60 l 2,30,31
 408 60 408 60 450 32 c 128,-1,32
 492 4 492 4 492 -56 c 0,33,34
 492 -126 492 -126 424 -175 c 128,-1,35
 356 -224 356 -224 246 -224 c 0,36,37
 155 -224 155 -224 100 -189.5 c 128,-1,0
 45 -155 45 -155 45 -93 c 128,-1,1
111 573 m 1,38,-1
 206 714 l 1,39,-1
 273 714 l 1,40,-1
 368 573 l 1,41,-1
 309 573 l 1,42,-1
 242 664 l 1,43,-1
 238 664 l 1,44,-1
 171 573 l 1,45,-1
 111 573 l 1,38,-1
117 -82 m 0,46,47
 117 -121 117 -121 154.5 -144 c 128,-1,48
 192 -167 192 -167 258 -167 c 0,49,50
 325 -167 325 -167 368.5 -137.5 c 128,-1,51
 412 -108 412 -108 412 -68 c 0,52,53
 412 -35 412 -35 387.5 -21.5 c 128,-1,54
 363 -8 363 -8 314 -8 c 2,55,-1
 230 -8 l 2,56,57
 195 -8 195 -8 167 0 c 1,58,59
 117 -36 117 -36 117 -82 c 0,46,47
143 325 m 128,-1,61
 143 273 143 273 173 241 c 128,-1,62
 203 209 203 209 246 209 c 128,-1,63
 289 209 289 209 319 241 c 128,-1,64
 349 273 349 273 349 325 c 128,-1,65
 349 377 349 377 319.5 407.5 c 128,-1,66
 290 438 290 438 246 438 c 128,-1,67
 202 438 202 438 172.5 407.5 c 128,-1,60
 143 377 143 377 143 325 c 128,-1,61
EndSplineSet
EndChar

StartChar: Gbreve
Encoding: 286 286 226
Width: 612
GlyphClass: 2
Flags: W
LayerCount: 2
Fore
SplineSet
49 328 m 0,0,1
 49 484 49 484 133.5 576 c 128,-1,2
 218 668 218 668 352 668 c 0,3,4
 461 668 461 668 540 587 c 1,5,-1
 492 534 l 1,6,7
 434 595 434 595 353 595 c 0,8,9
 253 595 253 595 194 523.5 c 128,-1,10
 135 452 135 452 135 330 c 0,11,12
 135 205 135 205 192 133 c 128,-1,13
 249 61 249 61 353 61 c 0,14,15
 430 61 430 61 472 100 c 1,16,-1
 472 271 l 1,17,-1
 333 271 l 1,18,-1
 333 340 l 1,19,-1
 548 340 l 1,20,-1
 548 64 l 1,21,22
 470 -12 470 -12 344 -12 c 0,23,24
 213 -12 213 -12 131 79 c 128,-1,25
 49 170 49 170 49 328 c 0,0,1
228 818 m 1,26,-1
 278 818 l 1,27,28
 283 791 283 791 301.5 773 c 128,-1,29
 320 755 320 755 351 755 c 128,-1,30
 382 755 382 755 400.5 773 c 128,-1,31
 419 791 419 791 424 818 c 1,32,-1
 474 818 l 1,33,34
 468 771 468 771 437.5 739.5 c 128,-1,35
 407 708 407 708 351 708 c 128,-1,36
 295 708 295 708 264.5 739.5 c 128,-1,37
 234 771 234 771 228 818 c 1,26,-1
EndSplineSet
EndChar

StartChar: gbreve
Encoding: 287 287 227
Width: 504
GlyphClass: 2
Flags: W
LayerCount: 2
Fore
SplineSet
45 -93 m 128,-1,1
 45 -31 45 -31 116 17 c 1,2,-1
 116 21 l 1,3,4
 73 48 73 48 73 100 c 0,5,6
 73 154 73 154 126 190 c 1,7,-1
 126 194 l 1,8,9
 63 245 63 245 63 325 c 0,10,11
 63 402 63 402 116 450 c 128,-1,12
 169 498 169 498 246 498 c 0,13,14
 284 498 284 498 315 486 c 1,15,-1
 484 486 l 1,16,-1
 484 423 l 1,17,-1
 384 423 l 1,18,19
 424 385 424 385 424 323 c 0,20,21
 424 247 424 247 373 200.5 c 128,-1,22
 322 154 322 154 246 154 c 0,23,24
 207 154 207 154 173 171 c 1,25,26
 142 144 142 144 142 113 c 0,27,28
 142 60 142 60 228 60 c 2,29,-1
 322 60 l 2,30,31
 408 60 408 60 450 32 c 128,-1,32
 492 4 492 4 492 -56 c 0,33,34
 492 -126 492 -126 424 -175 c 128,-1,35
 356 -224 356 -224 246 -224 c 0,36,37
 155 -224 155 -224 100 -189.5 c 128,-1,0
 45 -155 45 -155 45 -93 c 128,-1,1
113 702 m 1,38,-1
 164 702 l 1,39,40
 169 669 169 669 188 647.5 c 128,-1,41
 207 626 207 626 240 626 c 0,42,43
 272 626 272 626 291.5 648 c 128,-1,44
 311 670 311 670 315 702 c 1,45,-1
 366 702 l 1,46,47
 362 651 362 651 330.5 613 c 128,-1,48
 299 575 299 575 240 575 c 128,-1,49
 181 575 181 575 149 613 c 128,-1,50
 117 651 117 651 113 702 c 1,38,-1
117 -82 m 0,51,52
 117 -121 117 -121 154.5 -144 c 128,-1,53
 192 -167 192 -167 258 -167 c 0,54,55
 325 -167 325 -167 368.5 -137.5 c 128,-1,56
 412 -108 412 -108 412 -68 c 0,57,58
 412 -35 412 -35 387.5 -21.5 c 128,-1,59
 363 -8 363 -8 314 -8 c 2,60,-1
 230 -8 l 2,61,62
 195 -8 195 -8 167 0 c 1,63,64
 117 -36 117 -36 117 -82 c 0,51,52
143 325 m 128,-1,66
 143 273 143 273 173 241 c 128,-1,67
 203 209 203 209 246 209 c 128,-1,68
 289 209 289 209 319 241 c 128,-1,69
 349 273 349 273 349 325 c 128,-1,70
 349 377 349 377 319.5 407.5 c 128,-1,71
 290 438 290 438 246 438 c 128,-1,72
 202 438 202 438 172.5 407.5 c 128,-1,65
 143 377 143 377 143 325 c 128,-1,66
EndSplineSet
EndChar

StartChar: Gdotaccent
Encoding: 288 288 228
Width: 612
GlyphClass: 2
Flags: W
LayerCount: 2
Fore
SplineSet
49 328 m 0,0,1
 49 484 49 484 133.5 576 c 128,-1,2
 218 668 218 668 352 668 c 0,3,4
 461 668 461 668 540 587 c 1,5,-1
 492 534 l 1,6,7
 434 595 434 595 353 595 c 0,8,9
 253 595 253 595 194 523.5 c 128,-1,10
 135 452 135 452 135 330 c 0,11,12
 135 205 135 205 192 133 c 128,-1,13
 249 61 249 61 353 61 c 0,14,15
 430 61 430 61 472 100 c 1,16,-1
 472 271 l 1,17,-1
 333 271 l 1,18,-1
 333 340 l 1,19,-1
 548 340 l 1,20,-1
 548 64 l 1,21,22
 470 -12 470 -12 344 -12 c 0,23,24
 213 -12 213 -12 131 79 c 128,-1,25
 49 170 49 170 49 328 c 0,0,1
294 768 m 0,26,27
 294 791 294 791 310.5 806 c 128,-1,28
 327 821 327 821 351 821 c 128,-1,29
 375 821 375 821 391.5 806 c 128,-1,30
 408 791 408 791 408 768 c 0,31,32
 408 744 408 744 391.5 729 c 128,-1,33
 375 714 375 714 351 714 c 128,-1,34
 327 714 327 714 310.5 729 c 128,-1,35
 294 744 294 744 294 768 c 0,26,27
EndSplineSet
EndChar

StartChar: gdotaccent
Encoding: 289 289 229
Width: 504
GlyphClass: 2
Flags: W
LayerCount: 2
Fore
SplineSet
45 -93 m 128,-1,1
 45 -31 45 -31 116 17 c 1,2,-1
 116 21 l 1,3,4
 73 48 73 48 73 100 c 0,5,6
 73 154 73 154 126 190 c 1,7,-1
 126 194 l 1,8,9
 63 245 63 245 63 325 c 0,10,11
 63 402 63 402 116 450 c 128,-1,12
 169 498 169 498 246 498 c 0,13,14
 284 498 284 498 315 486 c 1,15,-1
 484 486 l 1,16,-1
 484 423 l 1,17,-1
 384 423 l 1,18,19
 424 385 424 385 424 323 c 0,20,21
 424 247 424 247 373 200.5 c 128,-1,22
 322 154 322 154 246 154 c 0,23,24
 207 154 207 154 173 171 c 1,25,26
 142 144 142 144 142 113 c 0,27,28
 142 60 142 60 228 60 c 2,29,-1
 322 60 l 2,30,31
 408 60 408 60 450 32 c 128,-1,32
 492 4 492 4 492 -56 c 0,33,34
 492 -126 492 -126 424 -175 c 128,-1,35
 356 -224 356 -224 246 -224 c 0,36,37
 155 -224 155 -224 100 -189.5 c 128,-1,0
 45 -155 45 -155 45 -93 c 128,-1,1
117 -82 m 0,38,39
 117 -121 117 -121 154.5 -144 c 128,-1,40
 192 -167 192 -167 258 -167 c 0,41,42
 325 -167 325 -167 368.5 -137.5 c 128,-1,43
 412 -108 412 -108 412 -68 c 0,44,45
 412 -35 412 -35 387.5 -21.5 c 128,-1,46
 363 -8 363 -8 314 -8 c 2,47,-1
 230 -8 l 2,48,49
 195 -8 195 -8 167 0 c 1,50,51
 117 -36 117 -36 117 -82 c 0,38,39
143 325 m 128,-1,53
 143 273 143 273 173 241 c 128,-1,54
 203 209 203 209 246 209 c 128,-1,55
 289 209 289 209 319 241 c 128,-1,56
 349 273 349 273 349 325 c 128,-1,57
 349 377 349 377 319.5 407.5 c 128,-1,58
 290 438 290 438 246 438 c 128,-1,59
 202 438 202 438 172.5 407.5 c 128,-1,52
 143 377 143 377 143 325 c 128,-1,53
185 640 m 0,60,61
 185 663 185 663 200.5 678.5 c 128,-1,62
 216 694 216 694 240 694 c 0,63,64
 263 694 263 694 278.5 678.5 c 128,-1,65
 294 663 294 663 294 640 c 0,66,67
 294 616 294 616 278.5 601 c 128,-1,68
 263 586 263 586 240 586 c 0,69,70
 216 586 216 586 200.5 601 c 128,-1,71
 185 616 185 616 185 640 c 0,60,61
EndSplineSet
EndChar

StartChar: uni0122
Encoding: 290 290 230
Width: 612
GlyphClass: 2
Flags: W
LayerCount: 2
Fore
SplineSet
49 328 m 0,0,1
 49 484 49 484 133.5 576 c 128,-1,2
 218 668 218 668 352 668 c 0,3,4
 461 668 461 668 540 587 c 1,5,-1
 492 534 l 1,6,7
 434 595 434 595 353 595 c 0,8,9
 253 595 253 595 194 523.5 c 128,-1,10
 135 452 135 452 135 330 c 0,11,12
 135 205 135 205 192 133 c 128,-1,13
 249 61 249 61 353 61 c 0,14,15
 430 61 430 61 472 100 c 1,16,-1
 472 271 l 1,17,-1
 333 271 l 1,18,-1
 333 340 l 1,19,-1
 548 340 l 1,20,-1
 548 64 l 1,21,22
 470 -12 470 -12 344 -12 c 0,23,24
 213 -12 213 -12 131 79 c 128,-1,25
 49 170 49 170 49 328 c 0,0,1
261 -176 m 1,26,27
 350 -164 350 -164 350 -130 c 0,28,29
 350 -99 350 -99 299 -86 c 1,30,-1
 317 -48 l 1,31,32
 368 -56 368 -56 391 -74 c 128,-1,33
 414 -92 414 -92 414 -125 c 0,34,35
 414 -166 414 -166 373 -188.5 c 128,-1,36
 332 -211 332 -211 269 -216 c 1,37,-1
 261 -176 l 1,26,27
EndSplineSet
EndChar

StartChar: uni0123
Encoding: 291 291 231
Width: 504
GlyphClass: 2
Flags: W
LayerCount: 2
Fore
SplineSet
45 -93 m 128,-1,1
 45 -31 45 -31 116 17 c 1,2,-1
 116 21 l 1,3,4
 73 48 73 48 73 100 c 0,5,6
 73 154 73 154 126 190 c 1,7,-1
 126 194 l 1,8,9
 63 245 63 245 63 325 c 0,10,11
 63 402 63 402 116 450 c 128,-1,12
 169 498 169 498 246 498 c 0,13,14
 284 498 284 498 315 486 c 1,15,-1
 484 486 l 1,16,-1
 484 423 l 1,17,-1
 384 423 l 1,18,19
 424 385 424 385 424 323 c 0,20,21
 424 247 424 247 373 200.5 c 128,-1,22
 322 154 322 154 246 154 c 0,23,24
 207 154 207 154 173 171 c 1,25,26
 142 144 142 144 142 113 c 0,27,28
 142 60 142 60 228 60 c 2,29,-1
 322 60 l 2,30,31
 408 60 408 60 450 32 c 128,-1,32
 492 4 492 4 492 -56 c 0,33,34
 492 -126 492 -126 424 -175 c 128,-1,35
 356 -224 356 -224 246 -224 c 0,36,37
 155 -224 155 -224 100 -189.5 c 128,-1,0
 45 -155 45 -155 45 -93 c 128,-1,1
117 -82 m 0,38,39
 117 -121 117 -121 154.5 -144 c 128,-1,40
 192 -167 192 -167 258 -167 c 0,41,42
 325 -167 325 -167 368.5 -137.5 c 128,-1,43
 412 -108 412 -108 412 -68 c 0,44,45
 412 -35 412 -35 387.5 -21.5 c 128,-1,46
 363 -8 363 -8 314 -8 c 2,47,-1
 230 -8 l 2,48,49
 195 -8 195 -8 167 0 c 1,50,51
 117 -36 117 -36 117 -82 c 0,38,39
143 325 m 128,-1,53
 143 273 143 273 173 241 c 128,-1,54
 203 209 203 209 246 209 c 128,-1,55
 289 209 289 209 319 241 c 128,-1,56
 349 273 349 273 349 325 c 128,-1,57
 349 377 349 377 319.5 407.5 c 128,-1,58
 290 438 290 438 246 438 c 128,-1,59
 202 438 202 438 172.5 407.5 c 128,-1,52
 143 377 143 377 143 325 c 128,-1,53
170 618 m 0,60,61
 170 659 170 659 211 681.5 c 128,-1,62
 252 704 252 704 315 710 c 1,63,-1
 323 669 l 1,64,65
 234 657 234 657 234 624 c 0,66,67
 234 592 234 592 286 579 c 1,68,-1
 267 541 l 1,69,70
 217 549 217 549 193.5 567 c 128,-1,71
 170 585 170 585 170 618 c 0,60,61
EndSplineSet
EndChar

StartChar: Hcircumflex
Encoding: 292 292 232
Width: 647
GlyphClass: 2
Flags: W
LayerCount: 2
Fore
SplineSet
87 0 m 1,0,-1
 87 656 l 1,1,-1
 171 656 l 1,2,-1
 171 381 l 1,3,-1
 476 381 l 1,4,-1
 476 656 l 1,5,-1
 559 656 l 1,6,-1
 559 0 l 1,7,-1
 476 0 l 1,8,-1
 476 309 l 1,9,-1
 171 309 l 1,10,-1
 171 0 l 1,11,-1
 87 0 l 1,0,-1
187 706 m 1,12,-1
 283 818 l 1,13,-1
 363 818 l 1,14,-1
 459 706 l 1,15,-1
 392 706 l 1,16,-1
 325 774 l 1,17,-1
 321 774 l 1,18,-1
 254 706 l 1,19,-1
 187 706 l 1,12,-1
EndSplineSet
EndChar

StartChar: hcircumflex
Encoding: 293 293 233
Width: 544
GlyphClass: 2
Flags: W
LayerCount: 2
Fore
SplineSet
-12 749 m 1,0,-1
 84 860 l 1,1,-1
 163 860 l 1,2,-1
 259 749 l 1,3,-1
 193 749 l 1,4,-1
 126 817 l 1,5,-1
 122 817 l 1,6,-1
 55 749 l 1,7,-1
 -12 749 l 1,0,-1
82 0 m 1,8,-1
 82 712 l 1,9,-1
 164 712 l 1,10,-1
 164 518 l 1,11,-1
 161 418 l 1,12,13
 245 498 245 498 323 498 c 0,14,15
 471 498 471 498 471 308 c 2,16,-1
 471 0 l 1,17,-1
 389 0 l 1,18,-1
 389 297 l 2,19,20
 389 365 389 365 367 396 c 128,-1,21
 345 427 345 427 297 427 c 0,22,23
 262 427 262 427 233 409.5 c 128,-1,24
 204 392 204 392 164 352 c 1,25,-1
 164 0 l 1,26,-1
 82 0 l 1,8,-1
EndSplineSet
EndChar

StartChar: Hbar
Encoding: 294 294 234
Width: 682
GlyphClass: 2
Flags: W
LayerCount: 2
Fore
SplineSet
30 492 m 1,0,-1
 30 534 l 1,1,-1
 105 539 l 1,2,-1
 105 656 l 1,3,-1
 188 656 l 1,4,-1
 188 539 l 1,5,-1
 493 539 l 1,6,-1
 493 656 l 1,7,-1
 577 656 l 1,8,-1
 577 539 l 1,9,-1
 652 539 l 1,10,-1
 652 492 l 1,11,-1
 577 492 l 1,12,-1
 577 0 l 1,13,-1
 493 0 l 1,14,-1
 493 309 l 1,15,-1
 188 309 l 1,16,-1
 188 0 l 1,17,-1
 105 0 l 1,18,-1
 105 492 l 1,19,-1
 30 492 l 1,0,-1
188 381 m 1,20,-1
 493 381 l 1,21,-1
 493 492 l 1,22,-1
 188 492 l 1,23,-1
 188 381 l 1,20,-1
EndSplineSet
EndChar

StartChar: hbar
Encoding: 295 295 235
Width: 544
GlyphClass: 2
Flags: W
LayerCount: 2
Fore
SplineSet
8 571 m 1,0,-1
 8 614 l 1,1,-1
 82 619 l 1,2,-1
 82 712 l 1,3,-1
 164 712 l 1,4,-1
 164 619 l 1,5,-1
 346 619 l 1,6,-1
 346 571 l 1,7,-1
 164 571 l 1,8,-1
 164 498 l 1,9,-1
 161 398 l 1,10,11
 245 478 245 478 323 478 c 0,12,13
 471 478 471 478 471 288 c 2,14,-1
 471 0 l 1,15,-1
 389 0 l 1,16,-1
 389 277 l 2,17,18
 389 345 389 345 367 376 c 128,-1,19
 345 407 345 407 297 407 c 0,20,21
 262 407 262 407 233 389.5 c 128,-1,22
 204 372 204 372 164 332 c 1,23,-1
 164 0 l 1,24,-1
 82 0 l 1,25,-1
 82 571 l 1,26,-1
 8 571 l 1,0,-1
EndSplineSet
EndChar

StartChar: Itilde
Encoding: 296 296 236
Width: 258
GlyphClass: 2
Flags: W
LayerCount: 2
Fore
SplineSet
-16 711 m 1,0,1
 -11 759 -11 759 11.5 789 c 128,-1,2
 34 819 34 819 69 819 c 0,3,4
 97 819 97 819 134 793 c 128,-1,5
 171 767 171 767 187 767 c 0,6,7
 220 767 220 767 228 819 c 1,8,-1
 274 819 l 1,9,10
 269 772 269 772 246.5 741.5 c 128,-1,11
 224 711 224 711 189 711 c 0,12,13
 160 711 160 711 123 737 c 128,-1,14
 86 763 86 763 70 763 c 0,15,16
 38 763 38 763 30 711 c 1,17,-1
 -16 711 l 1,0,1
87 0 m 1,18,-1
 87 656 l 1,19,-1
 171 656 l 1,20,-1
 171 0 l 1,21,-1
 87 0 l 1,18,-1
EndSplineSet
EndChar

StartChar: itilde
Encoding: 297 297 237
Width: 246
GlyphClass: 2
Flags: W
LayerCount: 2
Fore
SplineSet
-16 579 m 1,0,1
 -12 626 -12 626 9 655.5 c 128,-1,2
 30 685 30 685 65 685 c 0,3,4
 93 685 93 685 129 659.5 c 128,-1,5
 165 634 165 634 179 634 c 0,6,7
 207 634 207 634 216 685 c 1,8,-1
 262 685 l 1,9,10
 258 638 258 638 237 608.5 c 128,-1,11
 216 579 216 579 181 579 c 0,12,13
 154 579 154 579 118 604.5 c 128,-1,14
 82 630 82 630 67 630 c 0,15,16
 38 630 38 630 31 579 c 1,17,-1
 -16 579 l 1,0,1
82 0 m 1,18,-1
 82 486 l 1,19,-1
 164 486 l 1,20,-1
 164 0 l 1,21,-1
 82 0 l 1,18,-1
EndSplineSet
EndChar

StartChar: Imacron
Encoding: 298 298 238
Width: 258
GlyphClass: 2
Flags: W
LayerCount: 2
Fore
SplineSet
5 729 m 1,0,-1
 5 786 l 1,1,-1
 253 786 l 1,2,-1
 253 729 l 1,3,-1
 5 729 l 1,0,-1
87 0 m 1,4,-1
 87 656 l 1,5,-1
 171 656 l 1,6,-1
 171 0 l 1,7,-1
 87 0 l 1,4,-1
EndSplineSet
EndChar

StartChar: imacron
Encoding: 299 299 239
Width: 246
GlyphClass: 2
Flags: W
LayerCount: 2
Fore
SplineSet
1 601 m 1,0,-1
 1 658 l 1,1,-1
 246 658 l 1,2,-1
 246 601 l 1,3,-1
 1 601 l 1,0,-1
82 0 m 1,4,-1
 82 486 l 1,5,-1
 164 486 l 1,6,-1
 164 0 l 1,7,-1
 82 0 l 1,4,-1
EndSplineSet
EndChar

StartChar: Iogonek
Encoding: 302 302 240
Width: 258
GlyphClass: 2
Flags: W
LayerCount: 2
Fore
SplineSet
41 -125 m 0,0,1
 41 -60 41 -60 107 0 c 1,2,-1
 87 0 l 1,3,-1
 87 656 l 1,4,-1
 171 656 l 1,5,-1
 171 0 l 1,6,7
 105 -50 105 -50 105 -107 c 0,8,9
 105 -129 105 -129 119 -141 c 128,-1,10
 133 -153 133 -153 153 -153 c 0,11,12
 174 -153 174 -153 193 -139 c 1,13,-1
 216 -184 l 1,14,15
 181 -212 181 -212 136 -212 c 0,16,17
 95 -212 95 -212 68 -189 c 128,-1,18
 41 -166 41 -166 41 -125 c 0,0,1
EndSplineSet
EndChar

StartChar: iogonek
Encoding: 303 303 241
Width: 246
GlyphClass: 2
Flags: W
LayerCount: 2
Fore
SplineSet
38 -121 m 0,0,1
 38 -64 38 -64 102 0 c 1,2,-1
 82 0 l 1,3,-1
 82 486 l 1,4,-1
 164 486 l 1,5,-1
 164 0 l 1,6,7
 99 -47 99 -47 99 -105 c 0,8,9
 99 -127 99 -127 112.5 -139 c 128,-1,10
 126 -151 126 -151 146 -151 c 0,11,12
 165 -151 165 -151 186 -138 c 1,13,-1
 207 -179 l 1,14,15
 173 -206 173 -206 129 -206 c 0,16,17
 89 -206 89 -206 63.5 -184 c 128,-1,18
 38 -162 38 -162 38 -121 c 0,0,1
66 639 m 0,19,20
 66 663 66 663 82.5 677.5 c 128,-1,21
 99 692 99 692 123 692 c 128,-1,22
 147 692 147 692 163 677.5 c 128,-1,23
 179 663 179 663 179 639 c 0,24,25
 179 616 179 616 163 601 c 128,-1,26
 147 586 147 586 123 586 c 128,-1,27
 99 586 99 586 82.5 601 c 128,-1,28
 66 616 66 616 66 639 c 0,19,20
EndSplineSet
EndChar

StartChar: Idotaccent
Encoding: 304 304 242
Width: 258
GlyphClass: 2
Flags: W
LayerCount: 2
Fore
SplineSet
72 768 m 0,0,1
 72 791 72 791 88.5 806 c 128,-1,2
 105 821 105 821 129 821 c 128,-1,3
 153 821 153 821 169.5 806 c 128,-1,4
 186 791 186 791 186 768 c 0,5,6
 186 744 186 744 169.5 729 c 128,-1,7
 153 714 153 714 129 714 c 128,-1,8
 105 714 105 714 88.5 729 c 128,-1,9
 72 744 72 744 72 768 c 0,0,1
87 0 m 1,10,-1
 87 656 l 1,11,-1
 171 656 l 1,12,-1
 171 0 l 1,13,-1
 87 0 l 1,10,-1
EndSplineSet
EndChar

StartChar: dotlessi
Encoding: 305 305 243
Width: 246
GlyphClass: 2
Flags: W
LayerCount: 2
Fore
SplineSet
82 0 m 1,0,-1
 82 486 l 1,1,-1
 164 486 l 1,2,-1
 164 0 l 1,3,-1
 82 0 l 1,0,-1
EndSplineSet
EndChar

StartChar: Jcircumflex
Encoding: 308 308 244
Width: 474
GlyphClass: 2
Flags: W
LayerCount: 2
Fore
SplineSet
29 93 m 1,0,-1
 88 135 l 1,1,2
 131 61 131 61 202 61 c 0,3,4
 255 61 255 61 281 94 c 128,-1,5
 307 127 307 127 307 201 c 2,6,-1
 307 656 l 1,7,-1
 390 656 l 1,8,-1
 390 193 l 2,9,10
 390 102 390 102 345.5 45 c 128,-1,11
 301 -12 301 -12 209 -12 c 0,12,13
 87 -12 87 -12 29 93 c 1,0,-1
209 706 m 1,14,-1
 305 818 l 1,15,-1
 385 818 l 1,16,-1
 481 706 l 1,17,-1
 414 706 l 1,18,-1
 347 774 l 1,19,-1
 343 774 l 1,20,-1
 276 706 l 1,21,-1
 209 706 l 1,14,-1
EndSplineSet
EndChar

StartChar: jcircumflex
Encoding: 309 309 245
Width: 247
GlyphClass: 2
Flags: W
LayerCount: 2
Fore
SplineSet
-40 -204 m 1,0,-1
 -23 -142 l 1,1,2
 1 -150 1 -150 23 -150 c 0,3,4
 57 -150 57 -150 70 -126.5 c 128,-1,5
 83 -103 83 -103 83 -55 c 2,6,-1
 83 486 l 1,7,-1
 165 486 l 1,8,-1
 165 -55 l 2,9,10
 165 -217 165 -217 32 -217 c 0,11,12
 -8 -217 -8 -217 -40 -204 c 1,0,-1
-5 573 m 1,13,-1
 90 714 l 1,14,-1
 158 714 l 1,15,-1
 252 573 l 1,16,-1
 193 573 l 1,17,-1
 126 664 l 1,18,-1
 122 664 l 1,19,-1
 55 573 l 1,20,-1
 -5 573 l 1,13,-1
EndSplineSet
EndChar

StartChar: uni0136
Encoding: 310 310 246
Width: 574
GlyphClass: 2
Flags: W
LayerCount: 2
Fore
SplineSet
87 0 m 1,0,-1
 87 656 l 1,1,-1
 171 656 l 1,2,-1
 171 327 l 1,3,-1
 173 327 l 1,4,-1
 446 656 l 1,5,-1
 541 656 l 1,6,-1
 335 406 l 1,7,-1
 572 0 l 1,8,-1
 479 0 l 1,9,-1
 283 341 l 1,10,-1
 171 208 l 1,11,-1
 171 0 l 1,12,-1
 87 0 l 1,0,-1
239 -176 m 1,13,14
 327 -164 327 -164 327 -130 c 0,15,16
 327 -98 327 -98 276 -86 c 1,17,-1
 294 -48 l 1,18,19
 345 -56 345 -56 368 -73.5 c 128,-1,20
 391 -91 391 -91 391 -125 c 0,21,22
 391 -166 391 -166 350 -188.5 c 128,-1,23
 309 -211 309 -211 247 -216 c 1,24,-1
 239 -176 l 1,13,14
EndSplineSet
EndChar

StartChar: uni0137
Encoding: 311 311 247
Width: 495
GlyphClass: 2
Flags: W
LayerCount: 2
Fore
SplineSet
82 0 m 1,0,-1
 82 712 l 1,1,-1
 163 712 l 1,2,-1
 163 230 l 1,3,-1
 166 230 l 1,4,-1
 373 486 l 1,5,-1
 464 486 l 1,6,-1
 301 291 l 1,7,-1
 486 0 l 1,8,-1
 396 0 l 1,9,-1
 254 234 l 1,10,-1
 163 128 l 1,11,-1
 163 0 l 1,12,-1
 82 0 l 1,0,-1
186 -176 m 1,13,14
 275 -164 275 -164 275 -130 c 0,15,16
 275 -98 275 -98 224 -86 c 1,17,-1
 242 -48 l 1,18,19
 293 -56 293 -56 316 -73.5 c 128,-1,20
 339 -91 339 -91 339 -125 c 0,21,22
 339 -166 339 -166 298 -188.5 c 128,-1,23
 257 -211 257 -211 195 -216 c 1,24,-1
 186 -176 l 1,13,14
EndSplineSet
EndChar

StartChar: kgreenlandic
Encoding: 312 312 248
Width: 495
GlyphClass: 2
Flags: W
LayerCount: 2
Fore
SplineSet
82 0 m 1,0,-1
 82 486 l 1,1,-1
 164 486 l 1,2,-1
 164 228 l 1,3,-1
 167 228 l 1,4,-1
 373 486 l 1,5,-1
 464 486 l 1,6,-1
 303 291 l 1,7,-1
 486 0 l 1,8,-1
 396 0 l 1,9,-1
 254 231 l 1,10,-1
 164 125 l 1,11,-1
 164 0 l 1,12,-1
 82 0 l 1,0,-1
EndSplineSet
EndChar

StartChar: Lacute
Encoding: 313 313 249
Width: 481
GlyphClass: 2
Flags: W
LayerCount: 2
Fore
SplineSet
81 706 m 1,0,-1
 169 818 l 1,1,-1
 263 818 l 1,2,-1
 150 706 l 1,3,-1
 81 706 l 1,0,-1
87 0 m 1,4,-1
 87 656 l 1,5,-1
 171 656 l 1,6,-1
 171 71 l 1,7,-1
 457 71 l 1,8,-1
 457 0 l 1,9,-1
 87 0 l 1,4,-1
EndSplineSet
EndChar

StartChar: lacute
Encoding: 314 314 250
Width: 255
GlyphClass: 2
Flags: W
LayerCount: 2
Fore
SplineSet
68 759 m 1,0,-1
 156 870 l 1,1,-1
 250 870 l 1,2,-1
 137 759 l 1,3,-1
 68 759 l 1,0,-1
82 98 m 2,4,-1
 82 712 l 1,5,-1
 164 712 l 1,6,-1
 164 92 l 2,7,8
 164 56 164 56 187 56 c 0,9,10
 196 56 196 56 205 58 c 1,11,-1
 216 -4 l 1,12,13
 198 -12 198 -12 169 -12 c 0,14,15
 82 -12 82 -12 82 98 c 2,4,-1
EndSplineSet
EndChar

StartChar: uni013B
Encoding: 315 315 251
Width: 481
GlyphClass: 2
Flags: W
LayerCount: 2
Fore
SplineSet
87 0 m 1,0,-1
 87 656 l 1,1,-1
 171 656 l 1,2,-1
 171 71 l 1,3,-1
 457 71 l 1,4,-1
 457 0 l 1,5,-1
 87 0 l 1,0,-1
201 -176 m 1,6,7
 289 -164 289 -164 289 -130 c 0,8,9
 289 -98 289 -98 238 -86 c 1,10,-1
 256 -48 l 1,11,12
 307 -56 307 -56 330 -73.5 c 128,-1,13
 353 -91 353 -91 353 -125 c 0,14,15
 353 -166 353 -166 312 -188.5 c 128,-1,16
 271 -211 271 -211 209 -216 c 1,17,-1
 201 -176 l 1,6,7
EndSplineSet
EndChar

StartChar: uni013C
Encoding: 316 316 252
Width: 255
GlyphClass: 2
Flags: W
LayerCount: 2
Fore
SplineSet
82 98 m 2,0,-1
 82 712 l 1,1,-1
 164 712 l 1,2,-1
 164 92 l 2,3,4
 164 56 164 56 187 56 c 0,5,6
 196 56 196 56 205 58 c 1,7,-1
 216 -4 l 1,8,9
 198 -12 198 -12 169 -12 c 0,10,11
 82 -12 82 -12 82 98 c 2,0,-1
85 -176 m 1,12,13
 174 -164 174 -164 174 -130 c 0,14,15
 174 -98 174 -98 123 -86 c 1,16,-1
 141 -48 l 1,17,18
 192 -56 192 -56 215 -73.5 c 128,-1,19
 238 -91 238 -91 238 -125 c 0,20,21
 238 -166 238 -166 197 -188.5 c 128,-1,22
 156 -211 156 -211 94 -216 c 1,23,-1
 85 -176 l 1,12,13
EndSplineSet
EndChar

StartChar: Lcaron
Encoding: 317 317 253
Width: 481
GlyphClass: 2
Flags: W
LayerCount: 2
Fore
SplineSet
87 0 m 1,0,-1
 87 656 l 1,1,-1
 171 656 l 1,2,-1
 171 71 l 1,3,-1
 457 71 l 1,4,-1
 457 0 l 1,5,-1
 87 0 l 1,0,-1
327 726 m 1,6,-1
 386 726 l 1,7,-1
 385 669 l 1,8,-1
 371 514 l 1,9,-1
 331 514 l 1,10,-1
 327 726 l 1,6,-1
EndSplineSet
EndChar

StartChar: lcaron
Encoding: 318 318 254
Width: 265
GlyphClass: 2
Flags: W
LayerCount: 2
Fore
SplineSet
82 98 m 2,0,-1
 82 712 l 1,1,-1
 164 712 l 1,2,-1
 164 92 l 2,3,4
 164 56 164 56 187 56 c 0,5,6
 196 56 196 56 205 58 c 1,7,-1
 216 -4 l 1,8,9
 198 -12 198 -12 169 -12 c 0,10,11
 82 -12 82 -12 82 98 c 2,0,-1
218 760 m 1,12,-1
 276 760 l 1,13,-1
 276 703 l 1,14,-1
 262 548 l 1,15,-1
 221 548 l 1,16,-1
 218 760 l 1,12,-1
EndSplineSet
EndChar

StartChar: Ldot
Encoding: 319 319 255
Width: 481
GlyphClass: 2
Flags: W
LayerCount: 2
Fore
SplineSet
87 0 m 1,0,-1
 87 656 l 1,1,-1
 171 656 l 1,2,-1
 171 71 l 1,3,-1
 457 71 l 1,4,-1
 457 0 l 1,5,-1
 87 0 l 1,0,-1
315 325 m 0,6,7
 315 353 315 353 332 370.5 c 128,-1,8
 349 388 349 388 374 388 c 128,-1,9
 399 388 399 388 416.5 370.5 c 128,-1,10
 434 353 434 353 434 325 c 0,11,12
 434 298 434 298 416.5 280.5 c 128,-1,13
 399 263 399 263 374 263 c 128,-1,14
 349 263 349 263 332 280.5 c 128,-1,15
 315 298 315 298 315 325 c 0,6,7
EndSplineSet
EndChar

StartChar: ldot
Encoding: 320 320 256
Width: 362
GlyphClass: 2
Flags: W
LayerCount: 2
Fore
SplineSet
82 98 m 2,0,-1
 82 712 l 1,1,-1
 164 712 l 1,2,-1
 164 92 l 2,3,4
 164 56 164 56 187 56 c 0,5,6
 196 56 196 56 205 58 c 1,7,-1
 216 -4 l 1,8,9
 198 -12 198 -12 169 -12 c 0,10,11
 82 -12 82 -12 82 98 c 2,0,-1
244 325 m 0,12,13
 244 353 244 353 261 370.5 c 128,-1,14
 278 388 278 388 303 388 c 128,-1,15
 328 388 328 388 345.5 370.5 c 128,-1,16
 363 353 363 353 363 325 c 0,17,18
 363 298 363 298 345.5 280.5 c 128,-1,19
 328 263 328 263 303 263 c 128,-1,20
 278 263 278 263 261 280.5 c 128,-1,21
 244 298 244 298 244 325 c 0,12,13
EndSplineSet
EndChar

StartChar: Lslash
Encoding: 321 321 257
Width: 484
GlyphClass: 2
Flags: W
LayerCount: 2
Fore
SplineSet
10 194 m 1,0,-1
 10 261 l 1,1,-1
 90 303 l 1,2,-1
 90 656 l 1,3,-1
 174 656 l 1,4,-1
 174 344 l 1,5,-1
 362 445 l 1,6,-1
 362 377 l 1,7,-1
 174 277 l 1,8,-1
 174 71 l 1,9,-1
 460 71 l 1,10,-1
 460 0 l 1,11,-1
 90 0 l 1,12,-1
 90 236 l 1,13,-1
 10 194 l 1,0,-1
EndSplineSet
EndChar

StartChar: lslash
Encoding: 322 322 258
Width: 262
GlyphClass: 2
Flags: W
LayerCount: 2
Fore
SplineSet
23 291 m 1,0,-1
 23 361 l 1,1,-1
 86 401 l 1,2,-1
 86 712 l 1,3,-1
 169 712 l 1,4,-1
 169 444 l 1,5,-1
 239 489 l 1,6,-1
 239 419 l 1,7,-1
 169 374 l 1,8,-1
 169 92 l 2,9,10
 169 56 169 56 192 56 c 0,11,12
 200 56 200 56 210 58 c 1,13,-1
 221 -4 l 1,14,15
 202 -12 202 -12 173 -12 c 0,16,17
 86 -12 86 -12 86 98 c 2,18,-1
 86 331 l 1,19,-1
 23 291 l 1,0,-1
EndSplineSet
EndChar

StartChar: Nacute
Encoding: 323 323 259
Width: 642
GlyphClass: 2
Flags: W
LayerCount: 2
Fore
SplineSet
87 0 m 1,0,-1
 87 656 l 1,1,-1
 173 656 l 1,2,-1
 411 244 l 1,3,-1
 482 108 l 1,4,-1
 486 108 l 1,5,6
 475 290 475 290 475 317 c 2,7,-1
 475 656 l 1,8,-1
 554 656 l 1,9,-1
 554 0 l 1,10,-1
 468 0 l 1,11,-1
 231 413 l 1,12,-1
 160 548 l 1,13,-1
 156 548 l 1,14,15
 166 383 166 383 166 343 c 2,16,-1
 166 0 l 1,17,-1
 87 0 l 1,0,-1
273 706 m 1,18,-1
 361 818 l 1,19,-1
 455 818 l 1,20,-1
 342 706 l 1,21,-1
 273 706 l 1,18,-1
EndSplineSet
EndChar

StartChar: nacute
Encoding: 324 324 260
Width: 547
GlyphClass: 2
Flags: W
LayerCount: 2
Fore
SplineSet
82 0 m 1,0,-1
 82 486 l 1,1,-1
 150 486 l 1,2,-1
 157 416 l 1,3,-1
 160 416 l 1,4,5
 242 498 242 498 323 498 c 0,6,7
 471 498 471 498 471 308 c 2,8,-1
 471 0 l 1,9,-1
 389 0 l 1,10,-1
 389 297 l 2,11,12
 389 365 389 365 367 396 c 128,-1,13
 345 427 345 427 297 427 c 0,14,15
 262 427 262 427 233 409.5 c 128,-1,16
 204 392 204 392 164 352 c 1,17,-1
 164 0 l 1,18,-1
 82 0 l 1,0,-1
227 573 m 1,19,-1
 317 714 l 1,20,-1
 403 714 l 1,21,-1
 290 573 l 1,22,-1
 227 573 l 1,19,-1
EndSplineSet
EndChar

StartChar: uni0145
Encoding: 325 325 261
Width: 642
GlyphClass: 2
Flags: W
LayerCount: 2
Fore
SplineSet
87 0 m 1,0,-1
 87 656 l 1,1,-1
 173 656 l 1,2,-1
 411 244 l 1,3,-1
 482 108 l 1,4,-1
 486 108 l 1,5,6
 475 290 475 290 475 317 c 2,7,-1
 475 656 l 1,8,-1
 554 656 l 1,9,-1
 554 0 l 1,10,-1
 468 0 l 1,11,-1
 231 413 l 1,12,-1
 160 548 l 1,13,-1
 156 548 l 1,14,15
 166 383 166 383 166 343 c 2,16,-1
 166 0 l 1,17,-1
 87 0 l 1,0,-1
241 -176 m 1,18,19
 329 -164 329 -164 329 -130 c 0,20,21
 329 -98 329 -98 278 -86 c 1,22,-1
 296 -48 l 1,23,24
 347 -56 347 -56 370 -73.5 c 128,-1,25
 393 -91 393 -91 393 -125 c 0,26,27
 393 -166 393 -166 352 -188.5 c 128,-1,28
 311 -211 311 -211 249 -216 c 1,29,-1
 241 -176 l 1,18,19
EndSplineSet
EndChar

StartChar: uni0146
Encoding: 326 326 262
Width: 547
GlyphClass: 2
Flags: W
LayerCount: 2
Fore
SplineSet
82 0 m 1,0,-1
 82 486 l 1,1,-1
 150 486 l 1,2,-1
 157 416 l 1,3,-1
 160 416 l 1,4,5
 242 498 242 498 323 498 c 0,6,7
 471 498 471 498 471 308 c 2,8,-1
 471 0 l 1,9,-1
 389 0 l 1,10,-1
 389 297 l 2,11,12
 389 365 389 365 367 396 c 128,-1,13
 345 427 345 427 297 427 c 0,14,15
 262 427 262 427 233 409.5 c 128,-1,16
 204 392 204 392 164 352 c 1,17,-1
 164 0 l 1,18,-1
 82 0 l 1,0,-1
194 -176 m 1,19,20
 283 -164 283 -164 283 -130 c 0,21,22
 283 -99 283 -99 232 -86 c 1,23,-1
 250 -48 l 1,24,25
 301 -56 301 -56 324 -74 c 128,-1,26
 347 -92 347 -92 347 -125 c 0,27,28
 347 -166 347 -166 306 -188.5 c 128,-1,29
 265 -211 265 -211 202 -216 c 1,30,-1
 194 -176 l 1,19,20
EndSplineSet
EndChar

StartChar: Ncaron
Encoding: 327 327 263
Width: 642
GlyphClass: 2
Flags: W
LayerCount: 2
Fore
SplineSet
87 0 m 1,0,-1
 87 656 l 1,1,-1
 173 656 l 1,2,-1
 411 244 l 1,3,-1
 482 108 l 1,4,-1
 486 108 l 1,5,6
 475 290 475 290 475 317 c 2,7,-1
 475 656 l 1,8,-1
 554 656 l 1,9,-1
 554 0 l 1,10,-1
 468 0 l 1,11,-1
 231 413 l 1,12,-1
 160 548 l 1,13,-1
 156 548 l 1,14,15
 166 383 166 383 166 343 c 2,16,-1
 166 0 l 1,17,-1
 87 0 l 1,0,-1
188 818 m 1,18,-1
 255 818 l 1,19,-1
 322 750 l 1,20,-1
 326 750 l 1,21,-1
 393 818 l 1,22,-1
 460 818 l 1,23,-1
 364 706 l 1,24,-1
 284 706 l 1,25,-1
 188 818 l 1,18,-1
EndSplineSet
EndChar

StartChar: ncaron
Encoding: 328 328 264
Width: 547
GlyphClass: 2
Flags: W
LayerCount: 2
Fore
SplineSet
82 0 m 1,0,-1
 82 486 l 1,1,-1
 150 486 l 1,2,-1
 157 416 l 1,3,-1
 160 416 l 1,4,5
 242 498 242 498 323 498 c 0,6,7
 471 498 471 498 471 308 c 2,8,-1
 471 0 l 1,9,-1
 389 0 l 1,10,-1
 389 297 l 2,11,12
 389 365 389 365 367 396 c 128,-1,13
 345 427 345 427 297 427 c 0,14,15
 262 427 262 427 233 409.5 c 128,-1,16
 204 392 204 392 164 352 c 1,17,-1
 164 0 l 1,18,-1
 82 0 l 1,0,-1
163 714 m 1,19,-1
 223 714 l 1,20,-1
 290 622 l 1,21,-1
 294 622 l 1,22,-1
 361 714 l 1,23,-1
 420 714 l 1,24,-1
 326 573 l 1,25,-1
 258 573 l 1,26,-1
 163 714 l 1,19,-1
EndSplineSet
EndChar

StartChar: napostrophe
Encoding: 329 329 265
Width: 775
GlyphClass: 2
Flags: W
LayerCount: 2
Fore
SplineSet
63 469 m 1,0,1
 102 495 102 495 120 523.5 c 128,-1,2
 138 552 138 552 138 594 c 1,3,4
 135 593 135 593 130 593 c 0,5,6
 108 593 108 593 92.5 606.5 c 128,-1,7
 77 620 77 620 77 643 c 0,8,9
 77 669 77 669 91.5 684 c 128,-1,10
 106 699 106 699 130 699 c 0,11,12
 159 699 159 699 176 675 c 128,-1,13
 193 651 193 651 193 608 c 0,14,15
 193 493 193 493 86 431 c 1,16,-1
 63 469 l 1,0,1
304 0 m 1,17,-1
 304 486 l 1,18,-1
 372 486 l 1,19,-1
 379 416 l 1,20,-1
 382 416 l 1,21,22
 464 498 464 498 545 498 c 0,23,24
 693 498 693 498 693 308 c 2,25,-1
 693 0 l 1,26,-1
 611 0 l 1,27,-1
 611 297 l 2,28,29
 611 365 611 365 589.5 396 c 128,-1,30
 568 427 568 427 519 427 c 0,31,32
 484 427 484 427 455 409.5 c 128,-1,33
 426 392 426 392 387 352 c 1,34,-1
 387 0 l 1,35,-1
 304 0 l 1,17,-1
EndSplineSet
EndChar

StartChar: Omacron
Encoding: 332 332 266
Width: 659
GlyphClass: 2
Flags: W
LayerCount: 2
Fore
SplineSet
49 331 m 0,0,1
 49 486 49 486 126.5 577 c 128,-1,2
 204 668 204 668 330 668 c 0,3,4
 455 668 455 668 532.5 577 c 128,-1,5
 610 486 610 486 610 331 c 0,6,7
 610 175 610 175 532 81.5 c 128,-1,8
 454 -12 454 -12 330 -12 c 0,9,10
 205 -12 205 -12 127 81 c 128,-1,11
 49 174 49 174 49 331 c 0,0,1
135 331 m 0,12,13
 135 208 135 208 188 134.5 c 128,-1,14
 241 61 241 61 330 61 c 0,15,16
 418 61 418 61 471 134.5 c 128,-1,17
 524 208 524 208 524 331 c 0,18,19
 524 453 524 453 471 524 c 128,-1,20
 418 595 418 595 330 595 c 0,21,22
 241 595 241 595 188 524 c 128,-1,23
 135 453 135 453 135 331 c 0,12,13
206 729 m 1,24,-1
 206 786 l 1,25,-1
 454 786 l 1,26,-1
 454 729 l 1,27,-1
 206 729 l 1,24,-1
EndSplineSet
EndChar

StartChar: omacron
Encoding: 333 333 267
Width: 542
GlyphClass: 2
Flags: W
LayerCount: 2
Fore
SplineSet
46 242 m 0,0,1
 46 360 46 360 111.5 429 c 128,-1,2
 177 498 177 498 271 498 c 128,-1,3
 365 498 365 498 430.5 429 c 128,-1,4
 496 360 496 360 496 242 c 0,5,6
 496 126 496 126 430.5 57 c 128,-1,7
 365 -12 365 -12 271 -12 c 128,-1,8
 177 -12 177 -12 111.5 57 c 128,-1,9
 46 126 46 126 46 242 c 0,0,1
131 242 m 0,10,11
 131 159 131 159 170 107.5 c 128,-1,12
 209 56 209 56 271 56 c 0,13,14
 334 56 334 56 372.5 107.5 c 128,-1,15
 411 159 411 159 411 242 c 0,16,17
 411 326 411 326 372.5 378 c 128,-1,18
 334 430 334 430 271 430 c 0,19,20
 209 430 209 430 170 378 c 128,-1,21
 131 326 131 326 131 242 c 0,10,11
149 601 m 1,22,-1
 149 658 l 1,23,-1
 394 658 l 1,24,-1
 394 601 l 1,25,-1
 149 601 l 1,22,-1
EndSplineSet
EndChar

StartChar: Ohungarumlaut
Encoding: 336 336 268
Width: 659
GlyphClass: 2
Flags: W
LayerCount: 2
Fore
SplineSet
49 331 m 0,0,1
 49 486 49 486 126.5 577 c 128,-1,2
 204 668 204 668 330 668 c 0,3,4
 455 668 455 668 532.5 577 c 128,-1,5
 610 486 610 486 610 331 c 0,6,7
 610 175 610 175 532 81.5 c 128,-1,8
 454 -12 454 -12 330 -12 c 0,9,10
 205 -12 205 -12 127 81 c 128,-1,11
 49 174 49 174 49 331 c 0,0,1
135 331 m 0,12,13
 135 208 135 208 188 134.5 c 128,-1,14
 241 61 241 61 330 61 c 0,15,16
 418 61 418 61 471 134.5 c 128,-1,17
 524 208 524 208 524 331 c 0,18,19
 524 453 524 453 471 524 c 128,-1,20
 418 595 418 595 330 595 c 0,21,22
 241 595 241 595 188 524 c 128,-1,23
 135 453 135 453 135 331 c 0,12,13
221 706 m 1,24,-1
 287 818 l 1,25,-1
 364 818 l 1,26,-1
 280 706 l 1,27,-1
 221 706 l 1,24,-1
378 706 m 1,28,-1
 444 818 l 1,29,-1
 521 818 l 1,30,-1
 438 706 l 1,31,-1
 378 706 l 1,28,-1
EndSplineSet
EndChar

StartChar: ohungarumlaut
Encoding: 337 337 269
Width: 542
GlyphClass: 2
Flags: W
LayerCount: 2
Fore
SplineSet
46 242 m 0,0,1
 46 360 46 360 111.5 429 c 128,-1,2
 177 498 177 498 271 498 c 128,-1,3
 365 498 365 498 430.5 429 c 128,-1,4
 496 360 496 360 496 242 c 0,5,6
 496 126 496 126 430.5 57 c 128,-1,7
 365 -12 365 -12 271 -12 c 128,-1,8
 177 -12 177 -12 111.5 57 c 128,-1,9
 46 126 46 126 46 242 c 0,0,1
131 242 m 0,10,11
 131 159 131 159 170 107.5 c 128,-1,12
 209 56 209 56 271 56 c 0,13,14
 334 56 334 56 372.5 107.5 c 128,-1,15
 411 159 411 159 411 242 c 0,16,17
 411 326 411 326 372.5 378 c 128,-1,18
 334 430 334 430 271 430 c 0,19,20
 209 430 209 430 170 378 c 128,-1,21
 131 326 131 326 131 242 c 0,10,11
173 571 m 1,22,-1
 244 714 l 1,23,-1
 316 714 l 1,24,-1
 228 571 l 1,25,-1
 173 571 l 1,22,-1
320 571 m 1,26,-1
 391 714 l 1,27,-1
 463 714 l 1,28,-1
 375 571 l 1,29,-1
 320 571 l 1,26,-1
EndSplineSet
EndChar

StartChar: OE
Encoding: 338 338 270
Width: 842
GlyphClass: 2
Flags: W
LayerCount: 2
Fore
SplineSet
49 331 m 0,0,1
 49 487 49 487 133 571.5 c 128,-1,2
 217 656 217 656 370 656 c 2,3,-1
 786 656 l 1,4,-1
 786 586 l 1,5,-1
 508 586 l 1,6,-1
 508 380 l 1,7,-1
 740 380 l 1,8,-1
 740 309 l 1,9,-1
 508 309 l 1,10,-1
 508 71 l 1,11,-1
 796 71 l 1,12,-1
 796 0 l 1,13,-1
 366 0 l 2,14,15
 217 0 217 0 133 87 c 128,-1,16
 49 174 49 174 49 331 c 0,0,1
135 331 m 0,17,18
 135 205 135 205 196.5 136.5 c 128,-1,19
 258 68 258 68 376 68 c 2,20,-1
 424 68 l 1,21,-1
 424 588 l 1,22,-1
 376 588 l 2,23,24
 258 588 258 588 196.5 522 c 128,-1,25
 135 456 135 456 135 331 c 0,17,18
EndSplineSet
EndChar

StartChar: oe
Encoding: 339 339 271
Width: 842
GlyphClass: 2
Flags: W
LayerCount: 2
Fore
SplineSet
46 242 m 0,0,1
 46 360 46 360 109.5 429 c 128,-1,2
 173 498 173 498 266 498 c 0,3,4
 322 498 322 498 369 466 c 128,-1,5
 416 434 416 434 442 376 c 1,6,7
 470 433 470 433 515 465.5 c 128,-1,8
 560 498 560 498 613 498 c 0,9,10
 702 498 702 498 751.5 436.5 c 128,-1,11
 801 375 801 375 801 269 c 0,12,13
 801 241 801 241 798 223 c 1,14,-1
 479 223 l 1,15,16
 482 148 482 148 525.5 101.5 c 128,-1,17
 569 55 569 55 632 55 c 0,18,19
 689 55 689 55 752 95 c 1,20,-1
 782 38 l 1,21,22
 704 -12 704 -12 622 -12 c 0,23,24
 565 -12 565 -12 518 20 c 128,-1,25
 471 52 471 52 443 109 c 1,26,27
 386 -12 386 -12 264 -12 c 0,28,29
 172 -12 172 -12 109 56.5 c 128,-1,30
 46 125 46 125 46 242 c 0,0,1
130 242 m 0,31,32
 130 159 130 159 168 107.5 c 128,-1,33
 206 56 206 56 266 56 c 128,-1,34
 326 56 326 56 364 107.5 c 128,-1,35
 402 159 402 159 402 242 c 0,36,37
 402 326 402 326 364 378 c 128,-1,38
 326 430 326 430 266 430 c 128,-1,39
 206 430 206 430 168 378 c 128,-1,40
 130 326 130 326 130 242 c 0,31,32
479 278 m 1,41,-1
 729 278 l 1,42,43
 729 352 729 352 698 392.5 c 128,-1,44
 667 433 667 433 611 433 c 0,45,46
 560 433 560 433 523 390.5 c 128,-1,47
 486 348 486 348 479 278 c 1,41,-1
EndSplineSet
EndChar

StartChar: Racute
Encoding: 340 340 272
Width: 576
GlyphClass: 2
Flags: W
LayerCount: 2
Fore
SplineSet
87 0 m 1,0,-1
 87 656 l 1,1,-1
 293 656 l 2,2,3
 522 656 522 656 522 472 c 0,4,5
 522 398 522 398 483 351 c 128,-1,6
 444 304 444 304 375 286 c 1,7,-1
 542 0 l 1,8,-1
 447 0 l 1,9,-1
 289 277 l 1,10,-1
 171 277 l 1,11,-1
 171 0 l 1,12,-1
 87 0 l 1,0,-1
171 345 m 1,13,-1
 281 345 l 2,14,15
 439 345 439 345 439 472 c 0,16,17
 439 535 439 535 399.5 562 c 128,-1,18
 360 589 360 589 281 589 c 2,19,-1
 171 589 l 1,20,-1
 171 345 l 1,13,-1
240 706 m 1,21,-1
 328 818 l 1,22,-1
 422 818 l 1,23,-1
 309 706 l 1,24,-1
 240 706 l 1,21,-1
EndSplineSet
EndChar

StartChar: racute
Encoding: 341 341 273
Width: 347
GlyphClass: 2
Flags: W
LayerCount: 2
Fore
SplineSet
82 0 m 1,0,-1
 82 486 l 1,1,-1
 150 486 l 1,2,-1
 157 398 l 1,3,-1
 160 398 l 1,4,5
 185 445 185 445 221 471.5 c 128,-1,6
 257 498 257 498 298 498 c 0,7,8
 327 498 327 498 350 488 c 1,9,-1
 334 416 l 1,10,11
 308 424 308 424 287 424 c 0,12,13
 253 424 253 424 220 397 c 128,-1,14
 187 370 187 370 164 312 c 1,15,-1
 164 0 l 1,16,-1
 82 0 l 1,0,-1
152 573 m 1,17,-1
 243 714 l 1,18,-1
 328 714 l 1,19,-1
 216 573 l 1,20,-1
 152 573 l 1,17,-1
EndSplineSet
EndChar

StartChar: uni0156
Encoding: 342 342 274
Width: 576
GlyphClass: 2
Flags: W
LayerCount: 2
Fore
SplineSet
87 0 m 1,0,-1
 87 656 l 1,1,-1
 293 656 l 2,2,3
 522 656 522 656 522 472 c 0,4,5
 522 398 522 398 483 351 c 128,-1,6
 444 304 444 304 375 286 c 1,7,-1
 542 0 l 1,8,-1
 447 0 l 1,9,-1
 289 277 l 1,10,-1
 171 277 l 1,11,-1
 171 0 l 1,12,-1
 87 0 l 1,0,-1
171 345 m 1,13,-1
 281 345 l 2,14,15
 439 345 439 345 439 472 c 0,16,17
 439 535 439 535 399.5 562 c 128,-1,18
 360 589 360 589 281 589 c 2,19,-1
 171 589 l 1,20,-1
 171 345 l 1,13,-1
222 -176 m 1,21,22
 311 -164 311 -164 311 -130 c 0,23,24
 311 -99 311 -99 260 -86 c 1,25,-1
 278 -48 l 1,26,27
 329 -56 329 -56 352 -74 c 128,-1,28
 375 -92 375 -92 375 -125 c 0,29,30
 375 -166 375 -166 334 -188.5 c 128,-1,31
 293 -211 293 -211 230 -216 c 1,32,-1
 222 -176 l 1,21,22
EndSplineSet
EndChar

StartChar: uni0157
Encoding: 343 343 275
Width: 347
GlyphClass: 2
Flags: W
LayerCount: 2
Fore
SplineSet
37 -176 m 1,0,1
 125 -164 125 -164 125 -130 c 0,2,3
 125 -98 125 -98 74 -86 c 1,4,-1
 92 -48 l 1,5,6
 143 -56 143 -56 166 -73.5 c 128,-1,7
 189 -91 189 -91 189 -125 c 0,8,9
 189 -166 189 -166 148 -188.5 c 128,-1,10
 107 -211 107 -211 45 -216 c 1,11,-1
 37 -176 l 1,0,1
82 0 m 1,12,-1
 82 486 l 1,13,-1
 150 486 l 1,14,-1
 157 398 l 1,15,-1
 160 398 l 1,16,17
 185 445 185 445 221 471.5 c 128,-1,18
 257 498 257 498 298 498 c 0,19,20
 327 498 327 498 350 488 c 1,21,-1
 334 416 l 1,22,23
 308 424 308 424 287 424 c 0,24,25
 253 424 253 424 220 397 c 128,-1,26
 187 370 187 370 164 312 c 1,27,-1
 164 0 l 1,28,-1
 82 0 l 1,12,-1
EndSplineSet
EndChar

StartChar: Rcaron
Encoding: 344 344 276
Width: 576
GlyphClass: 2
Flags: W
LayerCount: 2
Fore
SplineSet
87 0 m 1,0,-1
 87 656 l 1,1,-1
 293 656 l 2,2,3
 522 656 522 656 522 472 c 0,4,5
 522 398 522 398 483 351 c 128,-1,6
 444 304 444 304 375 286 c 1,7,-1
 542 0 l 1,8,-1
 447 0 l 1,9,-1
 289 277 l 1,10,-1
 171 277 l 1,11,-1
 171 0 l 1,12,-1
 87 0 l 1,0,-1
156 818 m 1,13,-1
 222 818 l 1,14,-1
 289 750 l 1,15,-1
 293 750 l 1,16,-1
 360 818 l 1,17,-1
 427 818 l 1,18,-1
 331 706 l 1,19,-1
 252 706 l 1,20,-1
 156 818 l 1,13,-1
171 345 m 1,21,-1
 281 345 l 2,22,23
 439 345 439 345 439 472 c 0,24,25
 439 535 439 535 399.5 562 c 128,-1,26
 360 589 360 589 281 589 c 2,27,-1
 171 589 l 1,28,-1
 171 345 l 1,21,-1
EndSplineSet
EndChar

StartChar: rcaron
Encoding: 345 345 277
Width: 347
GlyphClass: 2
Flags: W
LayerCount: 2
Fore
SplineSet
82 0 m 1,0,-1
 82 486 l 1,1,-1
 150 486 l 1,2,-1
 157 398 l 1,3,-1
 160 398 l 1,4,5
 185 445 185 445 221 471.5 c 128,-1,6
 257 498 257 498 298 498 c 0,7,8
 327 498 327 498 350 488 c 1,9,-1
 334 416 l 1,10,11
 308 424 308 424 287 424 c 0,12,13
 253 424 253 424 220 397 c 128,-1,14
 187 370 187 370 164 312 c 1,15,-1
 164 0 l 1,16,-1
 82 0 l 1,0,-1
89 714 m 1,17,-1
 149 714 l 1,18,-1
 216 622 l 1,19,-1
 220 622 l 1,20,-1
 287 714 l 1,21,-1
 346 714 l 1,22,-1
 251 573 l 1,23,-1
 184 573 l 1,24,-1
 89 714 l 1,17,-1
EndSplineSet
EndChar

StartChar: Sacute
Encoding: 346 346 278
Width: 529
GlyphClass: 2
Flags: W
LayerCount: 2
Fore
SplineSet
40 85 m 1,0,-1
 90 143 l 1,1,2
 169 61 169 61 271 61 c 0,3,4
 335 61 335 61 371.5 90 c 128,-1,5
 408 119 408 119 408 168 c 0,6,7
 408 192 408 192 401 209.5 c 128,-1,8
 394 227 394 227 375 241 c 128,-1,9
 356 255 356 255 342.5 262.5 c 128,-1,10
 329 270 329 270 298 284 c 2,11,-1
 204 325 l 2,12,13
 71 382 71 382 71 494 c 0,14,15
 71 569 71 569 130 618.5 c 128,-1,16
 189 668 189 668 278 668 c 0,17,18
 393 668 393 668 471 587 c 1,19,-1
 427 533 l 1,20,21
 362 595 362 595 278 595 c 0,22,23
 222 595 222 595 188.5 569 c 128,-1,24
 155 543 155 543 155 499 c 0,25,26
 155 477 155 477 163.5 459.5 c 128,-1,27
 172 442 172 442 191.5 428.5 c 128,-1,28
 211 415 211 415 224 408.5 c 128,-1,29
 237 402 237 402 264 390 c 2,30,-1
 358 350 l 2,31,32
 423 322 423 322 458 282 c 128,-1,33
 493 242 493 242 493 175 c 0,34,35
 493 95 493 95 431.5 41.5 c 128,-1,36
 370 -12 370 -12 269 -12 c 0,37,38
 134 -12 134 -12 40 85 c 1,0,-1
225 706 m 1,39,-1
 313 818 l 1,40,-1
 407 818 l 1,41,-1
 294 706 l 1,42,-1
 225 706 l 1,39,-1
EndSplineSet
EndChar

StartChar: sacute
Encoding: 347 347 279
Width: 419
GlyphClass: 2
Flags: W
LayerCount: 2
Fore
SplineSet
28 55 m 1,0,-1
 69 110 l 1,1,2
 141 52 141 52 212 52 c 0,3,4
 258 52 258 52 283 73.5 c 128,-1,5
 308 95 308 95 308 128 c 0,6,7
 308 146 308 146 299 160 c 128,-1,8
 290 174 290 174 271 185.5 c 128,-1,9
 252 197 252 197 238 203.5 c 128,-1,10
 224 210 224 210 197 220 c 0,11,12
 165 231 165 231 144 241 c 128,-1,13
 123 251 123 251 99.5 268 c 128,-1,14
 76 285 76 285 64 308 c 128,-1,15
 52 331 52 331 52 360 c 0,16,17
 52 420 52 420 97 459 c 128,-1,18
 142 498 142 498 219 498 c 0,19,20
 302 498 302 498 370 443 c 1,21,-1
 331 391 l 1,22,23
 274 434 274 434 220 434 c 0,24,25
 177 434 177 434 154 414 c 128,-1,26
 131 394 131 394 131 364 c 0,27,28
 131 344 131 344 148 327.5 c 128,-1,29
 165 311 165 311 179.5 304 c 128,-1,30
 194 297 194 297 232 283 c 0,31,32
 237 281 237 281 239 280 c 0,33,34
 267 269 267 269 282 263 c 128,-1,35
 297 257 297 257 320.5 243.5 c 128,-1,36
 344 230 344 230 356 216.5 c 128,-1,37
 368 203 368 203 377.5 181.5 c 128,-1,38
 387 160 387 160 387 133 c 0,39,40
 387 71 387 71 339.5 29.5 c 128,-1,41
 292 -12 292 -12 209 -12 c 0,42,43
 109 -12 109 -12 28 55 c 1,0,-1
155 573 m 1,44,-1
 245 714 l 1,45,-1
 331 714 l 1,46,-1
 218 573 l 1,47,-1
 155 573 l 1,44,-1
EndSplineSet
EndChar

StartChar: Scircumflex
Encoding: 348 348 280
Width: 529
GlyphClass: 2
Flags: W
LayerCount: 2
Fore
SplineSet
40 85 m 1,0,-1
 90 143 l 1,1,2
 169 61 169 61 271 61 c 0,3,4
 335 61 335 61 371.5 90 c 128,-1,5
 408 119 408 119 408 168 c 0,6,7
 408 192 408 192 401 209.5 c 128,-1,8
 394 227 394 227 375 241 c 128,-1,9
 356 255 356 255 342.5 262.5 c 128,-1,10
 329 270 329 270 298 284 c 2,11,-1
 204 325 l 2,12,13
 71 382 71 382 71 494 c 0,14,15
 71 569 71 569 130 618.5 c 128,-1,16
 189 668 189 668 278 668 c 0,17,18
 393 668 393 668 471 587 c 1,19,-1
 427 533 l 1,20,21
 362 595 362 595 278 595 c 0,22,23
 222 595 222 595 188.5 569 c 128,-1,24
 155 543 155 543 155 499 c 0,25,26
 155 477 155 477 163.5 459.5 c 128,-1,27
 172 442 172 442 191.5 428.5 c 128,-1,28
 211 415 211 415 224 408.5 c 128,-1,29
 237 402 237 402 264 390 c 2,30,-1
 358 350 l 2,31,32
 423 322 423 322 458 282 c 128,-1,33
 493 242 493 242 493 175 c 0,34,35
 493 95 493 95 431.5 41.5 c 128,-1,36
 370 -12 370 -12 269 -12 c 0,37,38
 134 -12 134 -12 40 85 c 1,0,-1
141 706 m 1,39,-1
 237 818 l 1,40,-1
 316 818 l 1,41,-1
 412 706 l 1,42,-1
 345 706 l 1,43,-1
 278 774 l 1,44,-1
 274 774 l 1,45,-1
 207 706 l 1,46,-1
 141 706 l 1,39,-1
EndSplineSet
EndChar

StartChar: scircumflex
Encoding: 349 349 281
Width: 419
GlyphClass: 2
Flags: W
LayerCount: 2
Fore
SplineSet
28 55 m 1,0,-1
 69 110 l 1,1,2
 141 52 141 52 212 52 c 0,3,4
 258 52 258 52 283 73.5 c 128,-1,5
 308 95 308 95 308 128 c 0,6,7
 308 146 308 146 299 160 c 128,-1,8
 290 174 290 174 271 185.5 c 128,-1,9
 252 197 252 197 238 203.5 c 128,-1,10
 224 210 224 210 197 220 c 0,11,12
 165 231 165 231 144 241 c 128,-1,13
 123 251 123 251 99.5 268 c 128,-1,14
 76 285 76 285 64 308 c 128,-1,15
 52 331 52 331 52 360 c 0,16,17
 52 420 52 420 97 459 c 128,-1,18
 142 498 142 498 219 498 c 0,19,20
 302 498 302 498 370 443 c 1,21,-1
 331 391 l 1,22,23
 274 434 274 434 220 434 c 0,24,25
 177 434 177 434 154 414 c 128,-1,26
 131 394 131 394 131 364 c 0,27,28
 131 344 131 344 148 327.5 c 128,-1,29
 165 311 165 311 179.5 304 c 128,-1,30
 194 297 194 297 232 283 c 0,31,32
 237 281 237 281 239 280 c 0,33,34
 267 269 267 269 282 263 c 128,-1,35
 297 257 297 257 320.5 243.5 c 128,-1,36
 344 230 344 230 356 216.5 c 128,-1,37
 368 203 368 203 377.5 181.5 c 128,-1,38
 387 160 387 160 387 133 c 0,39,40
 387 71 387 71 339.5 29.5 c 128,-1,41
 292 -12 292 -12 209 -12 c 0,42,43
 109 -12 109 -12 28 55 c 1,0,-1
91 573 m 1,44,-1
 186 714 l 1,45,-1
 254 714 l 1,46,-1
 348 573 l 1,47,-1
 289 573 l 1,48,-1
 222 664 l 1,49,-1
 218 664 l 1,50,-1
 151 573 l 1,51,-1
 91 573 l 1,44,-1
EndSplineSet
EndChar

